SplineFontDB: 3.0
FontName: Belgika-5th
FullName: Belgika 5th
FamilyName: Belgika
Weight: 5th
Copyright: Copyright (c) 2014-2015, Pierre Huyghebaert\n\nOSP: Version 1.0 (http://ospublish.constantvzw.org/foundry)\n\nBelgica and Belgika fonts are released under the OFL 1.1 -- http://scripts.sil.org/OFL\n\nFor information on what you're allowed to change or modify, \nconsult the OFL-1.1.txt and OFL-FAQ.txt files.  The OFL-FAQ also gives a very general rationale and various recommendations regarding why you would want to contribute to the project or make your own version of the font.
UComments: "2014-12-26: Created with FontForge (http://fontforge.org)"
Version: 001.000
StrokeWidth: 50
ItalicAngle: 0
UnderlinePosition: -100
UnderlineWidth: 50
Ascent: 800
Descent: 200
InvalidEm: 0
sfntRevision: 0x00010000
LayerCount: 2
Layer: 0 0 "Back" 1
Layer: 1 0 "Fore" 0
XUID: [1021 878 1716694747 13563712]
FSType: 0
OS2Version: 0
OS2_WeightWidthSlopeOnly: 0
OS2_UseTypoMetrics: 1
CreationTime: 1419624870
ModificationTime: 1425459136
PfmFamily: 17
TTFWeight: 700
TTFWidth: 5
LineGap: 90
VLineGap: 0
OS2TypoAscent: 0
OS2TypoAOffset: 1
OS2TypoDescent: 0
OS2TypoDOffset: 1
OS2TypoLinegap: 90
OS2WinAscent: 0
OS2WinAOffset: 1
OS2WinDescent: 0
OS2WinDOffset: 1
HheadAscent: 0
HheadAOffset: 1
HheadDescent: 0
HheadDOffset: 1
OS2CapHeight: 0
OS2XHeight: 0
OS2Vendor: 'PfEd'
MarkAttachClasses: 1
DEI: 91125
Encoding: ISO8859-1
UnicodeInterp: none
NameList: AGL For New Fonts
DisplaySize: -48
AntiAlias: 1
FitToEm: 1
WidthSeparation: 150
WinInfo: 40 20 11
BeginPrivate: 0
EndPrivate
Grid
-560.827148438 13.3330078125 m 0
 1939.17285156 13.3330078125 l 1024
  Named: "accent-low"
-560.827148438 371.666992188 m 0
 1939.17285156 371.666992188 l 1024
  Named: "x-height"
EndSplineSet
BeginChars: 256 256

StartChar: A
Encoding: 65 65 0
Width: 674
VWidth: 66
Flags: W
HStem: 0.0644531 21.0098G<101.035 118.46 555.81 573.176> 0.0644531 21.0098G<101.035 118.46 555.81 573.176> 226.667 133.333<277.511 396.004> 780 20G<336.743 350.793> 780 20G<336.743 350.793>
VStem: 506.23 129.538<17.9293 100.662>
LayerCount: 2
Back
Fore
SplineSet
277.510742188 360 m 1x24
 396.00390625 360 l 1
 374.81640625 420.623046875 354.473632812 478.868164062 336.615234375 530.0859375 c 1
 277.510742188 360 l 1x24
399.422851562 756.080078125 m 0
 405.296875 739.002929688 543.370117188 342.641601562 632.103515625 88.654296875 c 0
 634.591796875 81.5322265625 635.768554688 74.244140625 635.768554688 67.056640625 c 0
 635.768554688 39.3994140625 618.344726562 13.2294921875 591.154296875 3.73046875 c 0
 584.057617188 1.2509765625 576.7734375 0.07421875 569.578125 0.07421875 c 0
 542.041015625 0.07421875 515.79296875 17.3056640625 506.23046875 44.6796875 c 0
 486.578125 100.931640625 464.77734375 163.280273438 442.615234375 226.666992188 c 1
 231.177734375 226.666992188 l 1
 167.97265625 44.783203125 l 2
 158.505859375 17.541015625 132.30859375 0.064453125 104.611328125 0.064453125 c 0
 97.458984375 0.064453125 90.20703125 1.2294921875 83.1171875 3.693359375 c 0
 55.69140625 13.2236328125 38.4072265625 39.5 38.4072265625 67.078125 c 0
 38.4072265625 74.2373046875 39.572265625 81.4853515625 42.02734375 88.5498046875 c 2
 273.693359375 755.216796875 l 2
 283.174804688 782.5 309.228515625 799.747070312 336.649414062 799.924804688 c 0
 336.702148438 799.974609375 336.735351562 800 336.75 800 c 0xb4
 364.8359375 800 390.220703125 782.6171875 399.422851562 756.080078125 c 0
EndSplineSet
Validated: 1
EndChar

StartChar: B
Encoding: 66 66 1
Width: 693
VWidth: 66
Flags: W
HStem: 0.833984 133.056<238.327 443.55> 400 133.333<238.327 354.567> 666.667 133.333<238.327 351.034>
VStem: 104.994 133.333<133.89 400 533.333 666.667> 371.669 133.335<550.704 646.939> 505 133.334<193.907 339.747>
LayerCount: 2
Back
Fore
SplineSet
238.327148438 533.333007812 m 1xf8
 315.689453125 533.333007812 l 2
 325.572265625 534.958007812 334.75390625 538.71484375 342.653320312 544.184570312 c 0
 360.145507812 556.296875 371.668945312 576.349609375 371.668945312 599.852539062 c 0
 371.668945312 636.171875 342.092773438 666.043945312 305.387695312 666.666992188 c 2
 238.327148438 666.666992188 l 1
 238.327148438 533.333007812 l 1xf8
323.399414062 400 m 2
 317.349609375 399.454101562 311.163085938 399.166992188 305.077148438 399.166992188 c 0
 301.586914062 399.166992188 298.043945312 399.450195312 294.569335938 400 c 2
 238.327148438 400 l 1
 238.327148438 133.889648438 l 1
 371.799804688 133.333007812 l 2
 445.265625 133.333007812 505 192.459960938 505 266.560546875 c 0xf4
 505 336.560546875 452.18359375 393.3515625 384.084960938 399.458007812 c 0
 380.38671875 399.7890625 377.327148438 399.952148438 373.080078125 400 c 2
 323.399414062 400 l 2
483.405273438 509.017578125 m 1
 575.16796875 466.754882812 638.333984375 373.895507812 638.333984375 266.568359375 c 0xf4
 638.333984375 118.499023438 518.716796875 0 371.522460938 0 c 2
 171.3828125 0.833984375 l 2
 133.41015625 0.9921875 104.994140625 34.611328125 104.994140625 67.5 c 2
 104.994140625 733.333007812 l 2
 104.994140625 773.686523438 143.047851562 800 171.661132812 800 c 2
 306.206054688 800 l 2
 415.78125 798.754882812 505.00390625 710.3671875 505.00390625 599.91015625 c 0xf8
 505.00390625 567.020507812 497.185546875 536.413085938 483.405273438 509.017578125 c 1
EndSplineSet
Validated: 1
EndChar

StartChar: C
Encoding: 67 67 2
Width: 749
VWidth: 66
Flags: W
HStem: 0 133.333<331.127 511.692> 666.667 133.333<331.127 511.708>
VStem: 88.333 133.334<249.876 550.124>
LayerCount: 2
Back
Fore
SplineSet
657.973632812 192.140625 m 0
 670.828125 179.286132812 677.293945312 162.138671875 677.293945312 144.975585938 c 0
 677.293945312 127.877929688 670.87890625 110.764648438 657.973632812 97.859375 c 0
 597.985351562 37.87109375 515.040039062 0 422.5 0 c 0
 238.428710938 0 88.3330078125 148.784179688 88.3330078125 333.333007812 c 2
 88.3330078125 466.666992188 l 2
 88.3330078125 651.215820312 238.428710938 800 422.5 800 c 0
 515.045898438 800 597.97265625 762.122070312 658.016601562 702.180664062 c 0
 670.897460938 689.322265625 677.376953125 672.157226562 677.376953125 654.973632812 c 0
 677.376953125 637.896484375 670.9765625 620.801757812 658.09765625 607.900390625 c 0
 645.189453125 594.969726562 628.056640625 588.540039062 610.939453125 588.540039062 c 0
 593.795898438 588.540039062 576.66796875 594.990234375 563.81640625 607.819335938 c 0
 527.02734375 644.544921875 478.288085938 666.666992188 422.5 666.666992188 c 0
 311.571289062 666.666992188 221.666992188 577.1171875 221.666992188 466.666992188 c 2
 221.666992188 333.333007812 l 2
 221.666992188 222.8828125 311.571289062 133.333007812 422.5 133.333007812 c 0
 478.29296875 133.333007812 527.014648438 155.461914062 563.693359375 192.140625 c 0
 576.598632812 205.045898438 593.711914062 211.4609375 610.80859375 211.4609375 c 0
 627.97265625 211.4609375 645.119140625 204.995117188 657.973632812 192.140625 c 0
EndSplineSet
Validated: 1
EndChar

StartChar: D
Encoding: 68 68 3
Width: 809
VWidth: 66
Flags: W
HStem: 0 133.333<238.333 440.665> 666.667 133.333<238.333 442.59>
VStem: 105 133.333<133.333 666.667> 604.146 133.376<294.413 505.587>
LayerCount: 2
Back
Fore
SplineSet
238.333007812 133.333007812 m 1
 337.5 133.333007812 l 2
 404.763671875 133.333007812 474.387695312 159.501953125 526.193359375 211.306640625 c 0
 578.162109375 263.275390625 604.145507812 331.637695312 604.145507812 400 c 0
 604.145507812 468.362304688 578.162109375 536.724609375 526.193359375 588.693359375 c 0
 474.0625 640.823242188 406.388671875 666.666992188 338.333007812 666.666992188 c 2
 238.333007812 666.666992188 l 1
 238.333007812 133.333007812 l 1
105 66.6669921875 m 2
 105 733.333007812 l 2
 105 773.686523438 143.053710938 800 171.666992188 800 c 2
 338.333007812 800 l 2
 440.278320312 800 542.604492188 760.842773438 620.473632812 682.973632812 c 0
 698.505859375 604.94140625 737.521484375 502.470703125 737.521484375 400 c 0
 737.521484375 297.529296875 698.505859375 195.05859375 620.473632812 117.026367188 c 0
 542.279296875 38.8310546875 438.569335938 0 337.5 0 c 2
 171.666992188 0 l 2
 131.313476562 0 105 38.0537109375 105 66.6669921875 c 2
EndSplineSet
Validated: 1
EndChar

StartChar: E
Encoding: 69 69 4
Width: 668
VWidth: 66
Flags: W
HStem: 0 133.333<238.333 587.495> 333.333 133.334<238.333 520.828> 666.667 133.333<238.333 586.502>
VStem: 105 133.333<133.333 333.333 466.667 666.667>
CounterMasks: 1 e0
LayerCount: 2
Back
Fore
SplineSet
605 733.333007812 m 0
 605 697.045898438 574.905273438 666.666992188 538.333007812 666.666992188 c 2
 238.333007812 666.666992188 l 1
 238.333007812 466.666992188 l 1
 471.666992188 466.666992188 l 2
 507.954101562 466.666992188 538.333007812 436.572265625 538.333007812 400 c 0
 538.333007812 363.427734375 507.954101562 333.333007812 471.666992188 333.333007812 c 2
 238.333007812 333.333007812 l 1
 238.333007812 133.333007812 l 1
 538.333007812 133.333007812 l 2
 574.62109375 133.333007812 605 103.239257812 605 66.6669921875 c 0
 605 30.0947265625 574.62109375 0 538.333007812 0 c 2
 171.666992188 0 l 2
 143.053710938 0 105 26.3134765625 105 66.6669921875 c 2
 105 400 l 1
 105 733.333007812 l 2
 105 761.946289062 131.313476562 800 171.666992188 800 c 2
 538.333007812 800 l 2
 574.905273438 800 605 769.62109375 605 733.333007812 c 0
EndSplineSet
Validated: 1
EndChar

StartChar: F
Encoding: 70 70 5
Width: 626
VWidth: 66
Flags: W
HStem: 0 21G<153.381 189.953> 0 21G<153.381 189.953> 333.333 133.334<238.333 520.828> 666.667 133.333<238.333 586.502>
VStem: 105 133.333<17.5049 333.333 466.667 666.667>
LayerCount: 2
Back
Fore
SplineSet
605 733.333007812 m 0xb8
 605 697.045898438 574.905273438 666.666992188 538.333007812 666.666992188 c 2
 238.333007812 666.666992188 l 1
 238.333007812 466.666992188 l 1
 471.666992188 466.666992188 l 2
 507.954101562 466.666992188 538.333007812 436.572265625 538.333007812 400 c 0
 538.333007812 363.427734375 507.954101562 333.333007812 471.666992188 333.333007812 c 2
 238.333007812 333.333007812 l 1
 238.333007812 66.6669921875 l 2
 238.333007812 30.37890625 208.239257812 0 171.666992188 0 c 0
 135.094726562 0 105 30.37890625 105 66.6669921875 c 2
 105 400 l 1
 105 733.333007812 l 2
 105 761.946289062 131.313476562 800 171.666992188 800 c 2
 538.333007812 800 l 2
 574.905273438 800 605 769.62109375 605 733.333007812 c 0xb8
EndSplineSet
Validated: 1
EndChar

StartChar: G
Encoding: 71 71 6
Width: 862
VWidth: 66
Flags: W
HStem: 0 133.333<367.751 576.074> 312.5 133.333<475.165 640.833> 666.667 133.333<365.771 576.258>
VStem: 71.667 133.333<296.084 503.916> 456.667 317.5<330.005 426.108> 640.833 133.334<177.754 312.5>
LayerCount: 2
Back
Fore
SplineSet
456.666992188 379.166992188 m 0xf8
 456.666992188 415.454101562 486.760742188 445.833007812 523.333007812 445.833007812 c 2
 707.5 445.833007812 l 2
 747.853515625 445.833007812 774.166992188 407.779296875 774.166992188 379.166992188 c 2xf8
 774.166992188 164.166992188 l 2
 774.166992188 146.153320312 765.0234375 127.409179688 754.640625 117.026367188 c 0
 676.594726562 38.98046875 573.5234375 0 471.666992188 0 c 0
 369.810546875 0 266.739257812 38.98046875 188.693359375 117.026367188 c 0
 110.646484375 195.072265625 71.6669921875 298.143554688 71.6669921875 400 c 0
 71.6669921875 501.856445312 110.646484375 604.927734375 188.693359375 682.973632812 c 0
 266.561523438 760.842773438 368.888671875 800 470.833007812 800 c 0
 572.229492188 800 675.487304688 762.110351562 753.860351562 683.836914062 c 0
 766.734375 670.979492188 773.2109375 653.818359375 773.2109375 636.640625 c 0
 773.2109375 619.55859375 766.806640625 602.458984375 753.920898438 589.556640625 c 0
 741.013671875 576.6328125 723.885742188 570.206054688 706.7734375 570.206054688 c 0
 689.625 570.206054688 672.491210938 576.661132812 659.639648438 589.49609375 c 0
 607.846679688 641.223632812 539.436523438 666.666992188 470.833007812 666.666992188 c 0
 402.778320312 666.666992188 335.104492188 640.82421875 282.973632812 588.693359375 c 0
 231.01953125 536.739257812 205 468.143554688 205 400 c 0
 205 331.856445312 231.01953125 263.260742188 282.973632812 211.306640625 c 0
 334.927734375 159.353515625 403.5234375 133.333007812 471.666992188 133.333007812 c 0
 531.573242188 133.333007812 591.270507812 153.11328125 640.833007812 193.61328125 c 1
 640.833007812 312.5 l 1xf4
 523.333007812 312.5 l 2
 486.760742188 312.5 456.666992188 342.87890625 456.666992188 379.166992188 c 0xf8
EndSplineSet
Validated: 1
EndChar

StartChar: H
Encoding: 72 72 7
Width: 743
VWidth: 66
Flags: W
HStem: 0 21G<153.523 189.811 553.523 589.811> 0 21G<153.523 189.811 553.523 589.811> 333.333 133.334<238.333 505> 780 20G<153.381 189.953 553.381 589.953> 780 20G<153.381 189.953 553.381 589.953>
VStem: 105 133.333<18.4985 333.333 466.667 782.495> 505 133.333<18.4985 333.333 466.667 782.495>
LayerCount: 2
Back
Fore
SplineSet
171.666992188 0 m 0xb6
 135.37890625 0 105 30.0947265625 105 66.6669921875 c 2
 105 400 l 1
 105 733.333007812 l 2
 105 769.62109375 135.094726562 800 171.666992188 800 c 0
 208.239257812 800 238.333007812 769.62109375 238.333007812 733.333007812 c 2
 238.333007812 466.666992188 l 1
 505 466.666992188 l 1
 505 733.333007812 l 2
 505 769.62109375 535.094726562 800 571.666992188 800 c 0
 608.239257812 800 638.333007812 769.62109375 638.333007812 733.333007812 c 2
 638.333007812 66.6669921875 l 2
 638.333007812 30.0947265625 607.954101562 0 571.666992188 0 c 0
 535.37890625 0 505 30.0947265625 505 66.6669921875 c 2
 505 333.333007812 l 1
 238.333007812 333.333007812 l 1
 238.333007812 66.6669921875 l 2
 238.333007812 30.0947265625 207.954101562 0 171.666992188 0 c 0xb6
EndSplineSet
Validated: 1
EndChar

StartChar: I
Encoding: 73 73 8
Width: 363
VWidth: 66
Flags: W
HStem: 0 21G<163.381 199.953> 0 21G<163.381 199.953> 780 20G<163.523 199.811> 780 20G<163.523 199.811>
VStem: 115 133.333<17.5049 781.502>
LayerCount: 2
Back
Fore
SplineSet
181.666992188 800 m 0xa8
 217.954101562 800 248.333007812 769.905273438 248.333007812 733.333007812 c 2
 248.333007812 66.6669921875 l 2
 248.333007812 30.37890625 218.239257812 0 181.666992188 0 c 0
 145.094726562 0 115 30.37890625 115 66.6669921875 c 2
 115 733.333007812 l 2
 115 769.905273438 145.37890625 800 181.666992188 800 c 0xa8
EndSplineSet
Validated: 1
EndChar

StartChar: J
Encoding: 74 74 9
Width: 519
VWidth: 66
Flags: W
HStem: 0 133.333<179.356 279.255> 780 20G<345.881 382.453> 780 20G<345.881 382.453>
VStem: 297.5 133.333<151.982 782.495>
LayerCount: 2
Back
Fore
SplineSet
79.1298828125 208.942382812 m 0xd0
 87.3876953125 212.419921875 96.0263671875 214.065429688 104.56640625 214.065429688 c 0
 130.614257812 214.065429688 155.754882812 198.75390625 166.442382812 173.370117188 c 0
 169.586914062 165.901367188 172.895507812 160.87890625 180.494140625 153.786132812 c 0
 193.958007812 140.322265625 210.387695312 133.333007812 229.166992188 133.333007812 c 0
 267.512695312 133.333007812 297.5 163.321289062 297.5 201.666992188 c 2
 297.5 733.333007812 l 2
 297.5 769.62109375 327.594726562 800 364.166992188 800 c 0
 400.739257812 800 430.833007812 769.62109375 430.833007812 733.333007812 c 2
 430.833007812 201.666992188 l 2
 430.833007812 90.0126953125 340.821289062 0 229.166992188 0 c 0
 174.685546875 0 124.315429688 21.84765625 87.8388671875 57.884765625 c 0
 70.5068359375 74.279296875 53.78125 97.34765625 43.5576171875 121.629882812 c 0
 40.068359375 129.916015625 38.423828125 138.552734375 38.423828125 147.077148438 c 0
 38.423828125 173.23046875 53.9072265625 198.322265625 79.1298828125 208.942382812 c 0xd0
EndSplineSet
Validated: 1
EndChar

StartChar: K
Encoding: 75 75 10
Width: 676
VWidth: 66
Flags: W
HStem: 0 21.2061G<153.381 189.953 546.49 563.62> 0 21.2061G<153.381 189.953 546.49 563.62> 780 20G<153.523 189.811 546.473 563.604> 780 20G<153.523 189.811 546.473 563.604>
VStem: 105 133.333<17.5049 286.383 513.617 781.502>
LayerCount: 2
Back
Fore
SplineSet
602.374023438 780.23828125 m 0xa8
 615.080078125 767.405273438 621.459960938 750.3671875 621.459960938 733.317382812 c 0
 621.459960938 716.107421875 614.959960938 698.884765625 601.905273438 685.958984375 c 2
 313.086914062 400 l 1
 601.905273438 114.041015625 l 2
 614.909179688 101.166015625 621.4609375 83.91015625 621.4609375 66.6328125 c 0
 621.4609375 49.6494140625 615.129882812 32.64453125 602.374023438 19.76171875 c 0
 589.448242188 6.7060546875 572.224609375 0.2060546875 555.014648438 0.2060546875 c 0
 537.96484375 0.2060546875 520.927734375 6.5859375 508.094726562 19.2919921875 c 2
 238.333007812 286.3828125 l 1
 238.333007812 66.6669921875 l 2
 238.333007812 30.37890625 208.239257812 0 171.666992188 0 c 0
 135.094726562 0 105 30.37890625 105 66.6669921875 c 2
 105 733.333007812 l 2
 105 769.905273438 135.37890625 800 171.666992188 800 c 0
 207.954101562 800 238.333007812 769.905273438 238.333007812 733.333007812 c 2
 238.333007812 513.6171875 l 1
 508.094726562 780.708007812 l 2
 520.977539062 793.463867188 537.981445312 799.793945312 554.96484375 799.793945312 c 0
 572.2421875 799.793945312 589.499023438 793.2421875 602.374023438 780.23828125 c 0xa8
EndSplineSet
Validated: 1
EndChar

StartChar: L
Encoding: 76 76 11
Width: 676
VWidth: 66
Flags: W
HStem: 0 133.333<238.333 620.828> 780 20G<153.523 189.811> 780 20G<153.523 189.811>
VStem: 105 133.333<133.333 781.502>
LayerCount: 2
Back
Fore
SplineSet
171.666992188 800 m 0xd0
 207.954101562 800 238.333007812 769.905273438 238.333007812 733.333007812 c 2
 238.333007812 133.333007812 l 1
 571.666992188 133.333007812 l 2
 607.954101562 133.333007812 638.333007812 103.239257812 638.333007812 66.6669921875 c 0
 638.333007812 30.0947265625 607.954101562 0 571.666992188 0 c 2
 171.666992188 0 l 2
 143.053710938 0 105 26.3134765625 105 66.6669921875 c 2
 105 733.333007812 l 2
 105 769.905273438 135.37890625 800 171.666992188 800 c 0xd0
EndSplineSet
Validated: 1
EndChar

StartChar: M
Encoding: 77 77 12
Width: 1011
VWidth: 66
Flags: W
HStem: 0 21G<153.381 189.953 821.714 858.286> 0 21G<153.381 189.953 821.714 858.286> 780 20G<153.267 184.877 833.78 842.623> 780 20G<153.267 184.877 833.78 842.623>
VStem: 105 133.333<17.5049 452.186 762.304 782.51> 773.333 133.334<17.5049 450.928>
LayerCount: 2
Back
Fore
SplineSet
105 733.333007812 m 2xac
 105 770.133789062 134.866210938 800 171.666992188 800 c 0
 198.086914062 800 220.932617188 784.606445312 231.71875 762.303710938 c 2
 506.517578125 215.440429688 l 1
 780.37109375 763.147460938 l 2
 786.220703125 774.845703125 795.174804688 784.065429688 805.749023438 790.340820312 c 0
 815.814453125 796.462890625 827.559570312 800 840 800 c 0
 845.24609375 800 850.369140625 799.37109375 855.294921875 798.184570312 c 0
 860.240234375 797.04296875 865.11328125 795.3125 869.814453125 792.961914062 c 0
 880.930664062 787.404296875 889.84765625 778.998046875 896.111328125 769.034179688 c 0
 902.774414062 758.685546875 906.666992188 746.424804688 906.666992188 733.333007812 c 2
 906.666992188 66.6669921875 l 2
 906.666992188 30.37890625 876.572265625 0 840 0 c 0
 803.427734375 0 773.333007812 30.37890625 773.333007812 66.6669921875 c 2
 773.333007812 450.927734375 l 1
 566.294921875 36.8525390625 l 2
 563.149414062 30.560546875 559.090820312 24.9736328125 554.354492188 20.173828125 c 0
 549.334960938 14.9638671875 543.385742188 10.5078125 536.599609375 7.09765625 c 0
 527.047851562 2.2978515625 516.82421875 0.0654296875 506.731445312 0.1201171875 c 0
 496.639648438 0.0458984375 486.413085938 2.2578125 476.852539062 7.0380859375 c 0
 470.065429688 10.431640625 464.112304688 14.8701171875 459.084960938 20.064453125 c 0
 454.333007812 24.8583984375 450.258789062 30.4423828125 447.09765625 36.7333984375 c 2
 238.333007812 452.185546875 l 1
 238.333007812 66.6669921875 l 2
 238.333007812 30.37890625 208.239257812 0 171.666992188 0 c 0
 135.094726562 0 105 30.37890625 105 66.6669921875 c 2
 105 733.333007812 l 2xac
EndSplineSet
Validated: 1
EndChar

StartChar: N
Encoding: 78 78 13
Width: 809
VWidth: 66
Flags: W
HStem: 0 21G<153.523 189.811 632.659 641.808> 0 21G<153.523 189.811 632.659 641.808> 780 20G<168.06 177.19 620.189 656.477> 780 20G<168.06 177.19 620.189 656.477>
VStem: 105 133.333<18.4985 521.842> 571.667 133.333<278.158 781.502>
LayerCount: 2
Back
Fore
SplineSet
638.333007812 800 m 0xac
 674.62109375 800 705 769.905273438 705 733.333007812 c 2
 705 66.6669921875 l 2
 705 55.9560546875 702.377929688 45.759765625 697.741210938 36.70703125 c 0
 692.979492188 27.1171875 685.868164062 18.5634765625 676.564453125 12.05078125 c 0
 670.846679688 8.0478515625 664.686523438 5.0869140625 658.318359375 3.123046875 c 0
 651.998046875 1.0966796875 645.282226562 0 638.333007812 0 c 0
 626.985351562 0 616.260742188 2.9248046875 606.865234375 8.0439453125 c 0
 597.8671875 12.80078125 589.865234375 19.654296875 583.717773438 28.435546875 c 2
 238.333007812 521.841796875 l 1
 238.333007812 66.6669921875 l 2
 238.333007812 30.0947265625 207.954101562 0 171.666992188 0 c 0
 135.37890625 0 105 30.0947265625 105 66.6669921875 c 2
 105 733.333007812 l 2
 105 744.34375 107.770507812 754.810546875 112.65234375 764.048828125 c 0
 117.421875 773.353515625 124.41015625 781.630859375 133.435546875 787.94921875 c 0
 138.923828125 791.791015625 144.8359375 794.676757812 150.958984375 796.640625 c 0
 157.489257812 798.817382812 164.452148438 800 171.666992188 800 c 0
 182.713867188 800 193.168945312 797.228515625 202.3828125 792.359375 c 0
 211.666015625 787.602539062 219.94140625 780.622070312 226.282226562 771.564453125 c 2
 571.666992188 278.158203125 l 1
 571.666992188 733.333007812 l 2
 571.666992188 769.905273438 602.045898438 800 638.333007812 800 c 0xac
EndSplineSet
Validated: 1
EndChar

StartChar: O
Encoding: 79 79 14
Width: 943
VWidth: 66
Flags: W
HStem: 0 133.333<369.756 573.577> 666.667 133.333<369.756 573.577>
VStem: 71.667 133.333<298.09 501.91> 738.333 133.334<298.09 501.91>
LayerCount: 2
Back
Fore
SplineSet
471.666992188 133.333007812 m 0
 619.034179688 133.333007812 738.333007812 252.6328125 738.333007812 400 c 0
 738.333007812 547.3671875 619.034179688 666.666992188 471.666992188 666.666992188 c 0
 324.298828125 666.666992188 205 547.3671875 205 400 c 0
 205 252.6328125 324.298828125 133.333007812 471.666992188 133.333007812 c 0
471.666992188 0 m 0
 250.701171875 0 71.6669921875 179.034179688 71.6669921875 400 c 0
 71.6669921875 620.965820312 250.701171875 800 471.666992188 800 c 0
 692.6328125 800 871.666992188 620.965820312 871.666992188 400 c 0
 871.666992188 179.034179688 692.6328125 0 471.666992188 0 c 0
EndSplineSet
Validated: 1
EndChar

StartChar: P
Encoding: 80 80 15
Width: 691
VWidth: 66
Flags: W
HStem: 0 21G<153.381 189.953> 0 21G<153.381 189.953> 266.667 133.333<238.333 441.904> 666.667 133.333<238.333 438.491>
VStem: 105 133.333<17.5049 266.667 400 666.667> 503.339 133.334<460.571 605.466>
LayerCount: 2
Back
Fore
SplineSet
238.333007812 266.666992188 m 1xbc
 238.333007812 66.6669921875 l 2
 238.333007812 30.37890625 208.239257812 0 171.666992188 0 c 0
 135.094726562 0 105 30.37890625 105 66.6669921875 c 2
 105 733.333007812 l 2
 105 761.946289062 131.313476562 800 171.666992188 800 c 2
 371.916992188 800 l 2
 519.357421875 798.890625 636.672851562 679.713867188 636.672851562 533.229492188 c 0
 636.672851562 385.161132812 516.940429688 266.666992188 370 266.666992188 c 2
 238.333007812 266.666992188 l 1xbc
238.333007812 400 m 1
 370 400 l 2
 443.72265625 400 503.338867188 459.127929688 503.338867188 533.21875 c 0
 503.338867188 607.168945312 444.598632812 665.84375 371.418945312 666.666992188 c 2
 238.333007812 666.666992188 l 1
 238.333007812 400 l 1
EndSplineSet
Validated: 1
EndChar

StartChar: Q
Encoding: 81 81 16
Width: 946
VWidth: 66
Flags: W
HStem: 0 133.333<371.224 578.246> 0.206055 21G<798.109 815.24> 666.667 133.333<371.224 575.442>
VStem: 71.667 133.333<298.109 501.891> 741.667 133.333<296.463 501.891>
LayerCount: 2
Back
Fore
SplineSet
473.333007812 0 m 0xb8
 252.684570312 0 71.6669921875 178.587890625 71.6669921875 400 c 0
 71.6669921875 621.412109375 252.684570312 800 473.333007812 800 c 0
 693.982421875 800 875 621.412109375 875 400 c 0
 875 313.208007812 847.184570312 232.99609375 800.071289062 167.541992188 c 1
 853.806640625 113.806640625 l 2
 866.662109375 100.952148438 873.126953125 83.8056640625 873.126953125 66.6416015625 c 0
 873.126953125 49.544921875 866.711914062 32.431640625 853.806640625 19.5263671875 c 0
 840.901367188 6.62109375 823.788085938 0.2060546875 806.69140625 0.2060546875 c 0x78
 789.52734375 0.2060546875 772.380859375 6.671875 759.526367188 19.5263671875 c 2
 705.370117188 73.6826171875 l 1
 639.6953125 27.259765625 559.5390625 0 473.333007812 0 c 0xb8
564.526367188 308.806640625 m 0
 577.380859375 321.662109375 594.52734375 328.126953125 611.69140625 328.126953125 c 0
 628.788085938 328.126953125 645.901367188 321.711914062 658.806640625 308.806640625 c 2
 703.845703125 263.767578125 l 1
 727.850585938 303.674804688 741.666992188 350.28125 741.666992188 400 c 0
 741.666992188 546.920898438 621.017578125 666.666992188 473.333007812 666.666992188 c 0
 325.6484375 666.666992188 205 546.920898438 205 400 c 0
 205 253.079101562 325.6484375 133.333007812 473.333007812 133.333007812 c 0xb8
 522.7421875 133.333007812 569.125 146.736328125 608.9765625 170.076171875 c 1
 564.526367188 214.526367188 l 2
 551.62109375 227.431640625 545.206054688 244.544921875 545.206054688 261.641601562 c 0
 545.206054688 278.805664062 551.671875 295.952148438 564.526367188 308.806640625 c 0
EndSplineSet
Validated: 1
EndChar

StartChar: R
Encoding: 82 82 17
Width: 643
VWidth: 66
Flags: W
HStem: 0 21G<153.516 189.803 476.515 493.749> 0 21G<153.516 189.803 476.515 493.749> 666.667 133.333<238.326 398.431>
VStem: 104.993 133.333<18.4985 333.333 466.667 666.667> 438.334 133.332<506.141 626.563>
LayerCount: 2
Back
Fore
SplineSet
238.326171875 333.333007812 m 1xb8
 238.326171875 66.6669921875 l 2
 238.326171875 30.0947265625 207.947265625 0 171.659179688 0 c 0
 135.372070312 0 104.993164062 30.0947265625 104.993164062 66.6669921875 c 2
 104.993164062 733.333007812 l 2
 104.993164062 773.686523438 143.045898438 800 171.659179688 800 c 2
 339.993164062 800 l 2
 469.557617188 800 571.666015625 694.227539062 571.666015625 566.571289062 c 0
 571.666015625 466.106445312 509.00390625 381.75 421.327148438 348.475585938 c 1
 547.89453125 96.599609375 l 2
 552.637695312 87.1611328125 554.873046875 77.0673828125 554.873046875 67.0927734375 c 0
 554.873046875 42.5302734375 541.318359375 18.6845703125 518.259765625 7.09765625 c 0
 508.8515625 2.3701171875 498.75 0.1298828125 488.748046875 0.1298828125 c 0
 464.28125 0.1298828125 440.413085938 13.537109375 428.756835938 36.7333984375 c 2
 279.715820312 333.333007812 l 1
 238.326171875 333.333007812 l 1xb8
238.326171875 466.666992188 m 1
 338.326171875 466.666992188 l 2
 393.778320312 466.666992188 438.333984375 510.810546875 438.333984375 566.576171875 c 0
 438.333984375 622.489257812 394.376953125 666.666992188 339.993164062 666.666992188 c 2
 238.326171875 666.666992188 l 1
 238.326171875 466.666992188 l 1
EndSplineSet
Validated: 1
EndChar

StartChar: S
Encoding: 83 83 18
Width: 593
VWidth: 66
Flags: W
HStem: 0 133.333<229.239 349.821> 666.667 133.333<240.685 338.344>
VStem: 71.7559 128.116<161.311 216.483> 86.667 133.333<551.757 648.132> 388.333 133.334<172.457 291.372>
LayerCount: 2
Back
Fore
SplineSet
112.692382812 229.038085938 m 0xe8
 120.883789062 232.451171875 129.440429688 234.067382812 137.900390625 234.067382812 c 0
 164.036132812 234.067382812 189.245117188 218.64453125 199.872070312 193.140625 c 0xe8
 205.00390625 180.823242188 211.62890625 170.985351562 220.473632812 162.140625 c 0
 238.27734375 144.336914062 262.965820312 133.333007812 290.833007812 133.333007812 c 0
 344.452148438 133.333007812 388.333007812 177.274414062 388.333007812 231.666992188 c 0
 388.333007812 260.822265625 378.061523438 285.482421875 356.607421875 301.094726562 c 2
 169.905273438 436.954101562 l 2
 120.084960938 473.309570312 86.6669921875 535.388671875 86.6669921875 598.333007812 c 0
 86.6669921875 709.081054688 176.314453125 800 288.333007812 800 c 0
 343.115234375 800 394.489257812 776.864257812 429.661132812 742.115234375 c 0
 448.631835938 724.170898438 463.612304688 702.798828125 473.909179688 678.64453125 c 0
 477.463867188 670.306640625 479.146484375 661.571289062 479.146484375 652.93359375 c 0
 479.146484375 626.991210938 463.966796875 601.93359375 438.727539062 591.173828125 c 0
 430.361328125 587.607421875 421.627929688 585.92578125 413.006835938 585.92578125 c 0
 386.9609375 585.92578125 361.94921875 601.275390625 351.256835938 626.35546875 c 0
 347.970703125 634.064453125 344.627929688 639.098632812 337.005859375 646.213867188 c 0
 323.545898438 659.672851562 307.108398438 666.666992188 288.333007812 666.666992188 c 0
 250.352539062 666.666992188 220 635.918945312 220 598.333007812 c 0xd8
 220 586.278320312 236.58203125 553.357421875 248.428710938 544.711914062 c 2
 435.059570312 408.905273438 l 2
 498.21875 362.9453125 521.666992188 292.510742188 521.666992188 231.666992188 c 0
 521.666992188 104.391601562 418.881835938 0 290.833007812 0 c 0
 227.034179688 0 168.389648438 25.6630859375 126.193359375 67.859375 c 0
 105.038085938 89.0146484375 88.3291015625 114.176757812 76.794921875 141.859375 c 0
 73.3701171875 150.078125 71.755859375 158.634765625 71.755859375 167.079101562 c 0
 71.755859375 193.321289062 87.3505859375 218.479492188 112.692382812 229.038085938 c 0xe8
EndSplineSet
Validated: 1
EndChar

StartChar: T
Encoding: 84 84 19
Width: 676
VWidth: 66
Flags: W
HStem: 0 21G<320.189 356.477> 0 21G<320.189 356.477> 666.667 133.333<23.4985 271.667 405 654.162>
VStem: 271.667 133.333<18.4985 666.667>
LayerCount: 2
Back
Fore
SplineSet
5 733.333007812 m 0xb0
 5 769.62109375 35.0947265625 800 71.6669921875 800 c 2
 338.333007812 800 l 1
 605 800 l 2
 641.288085938 800 671.666992188 769.905273438 671.666992188 733.333007812 c 0
 671.666992188 696.760742188 641.288085938 666.666992188 605 666.666992188 c 2
 405 666.666992188 l 1
 405 66.6669921875 l 2
 405 30.0947265625 374.62109375 0 338.333007812 0 c 0
 302.045898438 0 271.666992188 30.0947265625 271.666992188 66.6669921875 c 2
 271.666992188 666.666992188 l 1
 71.6669921875 666.666992188 l 2
 35.0947265625 666.666992188 5 697.045898438 5 733.333007812 c 0xb0
EndSplineSet
Validated: 1
EndChar

StartChar: U
Encoding: 85 85 20
Width: 843
VWidth: 66
Flags: W
HStem: 0 133.333<330.424 512.91> 780 20G<136.714 173.286 670.189 706.477> 780 20G<136.714 173.286 670.189 706.477>
VStem: 88.333 133.334<242.198 782.495> 621.667 133.333<242.162 781.502>
LayerCount: 2
Back
Fore
SplineSet
688.333007812 800 m 0xd8
 724.62109375 800 755 769.905273438 755 733.333007812 c 2
 755 333.333007812 l 2
 755 149.063476562 605.936523438 0 421.666992188 0 c 0
 237.377929688 0 88.3330078125 149.153320312 88.3330078125 333.333007812 c 2
 88.3330078125 733.333007812 l 2
 88.3330078125 769.62109375 118.427734375 800 155 800 c 0
 191.572265625 800 221.666992188 769.62109375 221.666992188 733.333007812 c 2
 221.666992188 333.333007812 l 2
 221.666992188 222.684570312 310.955078125 133.333007812 421.666992188 133.333007812 c 0
 532.397460938 133.333007812 621.666992188 222.602539062 621.666992188 333.333007812 c 2
 621.666992188 733.333007812 l 2
 621.666992188 769.905273438 652.045898438 800 688.333007812 800 c 0xd8
EndSplineSet
Validated: 1
EndChar

StartChar: V
Encoding: 86 86 21
Width: 709
VWidth: 66
Flags: W
HStem: 779.916 20G<100.736 118.075 591.851 609.24> 779.916 20G<100.736 118.075 591.851 609.24>
LayerCount: 2
Back
Fore
SplineSet
81.591796875 795.754882812 m 0x80
 89.1201171875 798.578125 96.89453125 799.916015625 104.578125 799.916015625 c 0
 131.571289062 799.916015625 157.42578125 783.3984375 167.421875 756.741210938 c 2
 355 256.533203125 l 1
 542.578125 756.741210938 l 2
 552.508789062 783.223632812 578.296875 799.92578125 605.404296875 799.92578125 c 0
 613.076171875 799.92578125 620.854492188 798.587890625 628.408203125 795.754882812 c 0
 655.065429688 785.758789062 671.583007812 759.904296875 671.583007812 732.91015625 c 0
 671.583007812 725.227539062 670.245117188 717.452148438 667.421875 709.924804688 c 2
 417.421875 43.2587890625 l 2
 402.341796875 3.0458984375 383.444335938 -10.3583984375 364.948242188 -10.3583984375 c 0
 327.958007812 -10.3583984375 292.578125 43.2587890625 292.578125 43.2587890625 c 1
 42.578125 709.924804688 l 2
 39.7451171875 717.478515625 38.4072265625 725.256835938 38.4072265625 732.928710938 c 0
 38.4072265625 760.036132812 55.109375 785.82421875 81.591796875 795.754882812 c 0x80
EndSplineSet
Validated: 1
EndChar

StartChar: W
Encoding: 87 87 22
Width: 1021
VWidth: 66
Flags: W
HStem: 779.942 20G<101.462 118.886 902.701 920.187> 779.942 20G<101.462 118.886 902.701 920.187>
VStem: 38.3828 130.406<729.664 782.073> 852.9 130.375<729.832 782.022>
LayerCount: 2
Back
Fore
SplineSet
85.6240234375 797.122070312 m 0xb0
 91.9140625 799.032226562 98.3056640625 799.942382812 104.618164062 799.942382812 c 0
 133.153320312 799.942382812 160.084960938 781.364257812 168.7890625 752.708984375 c 2
 307.630859375 295.616210938 l 1
 447.06640625 752.782226562 l 2
 450.34765625 763.5390625 456.227539062 772.909179688 463.821289062 780.40234375 c 0
 471.322265625 787.986328125 480.698242188 793.854492188 491.45703125 797.122070312 c 0
 497.641601562 799.000976562 503.924804688 799.911132812 510.134765625 799.94140625 c 0
 516.809570312 800.047851562 523.594726562 799.139648438 530.282226562 797.099609375 c 0
 541.072265625 793.80859375 550.4296875 787.932617188 557.901367188 780.361328125 c 0
 565.470703125 772.87890625 571.341796875 763.509765625 574.622070312 752.708984375 c 2
 713.463867188 295.616210938 l 1
 852.900390625 752.782226562 l 2
 861.568359375 781.204101562 888.3828125 799.94921875 917.01953125 799.94921875 c 0
 923.354492188 799.94921875 929.778320312 799.032226562 936.115234375 797.099609375 c 0
 964.734375 788.37109375 983.275390625 761.458007812 983.275390625 732.950195312 c 0
 983.275390625 726.61328125 982.358398438 720.197265625 980.43359375 713.884765625 c 2
 777.099609375 47.2177734375 l 2
 773.80859375 36.427734375 767.932617188 27.0703125 760.361328125 19.5986328125 c 0
 752.87890625 12.029296875 743.509765625 6.158203125 732.708984375 2.8779296875 c 0
 726.0078125 0.841796875 719.209960938 -0.05859375 712.5234375 0.0595703125 c 0
 706.325195312 0.1005859375 700.055664062 1.0185546875 693.884765625 2.900390625 c 0
 683.127929688 6.1806640625 673.7578125 12.060546875 666.264648438 19.654296875 c 0
 658.680664062 27.1552734375 652.8125 36.5322265625 649.544921875 47.291015625 c 2
 510.702148438 504.385742188 l 1
 371.266601562 47.2177734375 l 2
 367.973632812 36.419921875 362.091796875 27.056640625 354.51171875 19.58203125 c 0
 347.032226562 12.0205078125 337.668945312 6.15625 326.875976562 2.8779296875 c 0
 320.174804688 0.841796875 313.376953125 -0.05859375 306.69140625 0.0595703125 c 0
 300.4921875 0.1005859375 294.221679688 1.0185546875 288.05078125 2.900390625 c 0
 277.293945312 6.1806640625 267.923828125 12.060546875 260.430664062 19.6552734375 c 0
 252.846679688 27.15625 246.978515625 36.5322265625 243.7109375 47.291015625 c 2
 41.2109375 713.95703125 l 2
 39.29296875 720.270507812 38.3828125 726.669921875 38.3828125 732.98046875 c 0
 38.3828125 761.645507812 57.1669921875 788.478515625 85.6240234375 797.122070312 c 0xb0
EndSplineSet
Validated: 1
EndChar

StartChar: X
Encoding: 88 88 23
Width: 749
VWidth: 66
Flags: W
HStem: 0.174805 20.9912G<148.381 165.546 584.441 601.626> 0.174805 20.9912G<148.381 165.546 584.441 601.626> 779.825 20G<148.381 165.546 584.441 601.626> 779.825 20G<148.381 165.546 584.441 601.626>
LayerCount: 2
Back
Fore
SplineSet
118.27734375 11.0263671875 m 0xa0
 99.056640625 23.7119140625 88.4990234375 45.2021484375 88.4990234375 67.0146484375 c 0
 88.4990234375 79.572265625 91.9990234375 92.2373046875 99.359375 103.389648438 c 2
 295.122070312 400 l 1
 99.359375 696.610351562 l 2
 91.9990234375 707.762695312 88.4990234375 720.427734375 88.4990234375 732.985351562 c 0
 88.4990234375 754.797851562 99.056640625 776.288085938 118.27734375 788.973632812 c 0
 129.39453125 796.310546875 142.080078125 799.825195312 154.681640625 799.825195312 c 0
 176.411132812 799.825195312 197.889648438 789.375976562 210.640625 770.055664062 c 2
 375 521.026367188 l 1
 539.359375 770.055664062 l 2
 552.044921875 789.276367188 573.53515625 799.833984375 595.34765625 799.833984375 c 0
 607.905273438 799.833984375 620.5703125 796.333984375 631.72265625 788.973632812 c 0
 651.041992188 776.22265625 661.4921875 754.744140625 661.4921875 733.014648438 c 0
 661.4921875 720.413085938 657.977539062 707.727539062 650.640625 696.610351562 c 2
 454.877929688 400 l 1
 650.640625 103.389648438 l 2
 657.977539062 92.2724609375 661.4921875 79.5869140625 661.4921875 66.9853515625 c 0
 661.4921875 45.255859375 651.041992188 23.77734375 631.72265625 11.0263671875 c 0
 620.5703125 3.666015625 607.905273438 0.166015625 595.34765625 0.166015625 c 0
 573.53515625 0.166015625 552.044921875 10.7236328125 539.359375 29.9443359375 c 2
 375 278.973632812 l 1
 210.640625 29.9443359375 l 2
 197.889648438 10.6240234375 176.411132812 0.1748046875 154.681640625 0.1748046875 c 0
 142.080078125 0.1748046875 129.39453125 3.689453125 118.27734375 11.0263671875 c 0xa0
EndSplineSet
Validated: 1
EndChar

StartChar: Y
Encoding: 89 89 24
Width: 692
VWidth: 66
Flags: W
HStem: 0 21G<327.689 363.977> 0 21G<327.689 363.977> 779.813 20G<97.9673 115.118 577.396 594.56> 779.813 20G<97.9673 115.118 577.396 594.56>
VStem: 279.167 133.333<18.4985 378.376>
LayerCount: 2
Back
Fore
SplineSet
65.95703125 787.37109375 m 0xa8
 77.57421875 795.764648438 91.193359375 799.813476562 104.741210938 799.813476562 c 0
 125.495117188 799.813476562 146.079101562 790.3125 159.038085938 772.375976562 c 2
 345.926757812 513.70703125 l 1
 533.526367188 772.46484375 l 2
 546.428710938 790.260742188 566.998046875 799.8203125 587.79296875 799.8203125 c 0
 601.327148438 799.8203125 614.95703125 795.770507812 626.630859375 787.307617188 c 0
 644.513671875 774.342773438 653.979492188 753.79296875 653.979492188 733.077148438 c 0
 653.979492188 719.493164062 649.909179688 705.836914062 641.473632812 694.202148438 c 2
 412.5 378.375976562 l 1
 412.5 66.6669921875 l 2
 412.5 30.0947265625 382.12109375 0 345.833007812 0 c 0
 309.545898438 0 279.166992188 30.0947265625 279.166992188 66.6669921875 c 2
 279.166992188 378.435546875 l 1
 50.9619140625 694.291015625 l 2
 42.541015625 705.946289062 38.5126953125 719.540039062 38.5126953125 733.038085938 c 0
 38.5126953125 753.87109375 48.1083984375 774.475585938 65.95703125 787.37109375 c 0xa8
EndSplineSet
Validated: 1
EndChar

StartChar: Z
Encoding: 90 90 25
Width: 709
VWidth: 66
Flags: W
HStem: 0 133.333<272.746 604.162> 666.667 133.333<106.831 437.255>
LayerCount: 2
Back
Fore
SplineSet
88.3330078125 733.333007812 m 0
 88.3330078125 769.62109375 118.427734375 800 155 800 c 2
 555 800 l 2
 561.131835938 800 567.095703125 799.140625 572.772460938 797.536132812 c 0
 578.47265625 795.991210938 584.03515625 793.658203125 589.299804688 790.5 c 0
 599.19140625 784.565429688 607.005859375 776.330078125 612.4609375 766.848632812 c 0
 618.296875 756.977539062 621.666992188 745.514648438 621.666992188 733.333007812 c 0
 621.666992188 727.169921875 620.8046875 721.19140625 619.196289062 715.508789062 c 0
 617.651367188 709.836914062 615.322265625 704.29296875 612.166015625 699.033203125 c 2
 272.74609375 133.333007812 l 1
 555 133.333007812 l 2
 591.288085938 133.333007812 621.666992188 103.239257812 621.666992188 66.6669921875 c 0
 621.666992188 30.0947265625 591.288085938 0 555 0 c 2
 155 0 l 2
 94.87890625 0 79.19921875 23.1103515625 79.19921875 47.2177734375 c 0
 79.19921875 73.5 97.833984375 100.966796875 97.833984375 100.966796875 c 1
 437.254882812 666.666992188 l 1
 155 666.666992188 l 2
 118.427734375 666.666992188 88.3330078125 697.045898438 88.3330078125 733.333007812 c 0
EndSplineSet
Validated: 1
EndChar

StartChar: one
Encoding: 49 49 26
Width: 618
VWidth: 66
Flags: W
HStem: 0 21G<341.023 377.311> 0 21G<341.023 377.311> 518.333 133.334<160.088 264.892> 780 20G<350.099 368.35> 780 20G<350.099 368.35>
VStem: 292.5 133.333<18.4985 534.923 678.684 779.543>
LayerCount: 2
Back
Fore
SplineSet
359.166992188 0 m 0xb4
 322.87890625 0 292.5 30.0947265625 292.5 66.6669921875 c 2
 292.5 534.922851562 l 1
 266.888671875 524.240234375 238.7734375 518.333007812 209.25 518.333007812 c 0
 172.961914062 518.333007812 142.583007812 548.427734375 142.583007812 585 c 0
 142.583007812 621.572265625 172.961914062 651.666992188 209.25 651.666992188 c 0
 254.875 651.666992188 291.948242188 688.696289062 292.501953125 733.841796875 c 0
 292.505859375 734.39453125 292.517578125 734.946289062 292.536132812 735.49609375 c 0
 293.109375 753.049804688 300.662109375 768.94921875 312.416992188 780.571289062 c 0
 324.486328125 792.529296875 341.030273438 800 359.166992188 800 c 0
 377.533203125 800 394.264648438 792.338867188 406.372070312 780.115234375 c 0
 418.413085938 767.971679688 425.904296875 751.299804688 425.833007812 733.068359375 c 2
 425.833007812 66.6669921875 l 2
 425.833007812 30.0947265625 395.454101562 0 359.166992188 0 c 0xb4
EndSplineSet
Validated: 33
EndChar

StartChar: two
Encoding: 50 50 27
Width: 618
VWidth: 66
Flags: W
HStem: 0 133.333<261.578 517.495> 666.667 133.333<261.802 360.05>
VStem: 379.167 133.333<549.342 645.967>
LayerCount: 2
Back
Fore
SplineSet
160.795898438 591.057617188 m 0
 135.573242188 601.677734375 120.090820312 626.76953125 120.090820312 652.922851562 c 0
 120.090820312 661.447265625 121.735351562 670.083984375 125.224609375 678.370117188 c 0
 135.447265625 702.650390625 152.176757812 725.723632812 169.502929688 742.112304688 c 0
 205.505859375 777.698242188 255.314453125 800 310 800 c 0
 420.357421875 800 512.5 710.901367188 512.5 598.333007812 c 0
 512.5 564.483398438 501.977539062 534.59765625 488.272460938 508.329101562 c 0
 487.653320312 507.142578125 486.721679688 505.509765625 486.208007812 504.66015625 c 2
 261.578125 133.333007812 l 1
 468.333007812 133.333007812 l 2
 504.62109375 133.333007812 535 103.239257812 535 66.6669921875 c 0
 535 30.0947265625 504.62109375 0 468.333007812 0 c 2
 143.333007812 0 l 2
 83.2109375 0 67.5078125 23.080078125 67.5078125 47.1923828125 c 0
 67.5078125 73.564453125 86.2919921875 101.172851562 86.2919921875 101.172851562 c 1
 370.903320312 571.65234375 l 2
 376.499023438 582.9296875 379.166992188 595.733398438 379.166992188 598.333007812 c 0
 379.166992188 635.764648438 347.9765625 666.666992188 310 666.666992188 c 0
 291.436523438 666.666992188 276.090820312 660.143554688 262.161132812 646.213867188 c 0
 254.561523438 639.12109375 251.25390625 634.098632812 248.109375 626.629882812 c 0
 237.421875 601.24609375 212.28125 585.934570312 186.233398438 585.934570312 c 0
 177.692382812 585.934570312 169.0546875 587.580078125 160.795898438 591.057617188 c 0
EndSplineSet
Validated: 1
EndChar

StartChar: three
Encoding: 51 51 28
Width: 618
VWidth: 66
Flags: W
HStem: 0 133.333<241.002 377.02> 365.833 133.334<258.498 360.177> 666.667 133.333<251.861 361.628>
VStem: 59.25 133.333<185.837 297.47> 90 133.33<536.59 638.689> 390 133.333<527.745 638.295> 425.833 133.334<183.857 313.373>
LayerCount: 2
Back
Fore
SplineSet
240 432.5 m 0xf2
 240 468.788085938 270.094726562 499.166992188 306.666992188 499.166992188 c 2
 306.72265625 499.166992188 l 1
 306.75 499.166992188 l 2
 352.497070312 499.166992188 390 537.051757812 390 583.333007812 c 0
 390 628.916015625 352.249023438 666.666992188 306.666992188 666.666992188 c 0
 260.872070312 666.666992188 223.791015625 629.525390625 223.330078125 584.319335938 c 0
 222.958984375 547.973632812 192.6484375 518.333984375 156.655273438 518.333984375 c 0
 156.432617188 518.333984375 156.209960938 518.334960938 155.986328125 518.336914062 c 0
 119.923828125 518.705078125 90 548.737304688 90 585.005859375 c 0
 90 703.6015625 187.958984375 800 306.666992188 800 c 0
 426.083984375 800 523.333007812 702.750976562 523.333007812 583.333007812 c 0xec
 523.333007812 528.560546875 502.936523438 478.032226562 469.104492188 439.490234375 c 1
 523.924804688 393.356445312 559.166992188 324.635742188 559.166992188 248.333007812 c 0
 559.166992188 110.002929688 446.099609375 0 309.166992188 0 c 0
 171.42578125 0 59.25 110.163085938 59.25 248.177734375 c 0
 59.25 284.59375 89.2626953125 315 125.916992188 315 c 0
 162.508789062 314.985351562 192.583007812 284.619140625 192.583007812 248.333007812 c 0
 192.556640625 184.741210938 243.591796875 133.333007812 309.166992188 133.333007812 c 0
 373.900390625 133.333007812 425.833007812 184.997070312 425.833007812 248.333007812 c 0
 425.833007812 310.553710938 370.799804688 365.833007812 306.666992188 365.833007812 c 0
 270.094726562 365.833007812 240 396.211914062 240 432.5 c 0xf2
EndSplineSet
Validated: 33
EndChar

StartChar: four
Encoding: 52 52 29
Width: 618
VWidth: 66
Flags: W
HStem: 0 21G<375.189 411.477> 0 21G<375.189 411.477> 190 133.333<214.062 326.667 460 566.662> 780 20G<387.518 396.657> 780 20G<387.518 396.657>
VStem: 326.667 133.333<18.4985 190 323.333 502.249>
LayerCount: 2
Back
Fore
SplineSet
326.666992188 323.333007812 m 1x24
 326.666992188 502.249023438 l 1
 214.0625 323.333007812 l 1
 326.666992188 323.333007812 l 1x24
393.333007812 0 m 0xb4
 357.045898438 0 326.666992188 30.0947265625 326.666992188 66.6669921875 c 2
 326.666992188 190 l 1
 93.3330078125 190 l 2
 32.9013671875 190 16.9482421875 212.763671875 16.9482421875 236.801757812 c 0
 16.9482421875 263.692382812 36.9111328125 292.176757812 36.9111328125 292.176757812 c 1
 336.911132812 768.84375 l 2
 343.103515625 778.682617188 351.544921875 786.33203125 361.166015625 791.569335938 c 0
 370.7265625 796.927734375 381.702148438 800 393.333007812 800 c 0
 399.981445312 800 406.416015625 798.99609375 412.495117188 797.134765625 c 0
 418.15234375 795.469726562 423.655273438 793.021484375 428.84375 789.755859375 c 0
 438.663085938 783.576171875 446.33203125 775.115234375 451.5859375 765.451171875 c 0
 456.940429688 755.875 460 744.904296875 460 733.333007812 c 2
 460 323.333007812 l 1
 517.5 323.333007812 l 2
 553.788085938 323.333007812 584.166992188 293.239257812 584.166992188 256.666992188 c 0
 584.166992188 220.094726562 553.788085938 190 517.5 190 c 2
 460 190 l 1
 460 66.6669921875 l 2
 460 30.0947265625 429.62109375 0 393.333007812 0 c 0xb4
EndSplineSet
Validated: 1
EndChar

StartChar: five
Encoding: 53 53 30
Width: 618
VWidth: 66
Flags: W
HStem: 0 133.333<230.813 372.289> 395.833 133.334<244.167 369.749> 666.667 133.333<244.167 493.169>
VStem: 52.5918 127.963<179.253 236.652> 110.833 400.834<684.172 781.502> 110.833 133.334<529.167 666.667> 431.667 133.333<192.711 336.375>
LayerCount: 2
Back
Fore
SplineSet
93.1669921875 248.887695312 m 0xf2
 101.462890625 252.401367188 110.146484375 254.064453125 118.733398438 254.064453125 c 0
 144.73046875 254.064453125 169.833007812 238.815429688 180.5546875 213.5 c 0xf2
 200.54296875 166.303710938 247.03125 133.333007812 300.833007812 133.333007812 c 0
 373.211914062 133.333007812 431.666992188 191.788085938 431.666992188 264.166992188 c 0
 431.666992188 335.918945312 374.5546875 393.6328125 302.502929688 395.833007812 c 2
 177.5 395.833007812 l 2
 141.211914062 395.833007812 110.833007812 425.927734375 110.833007812 462.5 c 2xe6
 110.833007812 733.333007812 l 2
 110.833007812 769.905273438 141.211914062 800 177.5 800 c 2
 445 800 l 2
 481.572265625 800 511.666992188 769.62109375 511.666992188 733.333007812 c 0xe8
 511.666992188 697.045898438 481.572265625 666.666992188 445 666.666992188 c 2
 244.166992188 666.666992188 l 1
 244.166992188 529.166992188 l 1xe4
 304.102539062 529.166992188 l 2
 449.522460938 525.810546875 565 409.118164062 565 264.166992188 c 0
 565 118.211914062 446.788085938 0 300.833007812 0 c 0
 191.301757812 0 97.7900390625 67.029296875 57.779296875 161.5 c 0
 54.25390625 169.82421875 52.591796875 178.506835938 52.591796875 187.077148438 c 0
 52.591796875 213.1796875 68.01171875 238.234375 93.1669921875 248.887695312 c 0xf2
EndSplineSet
Validated: 1
EndChar

StartChar: six
Encoding: 54 54 31
Width: 618
VWidth: 66
Flags: W
HStem: 0 133.333<236.662 380.79> 395.833 133.334<238.198 380.773> 666.667 133.333<237.56 380.534>
VStem: 44.167 133.36<198.002 334.951 494.006 605.768> 426.888 126.329<573.501 624.77> 440.833 133.334<195.882 335.773>
LayerCount: 2
Back
Fore
SplineSet
177.5 494.005859375 m 1xf8
 216.310546875 516.237304688 261.62890625 529.166992188 309.166992188 529.166992188 c 0
 455.231445312 529.166992188 574.166992188 410.231445312 574.166992188 264.166992188 c 0xf4
 574.166992188 117.834960938 454.853515625 0 309.166992188 0 c 0
 163.479492188 0 44.1669921875 117.834960938 44.1669921875 264.166992188 c 2
 44.1669921875 535 l 2
 44.1669921875 681.064453125 163.102539062 800 309.166992188 800 c 0
 413.845703125 800 503.303710938 739.401367188 546.4453125 652.010742188 c 0
 551.047851562 642.688476562 553.216796875 632.749023438 553.216796875 622.926757812 c 0
 553.216796875 598.198242188 539.466796875 574.217773438 516.177734375 562.720703125 c 0
 506.884765625 558.1328125 496.938476562 555.959960938 487.091796875 555.959960938 c 0
 462.458984375 555.959960938 438.454101562 569.560546875 426.887695312 592.989257812 c 0
 405.029296875 637.265625 361.154296875 666.666992188 309.166992188 666.666992188 c 0
 236.897460938 666.666992188 177.5 607.268554688 177.5 535 c 2
 177.5 494.005859375 l 1xf8
177.52734375 261.435546875 m 0
 179.145507812 190.791015625 237.545898438 133.333007812 309.166992188 133.333007812 c 0
 381.813476562 133.333007812 440.833007812 192.165039062 440.833007812 264.166992188 c 0
 440.833007812 336.435546875 381.435546875 395.833007812 309.166992188 395.833007812 c 0
 236.889648438 395.833007812 177.528320312 336.44140625 177.583007812 264.217773438 c 0
 177.583984375 263.344726562 177.563476562 262.362304688 177.52734375 261.435546875 c 0
EndSplineSet
Validated: 33
EndChar

StartChar: seven
Encoding: 55 55 32
Width: 618
VWidth: 66
Flags: W
HStem: 0.0830078 21G<238.016 255.377> 0.0830078 21G<238.016 255.377> 666.667 133.333<60.9985 410.698>
LayerCount: 2
Back
Fore
SplineSet
42.5 733.333007812 m 0xa0
 42.5 769.62109375 72.5947265625 800 109.166992188 800 c 2
 509.166992188 800 l 2
 513.473632812 800 517.697265625 799.576171875 521.796875 798.767578125 c 0
 525.884765625 797.995117188 529.9453125 796.82421875 533.92578125 795.231445312 c 0
 546.375976562 790.251953125 556.55078125 781.755859375 563.74609375 771.309570312 c 0
 571.33984375 760.50390625 575.833007812 747.397460938 575.833007812 733.333007812 c 0
 575.833007812 729.047851562 575.416015625 724.852539062 574.62109375 720.783203125 c 0
 573.848632812 716.673828125 572.670898438 712.586914062 571.065429688 708.57421875 c 2
 304.3984375 41.9072265625 l 2
 294.080078125 16.111328125 268.668945312 0.0830078125 242.084960938 0.0830078125 c 0
 233.946289062 0.0830078125 225.69921875 1.5849609375 217.740234375 4.7685546875 c 0
 191.77734375 15.1533203125 175.926757812 40.62109375 175.926757812 67.0966796875 c 0
 175.926757812 75.248046875 177.428710938 83.494140625 180.6015625 91.42578125 c 2
 410.698242188 666.666992188 l 1
 109.166992188 666.666992188 l 2
 72.5947265625 666.666992188 42.5 697.045898438 42.5 733.333007812 c 0xa0
EndSplineSet
Validated: 1
EndChar

StartChar: eight
Encoding: 56 56 33
Width: 618
VWidth: 66
Flags: W
HStem: 0 133.333<237.56 380.773> 396.667 133.333<261.073 357.261> 666.667 133.333<261.798 356.536>
VStem: 44.167 133.333<193.394 335.323> 107.5 133.333<549.719 645.702> 377.5 133.333<549.719 645.702> 440.833 133.334<193.394 335.323>
LayerCount: 2
Back
Fore
SplineSet
309.166992188 396.666992188 m 0xf2
 236.8984375 396.666992188 177.5 337.268554688 177.5 265 c 0
 177.5 192.731445312 236.897460938 133.333007812 309.166992188 133.333007812 c 0
 381.435546875 133.333007812 440.833007812 192.731445312 440.833007812 265 c 0
 440.833007812 337.268554688 381.435546875 396.666992188 309.166992188 396.666992188 c 0xf2
574.166992188 265 m 0
 574.166992188 118.935546875 455.231445312 0 309.166992188 0 c 0
 163.102539062 0 44.1669921875 118.935546875 44.1669921875 265 c 0xf2
 44.1669921875 350.954101562 85.353515625 427.513671875 149.017578125 475.969726562 c 1
 122.989257812 509.939453125 107.5 552.377929688 107.5 598.333007812 c 0
 107.5 709.447265625 198.052734375 800 309.166992188 800 c 0
 420.280273438 800 510.833007812 709.447265625 510.833007812 598.333007812 c 0xec
 510.833007812 552.377929688 495.34375 509.939453125 469.31640625 475.969726562 c 1
 532.98046875 427.513671875 574.166992188 350.954101562 574.166992188 265 c 0
377.5 598.333007812 m 0xec
 377.5 635.552734375 346.38671875 666.666992188 309.166992188 666.666992188 c 0
 271.947265625 666.666992188 240.833007812 635.552734375 240.833007812 598.333007812 c 0
 240.833007812 561.11328125 271.947265625 530 309.166992188 530 c 0
 346.38671875 530 377.5 561.11328125 377.5 598.333007812 c 0xec
EndSplineSet
Validated: 1
EndChar

StartChar: nine
Encoding: 57 57 34
Width: 618
VWidth: 66
Flags: W
HStem: 0 133.333<237.505 381.722> 270 133.333<237.56 380.139> 666.667 133.333<237.561 380.773>
VStem: 44.167 133.333<463.394 606.606> 64.2832 126.329<175.305 226.499> 440.833 133.334<197.969 305.159 464.232 605.768>
LayerCount: 2
Back
Fore
SplineSet
440.833007812 305.159179688 m 1xec
 402.021484375 282.928710938 356.705078125 270 309.166992188 270 c 0
 163.102539062 270 44.1669921875 388.935546875 44.1669921875 535 c 0xf4
 44.1669921875 681.064453125 163.1015625 800 309.166992188 800 c 0
 455.231445312 800 574.166992188 681.064453125 574.166992188 535 c 2
 574.166992188 267.462890625 l 2
 574.22265625 266.353515625 574.250976562 265.237304688 574.25 264.116210938 c 0
 574.138671875 117.828125 454.861328125 0 309.166992188 0 c 0
 204.692382812 0 114.375976562 60.2353515625 71.0546875 147.989257812 c 0
 66.4521484375 157.311523438 64.283203125 167.250976562 64.283203125 177.073242188 c 0
 64.283203125 201.801757812 78.033203125 225.782226562 101.322265625 237.279296875 c 0
 110.615234375 241.8671875 120.561523438 244.040039062 130.408203125 244.040039062 c 0
 155.041015625 244.040039062 179.045898438 230.439453125 190.612304688 207.010742188 c 0
 212.291015625 163.09765625 256.973632812 133.333007812 309.166992188 133.333007812 c 0
 380.891601562 133.333007812 439.374023438 190.702148438 440.88671875 261.506835938 c 0
 440.8515625 262.389648438 440.833007812 263.276367188 440.833007812 264.166992188 c 2
 440.833007812 305.159179688 l 1xec
440.833007812 535 m 0
 440.833007812 607.268554688 381.435546875 666.666992188 309.166992188 666.666992188 c 0
 236.8984375 666.666992188 177.5 607.268554688 177.5 535 c 0
 177.5 462.731445312 236.897460938 403.333007812 309.166992188 403.333007812 c 0
 381.435546875 403.333007812 440.833007812 462.731445312 440.833007812 535 c 0
EndSplineSet
Validated: 1
EndChar

StartChar: zero
Encoding: 48 48 35
Width: 618
VWidth: 66
Flags: W
HStem: 0 133.333<243.821 374.513> 666.7 133.333<243.821 374.513>
VStem: 58.499 133.334<187.986 612.049> 426.501 133.333<187.985 612.048>
LayerCount: 2
Back
Fore
SplineSet
58.4990234375 549.3671875 m 2
 58.4990234375 687.915039062 170.623046875 800.033203125 309.166992188 800.033203125 c 0
 447.71484375 800.033203125 559.833984375 687.911132812 559.833984375 549.3671875 c 2
 559.833984375 250.666992188 l 2
 559.833984375 112.118164062 447.711914062 0 309.166992188 0 c 0
 170.620117188 0 58.4990234375 112.12109375 58.4990234375 250.666992188 c 2
 58.4990234375 549.3671875 l 2
191.833007812 549.3671875 m 2
 191.833007812 250.666992188 l 2
 191.833007812 185.662109375 244.165039062 133.333007812 309.166992188 133.333007812 c 0
 374.172851562 133.333007812 426.500976562 185.665039062 426.500976562 250.666992188 c 2
 426.500976562 549.3671875 l 2
 426.500976562 614.372070312 374.169921875 666.700195312 309.166992188 666.700195312 c 0
 244.162109375 666.700195312 191.833007812 614.368164062 191.833007812 549.3671875 c 2
EndSplineSet
Validated: 1
EndChar

StartChar: period
Encoding: 46 46 36
Width: 344
VWidth: 66
Flags: W
HStem: 0 133.333<122.325 221.008>
VStem: 105 133.333<17.3253 116.008>
LayerCount: 2
Back
Fore
SplineSet
105 66.6669921875 m 0
 105 103.466796875 134.866210938 133.333007812 171.666992188 133.333007812 c 0
 208.466796875 133.333007812 238.333007812 103.466796875 238.333007812 66.6669921875 c 0
 238.333007812 29.8662109375 208.466796875 0 171.666992188 0 c 0
 134.866210938 0 105 29.8662109375 105 66.6669921875 c 0
EndSplineSet
Validated: 1
EndChar

StartChar: colon
Encoding: 58 58 37
Width: 343
VWidth: 66
Flags: W
HStem: 0 133.333<122.325 221.008> 361.667 133.333<122.325 221.008>
VStem: 105 133.333<17.3253 116.008 378.992 477.675>
LayerCount: 2
Back
Fore
SplineSet
105 66.6669921875 m 0
 105 103.466796875 134.866210938 133.333007812 171.666992188 133.333007812 c 0
 208.466796875 133.333007812 238.333007812 103.466796875 238.333007812 66.6669921875 c 0
 238.333007812 29.8662109375 208.466796875 0 171.666992188 0 c 0
 134.866210938 0 105 29.8662109375 105 66.6669921875 c 0
105 428.333007812 m 0
 105 465.133789062 134.866210938 495 171.666992188 495 c 0
 208.466796875 495 238.333007812 465.133789062 238.333007812 428.333007812 c 0
 238.333007812 391.533203125 208.466796875 361.666992188 171.666992188 361.666992188 c 0
 134.866210938 361.666992188 105 391.533203125 105 428.333007812 c 0
EndSplineSet
Validated: 1
EndChar

StartChar: comma
Encoding: 44 44 38
Width: 343
VWidth: 66
Flags: W
HStem: -125.833 259.166<123.498 219.835>
VStem: 105 133.333<-107.335 115.828>
LayerCount: 2
Back
Fore
SplineSet
171.666992188 -125.833007812 m 0
 135.37890625 -125.833007812 105 -95.7392578125 105 -59.1669921875 c 2
 105 66.6669921875 l 2
 105 102.954101562 135.094726562 133.333007812 171.666992188 133.333007812 c 0
 208.239257812 133.333007812 238.333007812 102.954101562 238.333007812 66.6669921875 c 2
 238.333007812 -59.1669921875 l 2
 238.333007812 -95.7392578125 207.954101562 -125.833007812 171.666992188 -125.833007812 c 0
EndSplineSet
Validated: 1
EndChar

StartChar: hyphen
Encoding: 45 45 39
Width: 562
VWidth: 66
Flags: W
HStem: 273.333 133.334<123.498 439.995>
VStem: 105 352.5<291.831 388.169>
LayerCount: 2
Back
Fore
SplineSet
105 340 m 0
 105 376.288085938 135.094726562 406.666992188 171.666992188 406.666992188 c 2
 390.833007812 406.666992188 l 2
 427.12109375 406.666992188 457.5 376.572265625 457.5 340 c 0
 457.5 303.427734375 427.12109375 273.333007812 390.833007812 273.333007812 c 2
 171.666992188 273.333007812 l 2
 135.094726562 273.333007812 105 303.711914062 105 340 c 0
EndSplineSet
Validated: 1
EndChar

StartChar: exclam
Encoding: 33 33 40
Width: 343
VWidth: 66
Flags: W
HStem: 0 133.333<122.325 221.008> 780 20G<153.381 189.953> 780 20G<153.381 189.953>
VStem: 105 133.333<17.3253 116.008 175.165 782.495>
LayerCount: 2
Back
Fore
SplineSet
171.666992188 156.666992188 m 0xd0
 135.37890625 156.666992188 105 186.760742188 105 223.333007812 c 2
 105 733.333007812 l 2
 105 769.62109375 135.094726562 800 171.666992188 800 c 0
 208.239257812 800 238.333007812 769.62109375 238.333007812 733.333007812 c 2
 238.333007812 223.333007812 l 2
 238.333007812 186.760742188 207.954101562 156.666992188 171.666992188 156.666992188 c 0xd0
105 66.6669921875 m 0
 105 103.466796875 134.866210938 133.333007812 171.666992188 133.333007812 c 0
 208.466796875 133.333007812 238.333007812 103.466796875 238.333007812 66.6669921875 c 0
 238.333007812 29.8662109375 208.466796875 0 171.666992188 0 c 0
 134.866210938 0 105 29.8662109375 105 66.6669921875 c 0
EndSplineSet
Validated: 1
EndChar

StartChar: question
Encoding: 63 63 41
Width: 602
VWidth: 66
Flags: W
HStem: 0.833008 133.334<238.159 336.841> 666.667 133.333<262.64 360.148>
VStem: 220.833 133.334<18.1587 116.841 175.354 315.894> 380.833 133.334<549.537 648.132>
LayerCount: 2
Back
Fore
SplineSet
162.462890625 590.224609375 m 0
 137.240234375 600.844726562 121.756835938 625.936523438 121.756835938 652.08984375 c 0
 121.756835938 660.614257812 123.40234375 669.251953125 126.890625 677.537109375 c 0
 136.751953125 700.958007812 152.741210938 724.641601562 171.162109375 742.10546875 c 0
 207.658203125 778.162109375 258.015625 800 312.5 800 c 0
 424.51953125 800 514.166992188 709.081054688 514.166992188 598.333007812 c 0
 514.166992188 564.483398438 503.64453125 534.59765625 489.939453125 508.329101562 c 0
 489.369140625 507.237304688 488.516601562 505.73046875 488.047851562 504.947265625 c 2
 383.880859375 330.78125 l 2
 357.181640625 286.138671875 354.249023438 263.642578125 354.249023438 225.705078125 c 0
 354.249023438 188.384765625 325.16015625 157.534179688 287.583984375 157.5 c 0
 250.657226562 157.5 220.916015625 188.026367188 220.916015625 224.795898438 c 0
 220.916015625 277.458007812 231.083984375 335.067382812 269.452148438 399.21875 c 2
 372.506835938 571.526367188 l 2
 378.215820312 583.032226562 380.833007812 595.696289062 380.833007812 598.333007812 c 0
 380.833007812 635.918945312 350.48046875 666.666992188 312.5 666.666992188 c 0
 293.721679688 666.666992188 277.291015625 659.677734375 263.828125 646.213867188 c 0
 257.353515625 640.170898438 253.2890625 634.140625 249.775390625 625.795898438 c 0
 239.087890625 600.413085938 213.948242188 585.1015625 187.900390625 585.1015625 c 0
 179.359375 585.1015625 170.721679688 586.747070312 162.462890625 590.224609375 c 0
220.833007812 67.5 m 0
 220.833007812 104.299804688 250.700195312 134.166992188 287.5 134.166992188 c 0
 324.299804688 134.166992188 354.166992188 104.299804688 354.166992188 67.5 c 0
 354.166992188 30.7001953125 324.299804688 0.8330078125 287.5 0.8330078125 c 0
 250.700195312 0.8330078125 220.833007812 30.7001953125 220.833007812 67.5 c 0
EndSplineSet
Validated: 1
EndChar

StartChar: parenleft
Encoding: 40 40 42
Width: 404
VWidth: 66
Flags: W
HStem: 0.0771484 21G<218.689 236.069> 0.0771484 21G<218.689 236.069> 779.914 20G<219.47 236.804> 779.914 20G<219.47 236.804>
VStem: 105 133.333<205.824 594.498> 169.492 128.838<18.0293 103.857 693.695 782.988>
LayerCount: 2
Back
Fore
SplineSet
256.12890625 795.671875 m 0xa8
 282.5 785.676757812 299.090820312 759.94921875 299.090820312 732.926757812 c 0
 299.090820312 725.1796875 297.727539062 717.325195312 294.838867188 709.705078125 c 0
 258.46484375 613.73828125 238.333007812 509.235351562 238.333007812 400.833007812 c 0xa8
 238.333007812 292.071289062 257.883789062 184.844726562 294.0078125 90.5068359375 c 0
 296.940429688 82.849609375 298.330078125 74.923828125 298.330078125 67.091796875 c 0
 298.330078125 40.2646484375 282.026367188 14.5322265625 255.590820312 4.408203125 c 0
 247.907226562 1.4658203125 239.979492188 0.0771484375 232.159179688 0.0771484375 c 0
 205.21875 0.0771484375 179.549804688 16.5625 169.4921875 42.826171875 c 0xa4
 127.116210938 153.48828125 105 276.26171875 105 400.833007812 c 0
 105 525.764648438 128.202148438 646.26171875 170.161132812 756.961914062 c 0
 180.221679688 783.506835938 206.014648438 799.9140625 232.924804688 799.9140625 c 0
 240.68359375 799.9140625 248.53515625 798.549804688 256.12890625 795.671875 c 0xa8
EndSplineSet
Validated: 1
EndChar

StartChar: parenright
Encoding: 41 41 43
Width: 404
VWidth: 66
Flags: W
HStem: 0.0761719 21G<167.448 184.83> 0.0761719 21G<167.448 184.83> 779.914 20G<167.363 184.697> 779.914 20G<167.363 184.697>
VStem: 105.17 128.872<17.9846 103.825 696.162 782.133> 165.833 133.334<205.486 594.17>
LayerCount: 2
Back
Fore
SplineSet
148.038085938 795.671875 m 0xa4
 155.631835938 798.549804688 163.483398438 799.9140625 171.2421875 799.9140625 c 0
 198.151367188 799.9140625 223.944335938 783.506835938 234.005859375 756.961914062 c 0
 276.00390625 646.158203125 299.166992188 524.921875 299.166992188 400 c 0xa4
 299.166992188 275.092773438 276.0625 153.119140625 234.041992188 42.9150390625 c 0
 224.010742188 16.60546875 198.31640625 0.076171875 171.342773438 0.076171875 c 0
 163.552734375 0.076171875 155.655273438 1.455078125 147.998046875 4.375 c 0
 121.516601562 14.4716796875 105.169921875 40.2294921875 105.169921875 67.091796875 c 0xa8
 105.169921875 74.8935546875 106.547851562 82.7880859375 109.458007812 90.4189453125 c 0
 145.603515625 185.213867188 165.833007812 291.573242188 165.833007812 400 c 0
 165.833007812 508.411132812 145.663085938 613.841796875 109.328125 709.705078125 c 0
 106.439453125 717.325195312 105.075195312 725.1796875 105.075195312 732.927734375 c 0
 105.075195312 759.94921875 121.666992188 785.676757812 148.038085938 795.671875 c 0xa4
EndSplineSet
Validated: 1
EndChar

StartChar: slash
Encoding: 47 47 45
Width: 555
VWidth: 66
Flags: W
HStem: 0.0546875 21G<168 185.465> 0.0546875 21G<168 185.465> 779.937 20G<370.458 387.862> 779.937 20G<370.458 387.862>
LayerCount: 2
Back
Fore
SplineSet
404.413085938 796.8515625 m 0xa0
 432.453125 787.9140625 450.778320312 761.295898438 450.778320312 732.966796875 c 0
 450.778320312 726.366210938 449.783203125 719.671875 447.684570312 713.086914062 c 2
 235.184570312 46.419921875 l 2
 226.247070312 18.3798828125 199.629882812 0.0546875 171.299804688 0.0546875 c 0
 164.69921875 0.0546875 158.004882812 1.0498046875 151.419921875 3.1484375 c 0
 123.1875 12.1484375 105.063476562 38.8564453125 105.063476562 67.0595703125 c 0
 105.063476562 73.6650390625 106.057617188 80.3525390625 108.1484375 86.9130859375 c 2
 320.6484375 753.580078125 l 2
 329.6484375 781.8125 356.356445312 799.936523438 384.559570312 799.936523438 c 0
 391.165039062 799.936523438 397.852539062 798.942382812 404.413085938 796.8515625 c 0xa0
EndSplineSet
Validated: 1
EndChar

StartChar: plus
Encoding: 43 43 46
Width: 562
VWidth: 66
Flags: W
HStem: 273.333 133.334<122.505 214.583 347.917 439.002>
VStem: 214.583 133.334<182.248 273.333 406.667 498.745>
LayerCount: 2
Back
Fore
SplineSet
281.25 163.75 m 0
 244.961914062 163.75 214.583007812 193.844726562 214.583007812 230.416992188 c 2
 214.583007812 273.333007812 l 1
 171.666992188 273.333007812 l 2
 135.37890625 273.333007812 105 303.427734375 105 340 c 0
 105 376.572265625 135.37890625 406.666992188 171.666992188 406.666992188 c 2
 214.583007812 406.666992188 l 1
 214.583007812 449.583007812 l 2
 214.583007812 485.87109375 244.677734375 516.25 281.25 516.25 c 0
 317.822265625 516.25 347.916992188 485.87109375 347.916992188 449.583007812 c 2
 347.916992188 406.666992188 l 1
 390.833007812 406.666992188 l 2
 427.405273438 406.666992188 457.5 376.288085938 457.5 340 c 0
 457.5 303.711914062 427.405273438 273.333007812 390.833007812 273.333007812 c 2
 347.916992188 273.333007812 l 1
 347.916992188 230.416992188 l 2
 347.916992188 193.844726562 317.538085938 163.75 281.25 163.75 c 0
EndSplineSet
Validated: 1
EndChar

StartChar: asterisk
Encoding: 42 42 47
Width: 532
VWidth: 66
Flags: W
HStem: 447.5 352.5<218.247 314.891>
VStem: 105.144 322.841<519.998 617.897 629.603 727.502>
LayerCount: 2
Back
Fore
SplineSet
266.569335938 800 m 0
 301.28125 800 330.157226562 772.6328125 333.004882812 738.821289062 c 1
 341.985351562 743.048828125 351.569335938 745.064453125 361.071289062 745.064453125 c 0
 384.274414062 745.064453125 406.983398438 733.044921875 419.206054688 711.875 c 0
 425.155273438 701.571289062 427.984375 690.200195312 427.984375 678.924804688 c 0
 427.984375 657.547851562 417.813476562 636.513671875 399.444335938 623.75 c 1
 417.813476562 610.986328125 427.984375 589.952148438 427.984375 568.575195312 c 0
 427.984375 557.299804688 425.155273438 545.928710938 419.206054688 535.625 c 0
 406.983398438 514.455078125 384.274414062 502.435546875 361.071289062 502.435546875 c 0
 351.5703125 502.435546875 341.986328125 504.450195312 333.005859375 508.677734375 c 1
 330.151367188 474.630859375 301.0234375 447.5 266.569335938 447.5 c 0
 232.114257812 447.5 202.985351562 474.631835938 200.131835938 508.678710938 c 1
 191.170898438 504.46484375 181.576171875 502.4453125 172.049804688 502.4453125 c 0
 148.935546875 502.4453125 126.22265625 514.336914062 113.931640625 535.625 c 0
 107.963867188 545.9609375 105.143554688 557.317382812 105.143554688 568.55859375 c 0
 105.143554688 590.009765625 115.416015625 611.0390625 133.6953125 623.75 c 1
 115.416015625 636.4609375 105.143554688 657.490234375 105.143554688 678.94140625 c 0
 105.143554688 690.182617188 107.963867188 701.5390625 113.931640625 711.875 c 0
 126.22265625 733.163085938 148.935546875 745.0546875 172.049804688 745.0546875 c 0
 181.576171875 745.0546875 191.170898438 743.03515625 200.1328125 738.8203125 c 1
 202.98046875 772.6328125 231.857421875 800 266.569335938 800 c 0
333.005859375 508.677734375 m 1
 333.005859375 508.677734375 l 1
EndSplineSet
Validated: 1
EndChar

StartChar: quotedbl
Encoding: 34 34 48
Width: 479
VWidth: 66
Flags: W
HStem: 540.834 259.166<123.498 219.835 260.165 356.502>
VStem: 105 133.333<559.332 782.495> 241.667 133.333<559.332 782.495>
LayerCount: 2
Back
Fore
SplineSet
308.333984375 540.833984375 m 0
 272.045898438 540.833984375 241.666992188 570.927734375 241.666992188 607.5 c 2
 241.666992188 733.333984375 l 2
 241.666992188 769.62109375 271.76171875 800 308.333984375 800 c 0
 344.90625 800 375 769.62109375 375 733.333984375 c 2
 375 607.5 l 2
 375 570.927734375 344.62109375 540.833984375 308.333984375 540.833984375 c 0
171.666992188 540.833984375 m 0
 135.37890625 540.833984375 105 570.927734375 105 607.5 c 2
 105 733.333984375 l 2
 105 769.62109375 135.094726562 800 171.666992188 800 c 0
 208.239257812 800 238.333007812 769.62109375 238.333007812 733.333984375 c 2
 238.333007812 607.5 l 2
 238.333007812 570.927734375 207.954101562 540.833984375 171.666992188 540.833984375 c 0
EndSplineSet
Validated: 1
EndChar

StartChar: quotesingle
Encoding: 39 39 49
Width: 343
VWidth: 66
Flags: W
HStem: 540.834 259.166<123.498 219.835>
VStem: 105 133.333<559.332 782.495>
LayerCount: 2
Back
Fore
SplineSet
171.666992188 540.833984375 m 0
 135.37890625 540.833984375 105 570.927734375 105 607.5 c 2
 105 733.333984375 l 2
 105 769.62109375 135.094726562 800 171.666992188 800 c 0
 208.239257812 800 238.333007812 769.62109375 238.333007812 733.333984375 c 2
 238.333007812 607.5 l 2
 238.333007812 570.927734375 207.954101562 540.833984375 171.666992188 540.833984375 c 0
EndSplineSet
Validated: 1
EndChar

StartChar: numbersign
Encoding: 35 35 50
Width: 821
VWidth: 66
Flags: W
HStem: 0.0546875 21G<195.083 212.548 428.416 445.881> 0.0546875 21G<195.083 212.548 428.416 445.881> 219.167 133.333<123.498 177.389 359.83 410.722 593.164 643.328> 404.167 133.333<187.665 236.357 418.799 469.69 652.122 698.734> 779.937 20G<397.542 414.946 630.875 648.279> 779.937 20G<397.542 414.946 630.875 648.279>
VStem: 132.147 130.12<18.0485 68.3806> 347.732 130.13<731.619 782.016> 365.48 130.121<18.0485 68.3806> 581.065 130.13<731.619 782.016>
LayerCount: 2
Back
Fore
SplineSet
453.221679688 352.5 m 1x3240
 469.690429688 404.166992188 l 1
 376.299804688 404.166992188 l 1
 359.830078125 352.5 l 1
 453.221679688 352.5 l 1x3240
431.49609375 796.8515625 m 0
 459.536132812 787.9140625 477.862304688 761.296875 477.862304688 732.967773438 c 0xbb40
 477.862304688 726.366210938 476.8671875 719.671875 474.767578125 713.086914062 c 2
 418.798828125 537.5 l 1
 512.189453125 537.5 l 1
 581.065429688 753.580078125 l 2
 590.064453125 781.8125 616.7734375 799.936523438 644.9765625 799.936523438 c 0
 651.58203125 799.936523438 658.26953125 798.942382812 664.830078125 796.8515625 c 0
 692.870117188 787.9140625 711.1953125 761.295898438 711.1953125 732.966796875 c 0
 711.1953125 726.365234375 710.200195312 719.671875 708.1015625 713.086914062 c 2
 652.122070312 537.465820312 l 1
 687.46484375 536.3203125 716.666992188 506.690429688 716.666992188 470.833007812 c 0
 716.666992188 434.260742188 686.288085938 404.166992188 650 404.166992188 c 2
 609.633789062 404.166992188 l 1
 593.1640625 352.5 l 1
 594.166992188 352.5 l 2
 630.454101562 352.5 660.833007812 322.405273438 660.833007812 285.833007812 c 0
 660.833007812 249.260742188 630.454101562 219.166992188 594.166992188 219.166992188 c 2
 550.665039062 219.166992188 l 1
 495.6015625 46.419921875 l 2
 486.6640625 18.3798828125 460.045898438 0.0546875 431.716796875 0.0546875 c 0
 425.115234375 0.0546875 418.421875 1.0498046875 411.836914062 3.1484375 c 0
 383.604492188 12.1484375 365.48046875 38.8564453125 365.48046875 67.0595703125 c 0xbac0
 365.48046875 73.6650390625 366.474609375 80.3525390625 368.565429688 86.9130859375 c 2
 410.721679688 219.166992188 l 1
 317.331054688 219.166992188 l 1
 262.267578125 46.419921875 l 2
 253.330078125 18.3798828125 226.712890625 0.0546875 198.383789062 0.0546875 c 0
 191.782226562 0.0546875 185.088867188 1.0498046875 178.50390625 3.1484375 c 0
 150.271484375 12.1484375 132.147460938 38.8564453125 132.147460938 67.0595703125 c 0
 132.147460938 73.6650390625 133.141601562 80.3525390625 135.232421875 86.9130859375 c 2
 177.388671875 219.166992188 l 1
 171.666992188 219.166992188 l 2
 135.094726562 219.166992188 105 249.545898438 105 285.833007812 c 0
 105 322.12109375 135.094726562 352.5 171.666992188 352.5 c 2
 219.888671875 352.5 l 1
 236.357421875 404.166992188 l 1
 235.833007812 404.166992188 l 2
 199.260742188 404.166992188 169.166992188 434.545898438 169.166992188 470.833007812 c 0
 169.166992188 507.12109375 199.260742188 537.5 235.833007812 537.5 c 2
 278.856445312 537.5 l 1
 347.732421875 753.580078125 l 2
 356.731445312 781.8125 383.440429688 799.936523438 411.643554688 799.936523438 c 0xbb40
 418.248046875 799.936523438 424.935546875 798.942382812 431.49609375 796.8515625 c 0
EndSplineSet
Validated: 1
EndChar

StartChar: dollar
Encoding: 36 36 51
Width: 659
VWidth: 66
Flags: W
HStem: -59.167 191.667<275.748 372.466> 666.667 191.666<272.881 370.761>
VStem: 120 133.333<551.757 646.908> 255 133.333<-38.2911 15.0585 779.788 839.835> 421.667 133.333<169.846 290.537>
LayerCount: 2
Back
Fore
SplineSet
146.025390625 228.205078125 m 0
 154.216796875 231.618164062 162.7734375 233.234375 171.233398438 233.234375 c 0
 197.370117188 233.234375 222.578125 217.811523438 233.205078125 192.307617188 c 0
 238.337890625 179.990234375 244.961914062 170.15234375 253.806640625 161.306640625 c 0
 271.610351562 143.50390625 296.298828125 132.5 324.166992188 132.5 c 0
 377.78515625 132.5 421.666992188 176.44140625 421.666992188 230.833007812 c 0
 421.666992188 259.11328125 411.084960938 284.604492188 389.3203125 301.546875 c 2
 203.23828125 436.954101562 l 2
 153.41796875 473.309570312 120 535.388671875 120 598.333007812 c 0
 120 685.943359375 176.1015625 761.14453125 255 788.743164062 c 1
 255 791.666992188 l 2
 255 828.239257812 285.37890625 858.333007812 321.666992188 858.333007812 c 0
 357.954101562 858.333007812 388.333007812 828.239257812 388.333007812 791.666992188 c 2
 388.333007812 788.47265625 l 1
 416.979492188 778.369140625 442.6875 762.177734375 462.994140625 742.115234375 c 0
 481.965820312 724.170898438 496.9453125 702.798828125 507.243164062 678.64453125 c 0
 510.797851562 670.306640625 512.48046875 661.571289062 512.48046875 652.93359375 c 0
 512.48046875 626.9921875 497.30078125 601.93359375 472.061523438 591.173828125 c 0
 463.6953125 587.607421875 454.9609375 585.92578125 446.340820312 585.92578125 c 0
 420.293945312 585.92578125 395.282226562 601.275390625 384.590820312 626.35546875 c 0
 381.303710938 634.064453125 377.961914062 639.098632812 370.338867188 646.213867188 c 0
 356.879882812 659.672851562 340.442382812 666.666992188 321.666992188 666.666992188 c 0
 283.685546875 666.666992188 253.333007812 635.918945312 253.333007812 598.333007812 c 0
 253.333007812 586.278320312 269.915039062 553.357421875 281.76171875 544.711914062 c 2
 468.953125 408.497070312 l 2
 531.026367188 361.321289062 555 292.62890625 555 230.833007812 c 0
 555 126.624023438 486.09375 37.7548828125 390.833007812 8.9677734375 c 1
 390.833007812 7.5 l 2
 390.833007812 -28.7880859375 360.739257812 -59.1669921875 324.166992188 -59.1669921875 c 0
 287.594726562 -59.1669921875 257.5 -28.7880859375 257.5 7.5 c 2
 257.5 8.8056640625 l 1
 220.098632812 19.892578125 186.4609375 40.0908203125 159.526367188 67.0263671875 c 0
 138.37109375 88.1806640625 121.662109375 113.34375 110.127929688 141.025390625 c 0
 106.703125 149.244140625 105.088867188 157.80078125 105.088867188 166.245117188 c 0
 105.088867188 192.487304688 120.68359375 217.645507812 146.025390625 228.205078125 c 0
EndSplineSet
Validated: 1
EndChar

StartChar: percent
Encoding: 37 37 52
Width: 776
VWidth: 66
Flags: W
HStem: 0 133.333<460.676 532.658> 0.163086 21G<165.11 182.299> 216.667 133.333<460.437 532.658> 450 133.333<244.009 316.23> 666.667 133.333<244.009 315.991> 779.828 20G<594.381 611.55>
VStem: 105 133.333<589.009 660.991> 321.667 133.333<139.705 175.11 624.892 660.295> 538.333 133.334<139.009 210.991>
LayerCount: 2
Back
Fore
SplineSet
455 175 m 0xb380
 455 151.7421875 473.40234375 133.333007812 496.666992188 133.333007812 c 0
 519.924804688 133.333007812 538.333007812 151.735351562 538.333007812 175 c 0
 538.333007812 198.2578125 519.931640625 216.666992188 496.666992188 216.666992188 c 0
 473.409179688 216.666992188 455 198.264648438 455 175 c 0xb380
238.333007812 625 m 0
 238.333007812 601.7421875 256.735351562 583.333007812 280 583.333007812 c 0
 303.2578125 583.333007812 321.666992188 601.735351562 321.666992188 625 c 0
 321.666992188 648.2578125 303.264648438 666.666992188 280 666.666992188 c 0x3b80
 256.7421875 666.666992188 238.333007812 648.264648438 238.333007812 625 c 0
641.333007812 789.229492188 m 0
 660.78125 776.587890625 671.50390625 754.953125 671.50390625 732.977539062 c 0
 671.50390625 720.575195312 668.087890625 708.063476562 660.896484375 697.000976562 c 2
 425.592773438 334.995117188 l 1
 447.3046875 344.641601562 471.352539062 350 496.666992188 350 c 0
 593.40234375 350 671.666992188 271.7421875 671.666992188 175 c 0
 671.666992188 78.2646484375 593.409179688 0 496.666992188 0 c 0xb780
 399.931640625 0 321.666992188 78.2578125 321.666992188 175 c 2
 321.666992188 175.110351562 l 1
 227.5625 30.333984375 l 2
 214.920898438 10.8857421875 193.286132812 0.1630859375 171.311523438 0.1630859375 c 0
 158.908203125 0.1630859375 146.397460938 3.5791015625 135.333984375 10.7705078125 c 0
 115.784179688 23.4775390625 105.171875 45.1025390625 105.171875 66.994140625 c 0
 105.171875 79.439453125 108.602539062 91.9716796875 115.770507812 102.999023438 c 2
 351.073242188 465.004882812 l 1
 329.362304688 455.358398438 305.313476562 450 280 450 c 0
 183.264648438 450 105 528.2578125 105 625 c 0
 105 721.735351562 183.2578125 800 280 800 c 0x7b80
 376.735351562 800 455 721.7421875 455 625 c 2
 455 624.891601562 l 1
 549.103515625 769.666015625 l 2
 561.810546875 789.215820312 583.435546875 799.828125 605.327148438 799.828125 c 0x3780
 617.772460938 799.828125 630.3046875 796.397460938 641.333007812 789.229492188 c 0
EndSplineSet
Validated: 1
EndChar

StartChar: ampersand
Encoding: 38 38 53
Width: 829
VWidth: 66
Flags: W
HStem: -0.833008 133.333<301.846 423.198> 666.667 133.333<315.685 410.981>
VStem: 130 133.333<171.624 290.925> 161.667 133.333<555.072 648.132> 431.667 133.333<551.375 648.132>
LayerCount: 2
Back
Fore
SplineSet
581.272460938 306.903320312 m 1xd8
 599.788085938 326.021484375 604.391601562 377.5 677.583007812 377.5 c 0
 713.87109375 377.5 744.25 347.405273438 744.25 310.833007812 c 0
 744.25 293.630859375 737.708984375 277.181640625 725.427734375 264.408203125 c 0
 722.530273438 261.390625 704.174804688 242.166015625 679.193359375 216.357421875 c 1
 727.760742188 171.447265625 l 2
 741.859375 158.411132812 748.9609375 140.438476562 748.9609375 122.451171875 c 0
 748.9609375 106.178710938 743.149414062 89.8935546875 731.447265625 77.2392578125 c 0
 718.46484375 63.19921875 700.459960938 56.037109375 682.40234375 56.037109375 c 0
 666.193359375 56.037109375 649.940429688 61.8076171875 637.239257812 73.552734375 c 2
 585.580078125 121.3203125 l 1
 554.01171875 90.078125 532.826171875 68.0400390625 509.555664062 52.275390625 c 0
 467.551757812 14.173828125 414.443359375 -0.8330078125 360.833007812 -0.8330078125 c 0
 232.782226562 -0.8330078125 130 103.560546875 130 230.833007812 c 0xe8
 130 292.63671875 153.95703125 361.30859375 216.046875 408.497070312 c 2
 249.044921875 432.509765625 l 1
 238.904296875 441.88671875 l 2
 202.002929688 476.010742188 161.666992188 530.837890625 161.666992188 598.333007812 c 0
 161.666992188 709.081054688 251.314453125 800 363.333007812 800 c 0
 475.352539062 800 565 709.081054688 565 598.333007812 c 0
 565 535.30859375 531.509765625 473.256835938 481.76171875 436.954101562 c 2
 458.743164062 420.204101562 l 1
 581.272460938 306.903320312 l 1xd8
487.584960938 211.935546875 m 1
 348.840820312 340.23046875 l 1
 295.6796875 301.546875 l 2
 273.40625 284.208007812 263.333007812 258.944335938 263.333007812 230.833007812 c 0
 263.333007812 176.439453125 307.217773438 132.5 360.833007812 132.5 c 0
 395.997070312 132.5 405.788085938 136.998046875 422.408203125 153.352539062 c 0
 426.551757812 157.4296875 431.767578125 161.184570312 436.359375 163.87890625 c 0
 443.814453125 169.891601562 464.733398438 189.41796875 487.584960938 211.935546875 c 1
358.948242188 512.483398438 m 1
 403.23828125 544.711914062 l 2
 415.157226562 553.41015625 431.666992188 586.358398438 431.666992188 598.333007812 c 0
 431.666992188 635.918945312 401.314453125 666.666992188 363.333007812 666.666992188 c 0
 325.352539062 666.666992188 295 635.918945312 295 598.333007812 c 0xd8
 295 590.829101562 310.467773438 557.313476562 329.428710938 539.780273438 c 2
 358.948242188 512.483398438 l 1
EndSplineSet
Validated: 1
EndChar

StartChar: semicolon
Encoding: 59 59 54
Width: 343
VWidth: 66
Flags: W
HStem: -125.833 259.166<120.998 217.335> 361.667 133.333<122.325 221.008>
VStem: 102.5 133.333<-107.335 115.828 382.345 474.322>
LayerCount: 2
Back
Fore
SplineSet
105 428.333007812 m 0
 105 465.133789062 134.866210938 495 171.666992188 495 c 0
 208.466796875 495 238.333007812 465.133789062 238.333007812 428.333007812 c 0
 238.333007812 391.533203125 208.466796875 361.666992188 171.666992188 361.666992188 c 0
 134.866210938 361.666992188 105 391.533203125 105 428.333007812 c 0
169.166992188 -125.833007812 m 0
 132.87890625 -125.833007812 102.5 -95.7392578125 102.5 -59.1669921875 c 2
 102.5 66.6669921875 l 2
 102.5 102.954101562 132.594726562 133.333007812 169.166992188 133.333007812 c 0
 205.739257812 133.333007812 235.833007812 102.954101562 235.833007812 66.6669921875 c 2
 235.833007812 -59.1669921875 l 2
 235.833007812 -95.7392578125 205.454101562 -125.833007812 169.166992188 -125.833007812 c 0
EndSplineSet
Validated: 1
EndChar

StartChar: at
Encoding: 64 64 55
Width: 1009
VWidth: 66
Flags: W
HStem: 0.297852 133.333<401.802 609.512> 191.342 133.333<456.001 546.843> 474.155 133.333<462.072 552.006> 666.536 133.334<401.586 605.37>
VStem: 105 133.333<296.716 503.095> 304.944 133.333<343.243 450.997> 569.662 133.333<346.957 455.94> 771.958 133.333<335.149 502.465>
LayerCount: 2
Back
Fore
SplineSet
488.741210938 325.95703125 m 0
 492.788085938 325.081054688 496.73046875 324.674804688 500.645507812 324.674804688 c 0
 528.084960938 324.674804688 559.506835938 346.767578125 567.752929688 385.778320312 c 0
 567.766601562 385.842773438 567.779296875 385.907226562 567.79296875 385.970703125 c 0
 569.073242188 392.092773438 569.662109375 398.038085938 569.662109375 403.7734375 c 0
 569.662109375 440.227539062 546.96484375 466.831054688 519.197265625 472.842773438 c 0
 515.049804688 473.740234375 511.025390625 474.155273438 507.017578125 474.155273438 c 0
 479.282226562 474.155273438 448.275390625 452.361328125 440.153320312 413.594726562 c 0
 438.870117188 407.47265625 438.27734375 401.502929688 438.27734375 395.721679688 c 0
 438.27734375 358.838867188 461.34765625 331.887695312 488.741210938 325.95703125 c 0
460.53125 195.642578125 m 0
 365.279296875 216.264648438 304.944335938 303.06640625 304.944335938 395.721679688 c 0
 304.944335938 410.663085938 306.486328125 425.821289062 309.653320312 440.9375 c 0
 329.807617188 537.127929688 411.552734375 607.48828125 507.017578125 607.48828125 c 0
 520.395507812 607.48828125 533.963867188 606.069335938 547.409179688 603.157226562 c 0
 642.288085938 582.6171875 702.995117188 496.557617188 702.995117188 403.7734375 c 0
 702.995117188 388.844726562 701.451171875 373.702148438 698.286132812 358.594726562 c 0
 698.263671875 358.48828125 698.241210938 358.381835938 698.21875 358.275390625 c 0
 697.520507812 354.899414062 697.209960938 351.66015625 697.209960938 348.6171875 c 0
 697.209960938 338.94140625 716.729492188 316.389648438 722.231445312 315.197265625 c 0
 722.822265625 315.069335938 723.2890625 315.025390625 723.796875 315.025390625 c 0
 740.754882812 315.025390625 763.596679688 331.771484375 766.290039062 344.522460938 c 0
 770.096679688 362.794921875 771.958007812 381.3125 771.958007812 399.306640625 c 0
 771.958007812 522.752929688 685.818359375 633.866210938 560.149414062 660.62890625 c 0
 541.356445312 664.631835938 522.715820312 666.536132812 504.377929688 666.536132812 c 0
 381.505859375 666.536132812 270.940429688 580.650390625 244.241210938 455.282226562 c 0
 240.239257812 436.486328125 238.333007812 417.84375 238.333007812 399.5078125 c 0
 238.333007812 276.64453125 324.3203125 166.048828125 449.467773438 139.396484375 c 0
 467.9375 135.53515625 486.772460938 133.630859375 504.990234375 133.630859375 c 0
 547.055664062 133.630859375 587.662109375 143.524414062 624.28515625 161.70703125 c 0
 633.615234375 166.33984375 643.611328125 168.534179688 653.5078125 168.534179688 c 0
 678.086914062 168.534179688 702.048828125 154.99609375 713.643554688 131.642578125 c 0
 718.291015625 122.283203125 720.481445312 112.293945312 720.481445312 102.422851562 c 0
 720.481445312 77.7470703125 706.793945312 53.8095703125 683.579101562 42.283203125 c 0
 629.016601562 15.193359375 568.06640625 0.2978515625 504.990234375 0.2978515625 c 0
 477.504882812 0.2978515625 449.958007812 3.078125 421.938476562 8.9365234375 c 0
 233.834960938 48.9951171875 105 214.58984375 105 399.5078125 c 0
 105 427.103515625 107.879882812 455.098632812 113.83203125 483.05078125 c 0
 153.844726562 670.934570312 319.466796875 799.870117188 504.377929688 799.870117188 c 0
 531.97265625 799.870117188 559.967773438 796.991210938 587.922851562 791.038085938 c 0
 776.310546875 750.918945312 905.291015625 584.59375 905.291015625 399.306640625 c 0
 905.291015625 372.134765625 902.547851562 344.81640625 896.782226562 317.14453125 c 0
 877.235351562 224.620117188 790.583007812 181.692382812 723.796875 181.692382812 c 0
 713.916015625 181.692382812 703.901367188 182.743164062 694.008789062 184.885742188 c 0
 663.56640625 191.481445312 636.381835938 207.223632812 614.83203125 228.676757812 c 1
 582.2109375 205.099609375 542.815429688 191.341796875 500.645507812 191.341796875 c 0
 487.354492188 191.341796875 473.891601562 192.750976562 460.53125 195.642578125 c 0
EndSplineSet
Validated: 1
EndChar

StartChar: equal
Encoding: 61 61 56
Width: 562
VWidth: 66
Flags: W
HStem: 185 133.333<122.505 439.002> 361.667 133.333<122.505 439.002>
LayerCount: 2
Back
Fore
SplineSet
457.5 251.666992188 m 0
 457.5 215.37890625 427.405273438 185 390.833007812 185 c 2
 171.666992188 185 l 2
 135.37890625 185 105 215.094726562 105 251.666992188 c 0
 105 288.239257812 135.37890625 318.333007812 171.666992188 318.333007812 c 2
 390.833007812 318.333007812 l 2
 427.405273438 318.333007812 457.5 287.954101562 457.5 251.666992188 c 0
457.5 428.333007812 m 0
 457.5 392.045898438 427.405273438 361.666992188 390.833007812 361.666992188 c 2
 171.666992188 361.666992188 l 2
 135.37890625 361.666992188 105 391.760742188 105 428.333007812 c 0
 105 464.905273438 135.37890625 495 171.666992188 495 c 2
 390.833007812 495 l 2
 427.405273438 495 457.5 464.62109375 457.5 428.333007812 c 0
EndSplineSet
Validated: 1
EndChar

StartChar: less
Encoding: 60 60 57
Width: 556
VWidth: 66
Flags: W
LayerCount: 2
Back
Fore
SplineSet
435.756835938 21.77734375 m 0
 422.720703125 6.46875 403.825195312 -1.46875 384.829101562 -1.46875 c 0
 369.543945312 -1.46875 354.193359375 3.6708984375 341.77734375 14.2431640625 c 2
 128.444335938 195.91015625 l 2
 118.9609375 203.985351562 100.87109375 223.34765625 100.87109375 247.670898438 c 0
 100.87109375 262.836914062 107.905273438 279.932617188 128.444335938 297.423828125 c 2
 341.77734375 479.08984375 l 2
 354.149414062 489.625 369.53125 494.797851562 384.875 494.797851562 c 0
 403.797851562 494.797851562 422.663085938 486.931640625 435.756835938 471.555664062 c 0
 446.329101562 459.140625 451.46875 443.790039062 451.46875 428.50390625 c 0
 451.46875 409.508789062 443.53125 390.61328125 428.22265625 377.576171875 c 2
 274.493164062 246.666992188 l 1
 428.22265625 115.756835938 l 2
 443.598632812 102.6640625 451.46484375 83.7978515625 451.46484375 64.8759765625 c 0
 451.46484375 49.53125 446.291992188 34.1494140625 435.756835938 21.77734375 c 0
EndSplineSet
Validated: 1
EndChar

StartChar: greater
Encoding: 62 62 58
Width: 556
VWidth: 66
Flags: W
LayerCount: 2
Back
Fore
SplineSet
120.91015625 21.77734375 m 0
 110.375 34.1494140625 105.202148438 49.53125 105.202148438 64.875 c 0
 105.202148438 83.7978515625 113.068359375 102.663085938 128.444335938 115.756835938 c 2
 282.172851562 246.666992188 l 1
 128.444335938 377.576171875 l 2
 113.134765625 390.61328125 105.198242188 409.508789062 105.198242188 428.504882812 c 0
 105.198242188 443.790039062 110.337890625 459.140625 120.91015625 471.555664062 c 0
 134.00390625 486.931640625 152.869140625 494.797851562 171.791992188 494.797851562 c 0
 187.135742188 494.797851562 202.517578125 489.625 214.889648438 479.08984375 c 2
 428.22265625 297.423828125 l 2
 448.76171875 279.932617188 455.795898438 262.837890625 455.795898438 247.670898438 c 0
 455.795898438 223.34765625 437.706054688 203.986328125 428.22265625 195.91015625 c 2
 214.889648438 14.2431640625 l 2
 202.473632812 3.6708984375 187.123046875 -1.46875 171.837890625 -1.46875 c 0
 152.841796875 -1.46875 133.946289062 6.46875 120.91015625 21.77734375 c 0
EndSplineSet
Validated: 1
EndChar

StartChar: bracketleft
Encoding: 91 91 59
Width: 404
VWidth: 66
Flags: W
HStem: 0 21G<153.528 249.953> 0 21G<153.528 249.953> 780 20G<155.877 250.644> 780 20G<155.877 250.644>
VStem: 105 193.333<18.6016 115.459 683.874 780.381>
LayerCount: 2
Back
Fore
SplineSet
298.333007812 66.6669921875 m 0xa8
 298.333007812 30.37890625 268.239257812 0 231.666992188 0 c 2
 171.666992188 0 l 2
 135.388671875 0 104.954101562 30.28515625 105 66.75 c 2
 105.833007812 733.416992188 l 2
 105.880859375 771.318359375 139.254882812 800 172.5 800 c 2
 232.5 800 l 2
 268.788085938 800 299.166992188 769.905273438 299.166992188 733.333007812 c 0
 299.166992188 699.821289062 274.513671875 671.173828125 239.083984375 666.98046875 c 1
 238.416015625 133 l 1
 271.852539062 129.041992188 298.333007812 100.979492188 298.333007812 66.6669921875 c 0xa8
EndSplineSet
Validated: 33
EndChar

StartChar: backslash
Encoding: 92 92 60
Width: 556
VWidth: 66
Flags: W
HStem: 0.0556641 21G<371.217 388.68> 0.0556641 21G<371.217 388.68> 779.937 20G<167.958 185.36> 779.937 20G<167.958 185.36>
LayerCount: 2
Back
Fore
SplineSet
151.348632812 796.828125 m 0xa0
 157.931640625 798.934570312 164.643554688 799.936523438 171.272460938 799.936523438 c 0
 199.448242188 799.936523438 226.138671875 781.849609375 235.161132812 753.651367188 c 2
 448.495117188 86.9853515625 l 2
 450.6015625 80.40234375 451.602539062 73.6904296875 451.602539062 67.0615234375 c 0
 451.602539062 38.8857421875 433.515625 12.1953125 405.318359375 3.171875 c 0
 398.7109375 1.0576171875 391.9921875 0.0556640625 385.3671875 0.0556640625 c 0
 357.06640625 0.0556640625 330.466796875 18.3427734375 321.504882812 46.3486328125 c 2
 108.171875 713.014648438 l 2
 106.057617188 719.622070312 105.055664062 726.340820312 105.055664062 732.965820312 c 0
 105.055664062 761.267578125 123.342773438 787.866210938 151.348632812 796.828125 c 0xa0
EndSplineSet
Validated: 1
EndChar

StartChar: bracketright
Encoding: 93 93 61
Width: 404
VWidth: 66
Flags: W
HStem: 0 21G<154.214 250.639> 0 21G<154.214 250.639> 780 20G<153.523 248.29> 780 20G<153.523 248.29>
VStem: 105.833 193.334<18.6016 115.459 683.874 780.381>
LayerCount: 2
Back
Fore
SplineSet
105.833007812 66.6669921875 m 0xa8
 105.833007812 100.979492188 132.313476562 129.041992188 165.75 133 c 1
 165.083007812 666.98046875 l 1
 129.65234375 671.173828125 105 699.821289062 105 733.333007812 c 0
 105 769.905273438 135.37890625 800 171.666992188 800 c 2
 231.666992188 800 l 2
 264.912109375 800 298.286132812 771.318359375 298.333007812 733.416992188 c 2
 299.166992188 66.75 l 2
 299.211914062 30.28515625 268.778320312 0 232.5 0 c 2
 172.5 0 l 2
 135.927734375 0 105.833007812 30.37890625 105.833007812 66.6669921875 c 0xa8
EndSplineSet
Validated: 33
EndChar

StartChar: asciicircum
Encoding: 94 94 62
Width: 598
VWidth: 66
Flags: W
HStem: 720.175 222.271
LayerCount: 2
Back
Fore
SplineSet
117.05078125 748.435546875 m 0
 109.037109375 759.883789062 105.182617188 773.172851562 105.182617188 786.385742188 c 0
 105.182617188 807.483398438 115.01171875 828.385742188 133.435546875 841.282226562 c 2
 260.935546875 930.532226562 l 2
 272.288085938 938.478515625 285.728515625 942.4453125 299.163085938 942.4453125 c 0
 312.61328125 942.4453125 326.057617188 938.469726562 337.397460938 930.532226562 c 2
 464.897460938 841.282226562 l 2
 483.229492188 828.450195312 493.158203125 807.530273438 493.158203125 786.3515625 c 0
 493.158203125 773.186523438 489.322265625 759.920898438 481.282226562 748.435546875 c 0
 468.385742188 730.01171875 447.483398438 720.182617188 426.385742188 720.182617188 c 0
 413.172851562 720.182617188 399.883789062 724.037109375 388.435546875 732.05078125 c 2
 299.166992188 794.5390625 l 1
 209.897460938 732.05078125 l 2
 198.412109375 724.01171875 185.147460938 720.174804688 171.982421875 720.174804688 c 0
 150.803710938 720.174804688 129.883789062 730.103515625 117.05078125 748.435546875 c 0
EndSplineSet
Validated: 1
EndChar

StartChar: a
Encoding: 97 97 63
Width: 674
VWidth: 66
Flags: W
HStem: 0.0644531 21.0098G<101.035 118.46 555.81 573.176> 0.0644531 21.0098G<101.035 118.46 555.81 573.176> 226.667 133.333<277.511 396.004> 780 20G<336.743 350.793> 780 20G<336.743 350.793>
VStem: 506.23 129.538<17.9293 100.662>
LayerCount: 2
Back
Fore
SplineSet
277.510742188 360 m 1x24
 396.00390625 360 l 1
 374.81640625 420.623046875 354.473632812 478.868164062 336.615234375 530.0859375 c 1
 277.510742188 360 l 1x24
399.422851562 756.080078125 m 0
 405.296875 739.002929688 543.370117188 342.641601562 632.103515625 88.654296875 c 0
 634.591796875 81.5322265625 635.768554688 74.244140625 635.768554688 67.056640625 c 0
 635.768554688 39.3994140625 618.344726562 13.2294921875 591.154296875 3.73046875 c 0
 584.057617188 1.2509765625 576.7734375 0.07421875 569.578125 0.07421875 c 0
 542.041015625 0.07421875 515.79296875 17.3056640625 506.23046875 44.6796875 c 0
 486.578125 100.931640625 464.77734375 163.280273438 442.615234375 226.666992188 c 1
 231.177734375 226.666992188 l 1
 167.97265625 44.783203125 l 2
 158.505859375 17.541015625 132.30859375 0.064453125 104.611328125 0.064453125 c 0
 97.458984375 0.064453125 90.20703125 1.2294921875 83.1171875 3.693359375 c 0
 55.69140625 13.2236328125 38.4072265625 39.5 38.4072265625 67.078125 c 0
 38.4072265625 74.2373046875 39.572265625 81.4853515625 42.02734375 88.5498046875 c 2
 273.693359375 755.216796875 l 2
 283.174804688 782.5 309.228515625 799.747070312 336.649414062 799.924804688 c 0
 336.702148438 799.974609375 336.735351562 800 336.75 800 c 0xb4
 364.8359375 800 390.220703125 782.6171875 399.422851562 756.080078125 c 0
EndSplineSet
Validated: 1
EndChar

StartChar: b
Encoding: 98 98 64
Width: 693
VWidth: 66
Flags: W
HStem: 0.833984 133.056<238.327 443.55> 400 133.333<238.327 354.567> 666.667 133.333<238.327 351.034>
VStem: 104.994 133.333<133.89 400 533.333 666.667> 371.669 133.335<550.704 646.939> 505 133.334<193.907 339.747>
LayerCount: 2
Back
Fore
SplineSet
238.327148438 533.333007812 m 1xf8
 315.689453125 533.333007812 l 2
 325.572265625 534.958007812 334.75390625 538.71484375 342.653320312 544.184570312 c 0
 360.145507812 556.296875 371.668945312 576.349609375 371.668945312 599.852539062 c 0
 371.668945312 636.171875 342.092773438 666.043945312 305.387695312 666.666992188 c 2
 238.327148438 666.666992188 l 1
 238.327148438 533.333007812 l 1xf8
323.399414062 400 m 2
 317.349609375 399.454101562 311.163085938 399.166992188 305.077148438 399.166992188 c 0
 301.586914062 399.166992188 298.043945312 399.450195312 294.569335938 400 c 2
 238.327148438 400 l 1
 238.327148438 133.889648438 l 1
 371.799804688 133.333007812 l 2
 445.265625 133.333007812 505 192.459960938 505 266.560546875 c 0xf4
 505 336.560546875 452.18359375 393.3515625 384.084960938 399.458007812 c 0
 380.38671875 399.7890625 377.327148438 399.952148438 373.080078125 400 c 2
 323.399414062 400 l 2
483.405273438 509.017578125 m 1
 575.16796875 466.754882812 638.333984375 373.895507812 638.333984375 266.568359375 c 0xf4
 638.333984375 118.499023438 518.716796875 0 371.522460938 0 c 2
 171.3828125 0.833984375 l 2
 133.41015625 0.9921875 104.994140625 34.611328125 104.994140625 67.5 c 2
 104.994140625 733.333007812 l 2
 104.994140625 773.686523438 143.047851562 800 171.661132812 800 c 2
 306.206054688 800 l 2
 415.78125 798.754882812 505.00390625 710.3671875 505.00390625 599.91015625 c 0xf8
 505.00390625 567.020507812 497.185546875 536.413085938 483.405273438 509.017578125 c 1
EndSplineSet
Validated: 1
EndChar

StartChar: c
Encoding: 99 99 65
Width: 749
VWidth: 66
Flags: W
HStem: 0 133.333<331.127 511.692> 666.667 133.333<331.127 511.708>
VStem: 88.333 133.334<249.876 550.124>
LayerCount: 2
Back
Fore
SplineSet
657.973632812 192.140625 m 0
 670.828125 179.286132812 677.293945312 162.138671875 677.293945312 144.975585938 c 0
 677.293945312 127.877929688 670.87890625 110.764648438 657.973632812 97.859375 c 0
 597.985351562 37.87109375 515.040039062 0 422.5 0 c 0
 238.428710938 0 88.3330078125 148.784179688 88.3330078125 333.333007812 c 2
 88.3330078125 466.666992188 l 2
 88.3330078125 651.215820312 238.428710938 800 422.5 800 c 0
 515.045898438 800 597.97265625 762.122070312 658.016601562 702.180664062 c 0
 670.897460938 689.322265625 677.376953125 672.157226562 677.376953125 654.973632812 c 0
 677.376953125 637.896484375 670.9765625 620.801757812 658.09765625 607.900390625 c 0
 645.189453125 594.969726562 628.056640625 588.540039062 610.939453125 588.540039062 c 0
 593.795898438 588.540039062 576.66796875 594.990234375 563.81640625 607.819335938 c 0
 527.02734375 644.544921875 478.288085938 666.666992188 422.5 666.666992188 c 0
 311.571289062 666.666992188 221.666992188 577.1171875 221.666992188 466.666992188 c 2
 221.666992188 333.333007812 l 2
 221.666992188 222.8828125 311.571289062 133.333007812 422.5 133.333007812 c 0
 478.29296875 133.333007812 527.014648438 155.461914062 563.693359375 192.140625 c 0
 576.598632812 205.045898438 593.711914062 211.4609375 610.80859375 211.4609375 c 0
 627.97265625 211.4609375 645.119140625 204.995117188 657.973632812 192.140625 c 0
EndSplineSet
Validated: 1
EndChar

StartChar: d
Encoding: 100 100 66
Width: 809
VWidth: 66
Flags: W
HStem: 0 133.333<238.333 440.665> 666.667 133.333<238.333 442.59>
VStem: 105 133.333<133.333 666.667> 604.146 133.376<294.413 505.587>
LayerCount: 2
Back
Fore
SplineSet
238.333007812 133.333007812 m 1
 337.5 133.333007812 l 2
 404.763671875 133.333007812 474.387695312 159.501953125 526.193359375 211.306640625 c 0
 578.162109375 263.275390625 604.145507812 331.637695312 604.145507812 400 c 0
 604.145507812 468.362304688 578.162109375 536.724609375 526.193359375 588.693359375 c 0
 474.0625 640.823242188 406.388671875 666.666992188 338.333007812 666.666992188 c 2
 238.333007812 666.666992188 l 1
 238.333007812 133.333007812 l 1
105 66.6669921875 m 2
 105 733.333007812 l 2
 105 773.686523438 143.053710938 800 171.666992188 800 c 2
 338.333007812 800 l 2
 440.278320312 800 542.604492188 760.842773438 620.473632812 682.973632812 c 0
 698.505859375 604.94140625 737.521484375 502.470703125 737.521484375 400 c 0
 737.521484375 297.529296875 698.505859375 195.05859375 620.473632812 117.026367188 c 0
 542.279296875 38.8310546875 438.569335938 0 337.5 0 c 2
 171.666992188 0 l 2
 131.313476562 0 105 38.0537109375 105 66.6669921875 c 2
EndSplineSet
Validated: 1
EndChar

StartChar: e
Encoding: 101 101 67
Width: 668
VWidth: 66
Flags: W
HStem: 0 133.333<238.333 587.495> 333.333 133.334<238.333 520.828> 666.667 133.333<238.333 586.502>
VStem: 105 133.333<133.333 333.333 466.667 666.667>
CounterMasks: 1 e0
LayerCount: 2
Back
Fore
SplineSet
605 733.333007812 m 0
 605 697.045898438 574.905273438 666.666992188 538.333007812 666.666992188 c 2
 238.333007812 666.666992188 l 1
 238.333007812 466.666992188 l 1
 471.666992188 466.666992188 l 2
 507.954101562 466.666992188 538.333007812 436.572265625 538.333007812 400 c 0
 538.333007812 363.427734375 507.954101562 333.333007812 471.666992188 333.333007812 c 2
 238.333007812 333.333007812 l 1
 238.333007812 133.333007812 l 1
 538.333007812 133.333007812 l 2
 574.62109375 133.333007812 605 103.239257812 605 66.6669921875 c 0
 605 30.0947265625 574.62109375 0 538.333007812 0 c 2
 171.666992188 0 l 2
 143.053710938 0 105 26.3134765625 105 66.6669921875 c 2
 105 400 l 1
 105 733.333007812 l 2
 105 761.946289062 131.313476562 800 171.666992188 800 c 2
 538.333007812 800 l 2
 574.905273438 800 605 769.62109375 605 733.333007812 c 0
EndSplineSet
Validated: 1
EndChar

StartChar: f
Encoding: 102 102 68
Width: 626
VWidth: 66
Flags: W
HStem: 0 21G<153.381 189.953> 0 21G<153.381 189.953> 333.333 133.334<238.333 520.828> 666.667 133.333<238.333 586.502>
VStem: 105 133.333<17.5049 333.333 466.667 666.667>
LayerCount: 2
Back
Fore
SplineSet
605 733.333007812 m 0xb8
 605 697.045898438 574.905273438 666.666992188 538.333007812 666.666992188 c 2
 238.333007812 666.666992188 l 1
 238.333007812 466.666992188 l 1
 471.666992188 466.666992188 l 2
 507.954101562 466.666992188 538.333007812 436.572265625 538.333007812 400 c 0
 538.333007812 363.427734375 507.954101562 333.333007812 471.666992188 333.333007812 c 2
 238.333007812 333.333007812 l 1
 238.333007812 66.6669921875 l 2
 238.333007812 30.37890625 208.239257812 0 171.666992188 0 c 0
 135.094726562 0 105 30.37890625 105 66.6669921875 c 2
 105 400 l 1
 105 733.333007812 l 2
 105 761.946289062 131.313476562 800 171.666992188 800 c 2
 538.333007812 800 l 2
 574.905273438 800 605 769.62109375 605 733.333007812 c 0xb8
EndSplineSet
Validated: 1
EndChar

StartChar: g
Encoding: 103 103 69
Width: 862
VWidth: 66
Flags: W
HStem: 0 133.333<367.751 576.074> 312.5 133.333<475.165 640.833> 666.667 133.333<365.771 576.258>
VStem: 71.667 133.333<296.084 503.916> 456.667 317.5<330.005 426.108> 640.833 133.334<177.754 312.5>
LayerCount: 2
Back
Fore
SplineSet
456.666992188 379.166992188 m 0xf8
 456.666992188 415.454101562 486.760742188 445.833007812 523.333007812 445.833007812 c 2
 707.5 445.833007812 l 2
 747.853515625 445.833007812 774.166992188 407.779296875 774.166992188 379.166992188 c 2xf8
 774.166992188 164.166992188 l 2
 774.166992188 146.153320312 765.0234375 127.409179688 754.640625 117.026367188 c 0
 676.594726562 38.98046875 573.5234375 0 471.666992188 0 c 0
 369.810546875 0 266.739257812 38.98046875 188.693359375 117.026367188 c 0
 110.646484375 195.072265625 71.6669921875 298.143554688 71.6669921875 400 c 0
 71.6669921875 501.856445312 110.646484375 604.927734375 188.693359375 682.973632812 c 0
 266.561523438 760.842773438 368.888671875 800 470.833007812 800 c 0
 572.229492188 800 675.487304688 762.110351562 753.860351562 683.836914062 c 0
 766.734375 670.979492188 773.2109375 653.818359375 773.2109375 636.640625 c 0
 773.2109375 619.55859375 766.806640625 602.458984375 753.920898438 589.556640625 c 0
 741.013671875 576.6328125 723.885742188 570.206054688 706.7734375 570.206054688 c 0
 689.625 570.206054688 672.491210938 576.661132812 659.639648438 589.49609375 c 0
 607.846679688 641.223632812 539.436523438 666.666992188 470.833007812 666.666992188 c 0
 402.778320312 666.666992188 335.104492188 640.82421875 282.973632812 588.693359375 c 0
 231.01953125 536.739257812 205 468.143554688 205 400 c 0
 205 331.856445312 231.01953125 263.260742188 282.973632812 211.306640625 c 0
 334.927734375 159.353515625 403.5234375 133.333007812 471.666992188 133.333007812 c 0
 531.573242188 133.333007812 591.270507812 153.11328125 640.833007812 193.61328125 c 1
 640.833007812 312.5 l 1xf4
 523.333007812 312.5 l 2
 486.760742188 312.5 456.666992188 342.87890625 456.666992188 379.166992188 c 0xf8
EndSplineSet
Validated: 1
EndChar

StartChar: h
Encoding: 104 104 70
Width: 743
VWidth: 66
Flags: W
HStem: 0 21G<153.523 189.811 553.523 589.811> 0 21G<153.523 189.811 553.523 589.811> 333.333 133.334<238.333 505> 780 20G<153.381 189.953 553.381 589.953> 780 20G<153.381 189.953 553.381 589.953>
VStem: 105 133.333<18.4985 333.333 466.667 782.495> 505 133.333<18.4985 333.333 466.667 782.495>
LayerCount: 2
Back
Fore
SplineSet
171.666992188 0 m 0xb6
 135.37890625 0 105 30.0947265625 105 66.6669921875 c 2
 105 400 l 1
 105 733.333007812 l 2
 105 769.62109375 135.094726562 800 171.666992188 800 c 0
 208.239257812 800 238.333007812 769.62109375 238.333007812 733.333007812 c 2
 238.333007812 466.666992188 l 1
 505 466.666992188 l 1
 505 733.333007812 l 2
 505 769.62109375 535.094726562 800 571.666992188 800 c 0
 608.239257812 800 638.333007812 769.62109375 638.333007812 733.333007812 c 2
 638.333007812 66.6669921875 l 2
 638.333007812 30.0947265625 607.954101562 0 571.666992188 0 c 0
 535.37890625 0 505 30.0947265625 505 66.6669921875 c 2
 505 333.333007812 l 1
 238.333007812 333.333007812 l 1
 238.333007812 66.6669921875 l 2
 238.333007812 30.0947265625 207.954101562 0 171.666992188 0 c 0xb6
EndSplineSet
Validated: 1
EndChar

StartChar: i
Encoding: 105 105 71
Width: 363
VWidth: 66
Flags: W
HStem: 0 21G<163.381 199.953> 0 21G<163.381 199.953> 780 20G<163.523 199.811> 780 20G<163.523 199.811>
VStem: 115 133.333<17.5049 781.502>
LayerCount: 2
Back
Fore
SplineSet
181.666992188 800 m 0xa8
 217.954101562 800 248.333007812 769.905273438 248.333007812 733.333007812 c 2
 248.333007812 66.6669921875 l 2
 248.333007812 30.37890625 218.239257812 0 181.666992188 0 c 0
 145.094726562 0 115 30.37890625 115 66.6669921875 c 2
 115 733.333007812 l 2
 115 769.905273438 145.37890625 800 181.666992188 800 c 0xa8
EndSplineSet
Validated: 1
EndChar

StartChar: j
Encoding: 106 106 72
Width: 519
VWidth: 66
Flags: W
HStem: 0 133.333<179.356 279.255> 780 20G<345.881 382.453> 780 20G<345.881 382.453>
VStem: 297.5 133.333<151.982 782.495>
LayerCount: 2
Back
Fore
SplineSet
79.1298828125 208.942382812 m 0xd0
 87.3876953125 212.419921875 96.0263671875 214.065429688 104.56640625 214.065429688 c 0
 130.614257812 214.065429688 155.754882812 198.75390625 166.442382812 173.370117188 c 0
 169.586914062 165.901367188 172.895507812 160.87890625 180.494140625 153.786132812 c 0
 193.958007812 140.322265625 210.387695312 133.333007812 229.166992188 133.333007812 c 0
 267.512695312 133.333007812 297.5 163.321289062 297.5 201.666992188 c 2
 297.5 733.333007812 l 2
 297.5 769.62109375 327.594726562 800 364.166992188 800 c 0
 400.739257812 800 430.833007812 769.62109375 430.833007812 733.333007812 c 2
 430.833007812 201.666992188 l 2
 430.833007812 90.0126953125 340.821289062 0 229.166992188 0 c 0
 174.685546875 0 124.315429688 21.84765625 87.8388671875 57.884765625 c 0
 70.5068359375 74.279296875 53.78125 97.34765625 43.5576171875 121.629882812 c 0
 40.068359375 129.916015625 38.423828125 138.552734375 38.423828125 147.077148438 c 0
 38.423828125 173.23046875 53.9072265625 198.322265625 79.1298828125 208.942382812 c 0xd0
EndSplineSet
Validated: 1
EndChar

StartChar: k
Encoding: 107 107 73
Width: 676
VWidth: 66
Flags: W
HStem: 0 21.2061G<153.381 189.953 546.49 563.62> 0 21.2061G<153.381 189.953 546.49 563.62> 780 20G<153.523 189.811 546.473 563.604> 780 20G<153.523 189.811 546.473 563.604>
VStem: 105 133.333<17.5049 286.383 513.617 781.502>
LayerCount: 2
Back
Fore
SplineSet
602.374023438 780.23828125 m 0xa8
 615.080078125 767.405273438 621.459960938 750.3671875 621.459960938 733.317382812 c 0
 621.459960938 716.107421875 614.959960938 698.884765625 601.905273438 685.958984375 c 2
 313.086914062 400 l 1
 601.905273438 114.041015625 l 2
 614.909179688 101.166015625 621.4609375 83.91015625 621.4609375 66.6328125 c 0
 621.4609375 49.6494140625 615.129882812 32.64453125 602.374023438 19.76171875 c 0
 589.448242188 6.7060546875 572.224609375 0.2060546875 555.014648438 0.2060546875 c 0
 537.96484375 0.2060546875 520.927734375 6.5859375 508.094726562 19.2919921875 c 2
 238.333007812 286.3828125 l 1
 238.333007812 66.6669921875 l 2
 238.333007812 30.37890625 208.239257812 0 171.666992188 0 c 0
 135.094726562 0 105 30.37890625 105 66.6669921875 c 2
 105 733.333007812 l 2
 105 769.905273438 135.37890625 800 171.666992188 800 c 0
 207.954101562 800 238.333007812 769.905273438 238.333007812 733.333007812 c 2
 238.333007812 513.6171875 l 1
 508.094726562 780.708007812 l 2
 520.977539062 793.463867188 537.981445312 799.793945312 554.96484375 799.793945312 c 0
 572.2421875 799.793945312 589.499023438 793.2421875 602.374023438 780.23828125 c 0xa8
EndSplineSet
Validated: 1
EndChar

StartChar: l
Encoding: 108 108 74
Width: 676
VWidth: 66
Flags: W
HStem: 0 133.333<238.333 620.828> 780 20G<153.523 189.811> 780 20G<153.523 189.811>
VStem: 105 133.333<133.333 781.502>
LayerCount: 2
Back
Fore
SplineSet
171.666992188 800 m 0xd0
 207.954101562 800 238.333007812 769.905273438 238.333007812 733.333007812 c 2
 238.333007812 133.333007812 l 1
 571.666992188 133.333007812 l 2
 607.954101562 133.333007812 638.333007812 103.239257812 638.333007812 66.6669921875 c 0
 638.333007812 30.0947265625 607.954101562 0 571.666992188 0 c 2
 171.666992188 0 l 2
 143.053710938 0 105 26.3134765625 105 66.6669921875 c 2
 105 733.333007812 l 2
 105 769.905273438 135.37890625 800 171.666992188 800 c 0xd0
EndSplineSet
Validated: 1
EndChar

StartChar: m
Encoding: 109 109 75
Width: 1011
VWidth: 66
Flags: W
HStem: 0 21G<153.381 189.953 821.714 858.286> 0 21G<153.381 189.953 821.714 858.286> 780 20G<153.267 184.877 833.78 842.623> 780 20G<153.267 184.877 833.78 842.623>
VStem: 105 133.333<17.5049 452.186 762.304 782.51> 773.333 133.334<17.5049 450.928>
LayerCount: 2
Back
Fore
SplineSet
105 733.333007812 m 2xac
 105 770.133789062 134.866210938 800 171.666992188 800 c 0
 198.086914062 800 220.932617188 784.606445312 231.71875 762.303710938 c 2
 506.517578125 215.440429688 l 1
 780.37109375 763.147460938 l 2
 786.220703125 774.845703125 795.174804688 784.065429688 805.749023438 790.340820312 c 0
 815.814453125 796.462890625 827.559570312 800 840 800 c 0
 845.24609375 800 850.369140625 799.37109375 855.294921875 798.184570312 c 0
 860.240234375 797.04296875 865.11328125 795.3125 869.814453125 792.961914062 c 0
 880.930664062 787.404296875 889.84765625 778.998046875 896.111328125 769.034179688 c 0
 902.774414062 758.685546875 906.666992188 746.424804688 906.666992188 733.333007812 c 2
 906.666992188 66.6669921875 l 2
 906.666992188 30.37890625 876.572265625 0 840 0 c 0
 803.427734375 0 773.333007812 30.37890625 773.333007812 66.6669921875 c 2
 773.333007812 450.927734375 l 1
 566.294921875 36.8525390625 l 2
 563.149414062 30.560546875 559.090820312 24.9736328125 554.354492188 20.173828125 c 0
 549.334960938 14.9638671875 543.385742188 10.5078125 536.599609375 7.09765625 c 0
 527.047851562 2.2978515625 516.82421875 0.0654296875 506.731445312 0.1201171875 c 0
 496.639648438 0.0458984375 486.413085938 2.2578125 476.852539062 7.0380859375 c 0
 470.065429688 10.431640625 464.112304688 14.8701171875 459.084960938 20.064453125 c 0
 454.333007812 24.8583984375 450.258789062 30.4423828125 447.09765625 36.7333984375 c 2
 238.333007812 452.185546875 l 1
 238.333007812 66.6669921875 l 2
 238.333007812 30.37890625 208.239257812 0 171.666992188 0 c 0
 135.094726562 0 105 30.37890625 105 66.6669921875 c 2
 105 733.333007812 l 2xac
EndSplineSet
Validated: 1
EndChar

StartChar: n
Encoding: 110 110 76
Width: 809
VWidth: 66
Flags: W
HStem: 0 21G<153.523 189.811 632.659 641.808> 0 21G<153.523 189.811 632.659 641.808> 780 20G<168.06 177.19 620.189 656.477> 780 20G<168.06 177.19 620.189 656.477>
VStem: 105 133.333<18.4985 521.842> 571.667 133.333<278.158 781.502>
LayerCount: 2
Back
Fore
SplineSet
638.333007812 800 m 0xac
 674.62109375 800 705 769.905273438 705 733.333007812 c 2
 705 66.6669921875 l 2
 705 55.9560546875 702.377929688 45.759765625 697.741210938 36.70703125 c 0
 692.979492188 27.1171875 685.868164062 18.5634765625 676.564453125 12.05078125 c 0
 670.846679688 8.0478515625 664.686523438 5.0869140625 658.318359375 3.123046875 c 0
 651.998046875 1.0966796875 645.282226562 0 638.333007812 0 c 0
 626.985351562 0 616.260742188 2.9248046875 606.865234375 8.0439453125 c 0
 597.8671875 12.80078125 589.865234375 19.654296875 583.717773438 28.435546875 c 2
 238.333007812 521.841796875 l 1
 238.333007812 66.6669921875 l 2
 238.333007812 30.0947265625 207.954101562 0 171.666992188 0 c 0
 135.37890625 0 105 30.0947265625 105 66.6669921875 c 2
 105 733.333007812 l 2
 105 744.34375 107.770507812 754.810546875 112.65234375 764.048828125 c 0
 117.421875 773.353515625 124.41015625 781.630859375 133.435546875 787.94921875 c 0
 138.923828125 791.791015625 144.8359375 794.676757812 150.958984375 796.640625 c 0
 157.489257812 798.817382812 164.452148438 800 171.666992188 800 c 0
 182.713867188 800 193.168945312 797.228515625 202.3828125 792.359375 c 0
 211.666015625 787.602539062 219.94140625 780.622070312 226.282226562 771.564453125 c 2
 571.666992188 278.158203125 l 1
 571.666992188 733.333007812 l 2
 571.666992188 769.905273438 602.045898438 800 638.333007812 800 c 0xac
EndSplineSet
Validated: 1
EndChar

StartChar: o
Encoding: 111 111 77
Width: 943
VWidth: 66
Flags: W
HStem: 0 133.333<369.756 573.577> 666.667 133.333<369.756 573.577>
VStem: 71.667 133.333<298.09 501.91> 738.333 133.334<298.09 501.91>
LayerCount: 2
Back
Fore
SplineSet
471.666992188 133.333007812 m 0
 619.034179688 133.333007812 738.333007812 252.6328125 738.333007812 400 c 0
 738.333007812 547.3671875 619.034179688 666.666992188 471.666992188 666.666992188 c 0
 324.298828125 666.666992188 205 547.3671875 205 400 c 0
 205 252.6328125 324.298828125 133.333007812 471.666992188 133.333007812 c 0
471.666992188 0 m 0
 250.701171875 0 71.6669921875 179.034179688 71.6669921875 400 c 0
 71.6669921875 620.965820312 250.701171875 800 471.666992188 800 c 0
 692.6328125 800 871.666992188 620.965820312 871.666992188 400 c 0
 871.666992188 179.034179688 692.6328125 0 471.666992188 0 c 0
EndSplineSet
Validated: 1
EndChar

StartChar: p
Encoding: 112 112 78
Width: 691
VWidth: 66
Flags: W
HStem: 0 21G<153.381 189.953> 0 21G<153.381 189.953> 266.667 133.333<238.333 441.904> 666.667 133.333<238.333 438.491>
VStem: 105 133.333<17.5049 266.667 400 666.667> 503.339 133.334<460.571 605.466>
LayerCount: 2
Back
Fore
SplineSet
238.333007812 266.666992188 m 1xbc
 238.333007812 66.6669921875 l 2
 238.333007812 30.37890625 208.239257812 0 171.666992188 0 c 0
 135.094726562 0 105 30.37890625 105 66.6669921875 c 2
 105 733.333007812 l 2
 105 761.946289062 131.313476562 800 171.666992188 800 c 2
 371.916992188 800 l 2
 519.357421875 798.890625 636.672851562 679.713867188 636.672851562 533.229492188 c 0
 636.672851562 385.161132812 516.940429688 266.666992188 370 266.666992188 c 2
 238.333007812 266.666992188 l 1xbc
238.333007812 400 m 1
 370 400 l 2
 443.72265625 400 503.338867188 459.127929688 503.338867188 533.21875 c 0
 503.338867188 607.168945312 444.598632812 665.84375 371.418945312 666.666992188 c 2
 238.333007812 666.666992188 l 1
 238.333007812 400 l 1
EndSplineSet
Validated: 1
EndChar

StartChar: q
Encoding: 113 113 79
Width: 946
VWidth: 66
Flags: W
HStem: 0 133.333<371.224 578.246> 0.206055 21G<798.109 815.24> 666.667 133.333<371.224 575.442>
VStem: 71.667 133.333<298.109 501.891> 741.667 133.333<296.463 501.891>
LayerCount: 2
Back
Fore
SplineSet
473.333007812 0 m 0xb8
 252.684570312 0 71.6669921875 178.587890625 71.6669921875 400 c 0
 71.6669921875 621.412109375 252.684570312 800 473.333007812 800 c 0
 693.982421875 800 875 621.412109375 875 400 c 0
 875 313.208007812 847.184570312 232.99609375 800.071289062 167.541992188 c 1
 853.806640625 113.806640625 l 2
 866.662109375 100.952148438 873.126953125 83.8056640625 873.126953125 66.6416015625 c 0
 873.126953125 49.544921875 866.711914062 32.431640625 853.806640625 19.5263671875 c 0
 840.901367188 6.62109375 823.788085938 0.2060546875 806.69140625 0.2060546875 c 0x78
 789.52734375 0.2060546875 772.380859375 6.671875 759.526367188 19.5263671875 c 2
 705.370117188 73.6826171875 l 1
 639.6953125 27.259765625 559.5390625 0 473.333007812 0 c 0xb8
564.526367188 308.806640625 m 0
 577.380859375 321.662109375 594.52734375 328.126953125 611.69140625 328.126953125 c 0
 628.788085938 328.126953125 645.901367188 321.711914062 658.806640625 308.806640625 c 2
 703.845703125 263.767578125 l 1
 727.850585938 303.674804688 741.666992188 350.28125 741.666992188 400 c 0
 741.666992188 546.920898438 621.017578125 666.666992188 473.333007812 666.666992188 c 0
 325.6484375 666.666992188 205 546.920898438 205 400 c 0
 205 253.079101562 325.6484375 133.333007812 473.333007812 133.333007812 c 0xb8
 522.7421875 133.333007812 569.125 146.736328125 608.9765625 170.076171875 c 1
 564.526367188 214.526367188 l 2
 551.62109375 227.431640625 545.206054688 244.544921875 545.206054688 261.641601562 c 0
 545.206054688 278.805664062 551.671875 295.952148438 564.526367188 308.806640625 c 0
EndSplineSet
Validated: 1
EndChar

StartChar: r
Encoding: 114 114 80
Width: 643
VWidth: 66
Flags: W
HStem: 0 21G<153.516 189.803 476.515 493.749> 0 21G<153.516 189.803 476.515 493.749> 666.667 133.333<238.326 398.431>
VStem: 104.993 133.333<18.4985 333.333 466.667 666.667> 438.334 133.332<506.141 626.563>
LayerCount: 2
Back
Fore
SplineSet
238.326171875 333.333007812 m 1xb8
 238.326171875 66.6669921875 l 2
 238.326171875 30.0947265625 207.947265625 0 171.659179688 0 c 0
 135.372070312 0 104.993164062 30.0947265625 104.993164062 66.6669921875 c 2
 104.993164062 733.333007812 l 2
 104.993164062 773.686523438 143.045898438 800 171.659179688 800 c 2
 339.993164062 800 l 2
 469.557617188 800 571.666015625 694.227539062 571.666015625 566.571289062 c 0
 571.666015625 466.106445312 509.00390625 381.75 421.327148438 348.475585938 c 1
 547.89453125 96.599609375 l 2
 552.637695312 87.1611328125 554.873046875 77.0673828125 554.873046875 67.0927734375 c 0
 554.873046875 42.5302734375 541.318359375 18.6845703125 518.259765625 7.09765625 c 0
 508.8515625 2.3701171875 498.75 0.1298828125 488.748046875 0.1298828125 c 0
 464.28125 0.1298828125 440.413085938 13.537109375 428.756835938 36.7333984375 c 2
 279.715820312 333.333007812 l 1
 238.326171875 333.333007812 l 1xb8
238.326171875 466.666992188 m 1
 338.326171875 466.666992188 l 2
 393.778320312 466.666992188 438.333984375 510.810546875 438.333984375 566.576171875 c 0
 438.333984375 622.489257812 394.376953125 666.666992188 339.993164062 666.666992188 c 2
 238.326171875 666.666992188 l 1
 238.326171875 466.666992188 l 1
EndSplineSet
Validated: 1
EndChar

StartChar: s
Encoding: 115 115 81
Width: 593
VWidth: 66
Flags: W
HStem: 0 133.333<229.239 349.821> 666.667 133.333<240.685 338.344>
VStem: 71.7559 128.116<161.311 216.483> 86.667 133.333<551.757 648.132> 388.333 133.334<172.457 291.372>
LayerCount: 2
Back
Fore
SplineSet
112.692382812 229.038085938 m 0xe8
 120.883789062 232.451171875 129.440429688 234.067382812 137.900390625 234.067382812 c 0
 164.036132812 234.067382812 189.245117188 218.64453125 199.872070312 193.140625 c 0xe8
 205.00390625 180.823242188 211.62890625 170.985351562 220.473632812 162.140625 c 0
 238.27734375 144.336914062 262.965820312 133.333007812 290.833007812 133.333007812 c 0
 344.452148438 133.333007812 388.333007812 177.274414062 388.333007812 231.666992188 c 0
 388.333007812 260.822265625 378.061523438 285.482421875 356.607421875 301.094726562 c 2
 169.905273438 436.954101562 l 2
 120.084960938 473.309570312 86.6669921875 535.388671875 86.6669921875 598.333007812 c 0
 86.6669921875 709.081054688 176.314453125 800 288.333007812 800 c 0
 343.115234375 800 394.489257812 776.864257812 429.661132812 742.115234375 c 0
 448.631835938 724.170898438 463.612304688 702.798828125 473.909179688 678.64453125 c 0
 477.463867188 670.306640625 479.146484375 661.571289062 479.146484375 652.93359375 c 0
 479.146484375 626.991210938 463.966796875 601.93359375 438.727539062 591.173828125 c 0
 430.361328125 587.607421875 421.627929688 585.92578125 413.006835938 585.92578125 c 0
 386.9609375 585.92578125 361.94921875 601.275390625 351.256835938 626.35546875 c 0
 347.970703125 634.064453125 344.627929688 639.098632812 337.005859375 646.213867188 c 0
 323.545898438 659.672851562 307.108398438 666.666992188 288.333007812 666.666992188 c 0
 250.352539062 666.666992188 220 635.918945312 220 598.333007812 c 0xd8
 220 586.278320312 236.58203125 553.357421875 248.428710938 544.711914062 c 2
 435.059570312 408.905273438 l 2
 498.21875 362.9453125 521.666992188 292.510742188 521.666992188 231.666992188 c 0
 521.666992188 104.391601562 418.881835938 0 290.833007812 0 c 0
 227.034179688 0 168.389648438 25.6630859375 126.193359375 67.859375 c 0
 105.038085938 89.0146484375 88.3291015625 114.176757812 76.794921875 141.859375 c 0
 73.3701171875 150.078125 71.755859375 158.634765625 71.755859375 167.079101562 c 0
 71.755859375 193.321289062 87.3505859375 218.479492188 112.692382812 229.038085938 c 0xe8
EndSplineSet
Validated: 1
EndChar

StartChar: t
Encoding: 116 116 82
Width: 676
VWidth: 66
Flags: W
HStem: 0 21G<320.189 356.477> 0 21G<320.189 356.477> 666.667 133.333<23.4985 271.667 405 654.162>
VStem: 271.667 133.333<18.4985 666.667>
LayerCount: 2
Back
Fore
SplineSet
5 733.333007812 m 0xb0
 5 769.62109375 35.0947265625 800 71.6669921875 800 c 2
 338.333007812 800 l 1
 605 800 l 2
 641.288085938 800 671.666992188 769.905273438 671.666992188 733.333007812 c 0
 671.666992188 696.760742188 641.288085938 666.666992188 605 666.666992188 c 2
 405 666.666992188 l 1
 405 66.6669921875 l 2
 405 30.0947265625 374.62109375 0 338.333007812 0 c 0
 302.045898438 0 271.666992188 30.0947265625 271.666992188 66.6669921875 c 2
 271.666992188 666.666992188 l 1
 71.6669921875 666.666992188 l 2
 35.0947265625 666.666992188 5 697.045898438 5 733.333007812 c 0xb0
EndSplineSet
Validated: 1
EndChar

StartChar: u
Encoding: 117 117 83
Width: 843
VWidth: 66
Flags: W
HStem: 0 133.333<330.424 512.91> 780 20G<136.714 173.286 670.189 706.477> 780 20G<136.714 173.286 670.189 706.477>
VStem: 88.333 133.334<242.198 782.495> 621.667 133.333<242.162 781.502>
LayerCount: 2
Back
Fore
SplineSet
688.333007812 800 m 0xd8
 724.62109375 800 755 769.905273438 755 733.333007812 c 2
 755 333.333007812 l 2
 755 149.063476562 605.936523438 0 421.666992188 0 c 0
 237.377929688 0 88.3330078125 149.153320312 88.3330078125 333.333007812 c 2
 88.3330078125 733.333007812 l 2
 88.3330078125 769.62109375 118.427734375 800 155 800 c 0
 191.572265625 800 221.666992188 769.62109375 221.666992188 733.333007812 c 2
 221.666992188 333.333007812 l 2
 221.666992188 222.684570312 310.955078125 133.333007812 421.666992188 133.333007812 c 0
 532.397460938 133.333007812 621.666992188 222.602539062 621.666992188 333.333007812 c 2
 621.666992188 733.333007812 l 2
 621.666992188 769.905273438 652.045898438 800 688.333007812 800 c 0xd8
EndSplineSet
Validated: 1
EndChar

StartChar: v
Encoding: 118 118 84
Width: 709
VWidth: 66
Flags: W
HStem: 779.916 20G<100.736 118.075 591.851 609.24> 779.916 20G<100.736 118.075 591.851 609.24>
LayerCount: 2
Back
Fore
SplineSet
81.591796875 795.754882812 m 0x80
 89.1201171875 798.578125 96.89453125 799.916015625 104.578125 799.916015625 c 0
 131.571289062 799.916015625 157.42578125 783.3984375 167.421875 756.741210938 c 2
 355 256.533203125 l 1
 542.578125 756.741210938 l 2
 552.508789062 783.223632812 578.296875 799.92578125 605.404296875 799.92578125 c 0
 613.076171875 799.92578125 620.854492188 798.587890625 628.408203125 795.754882812 c 0
 655.065429688 785.758789062 671.583007812 759.904296875 671.583007812 732.91015625 c 0
 671.583007812 725.227539062 670.245117188 717.452148438 667.421875 709.924804688 c 2
 417.421875 43.2587890625 l 2
 402.341796875 3.0458984375 383.444335938 -10.3583984375 364.948242188 -10.3583984375 c 0
 327.958007812 -10.3583984375 292.578125 43.2587890625 292.578125 43.2587890625 c 1
 42.578125 709.924804688 l 2
 39.7451171875 717.478515625 38.4072265625 725.256835938 38.4072265625 732.928710938 c 0
 38.4072265625 760.036132812 55.109375 785.82421875 81.591796875 795.754882812 c 0x80
EndSplineSet
Validated: 1
EndChar

StartChar: w
Encoding: 119 119 85
Width: 1021
VWidth: 66
Flags: W
HStem: 779.942 20G<101.462 118.886 902.701 920.187> 779.942 20G<101.462 118.886 902.701 920.187>
VStem: 38.3828 130.406<729.664 782.073> 852.9 130.375<729.832 782.022>
LayerCount: 2
Back
Fore
SplineSet
85.6240234375 797.122070312 m 0xb0
 91.9140625 799.032226562 98.3056640625 799.942382812 104.618164062 799.942382812 c 0
 133.153320312 799.942382812 160.084960938 781.364257812 168.7890625 752.708984375 c 2
 307.630859375 295.616210938 l 1
 447.06640625 752.782226562 l 2
 450.34765625 763.5390625 456.227539062 772.909179688 463.821289062 780.40234375 c 0
 471.322265625 787.986328125 480.698242188 793.854492188 491.45703125 797.122070312 c 0
 497.641601562 799.000976562 503.924804688 799.911132812 510.134765625 799.94140625 c 0
 516.809570312 800.047851562 523.594726562 799.139648438 530.282226562 797.099609375 c 0
 541.072265625 793.80859375 550.4296875 787.932617188 557.901367188 780.361328125 c 0
 565.470703125 772.87890625 571.341796875 763.509765625 574.622070312 752.708984375 c 2
 713.463867188 295.616210938 l 1
 852.900390625 752.782226562 l 2
 861.568359375 781.204101562 888.3828125 799.94921875 917.01953125 799.94921875 c 0
 923.354492188 799.94921875 929.778320312 799.032226562 936.115234375 797.099609375 c 0
 964.734375 788.37109375 983.275390625 761.458007812 983.275390625 732.950195312 c 0
 983.275390625 726.61328125 982.358398438 720.197265625 980.43359375 713.884765625 c 2
 777.099609375 47.2177734375 l 2
 773.80859375 36.427734375 767.932617188 27.0703125 760.361328125 19.5986328125 c 0
 752.87890625 12.029296875 743.509765625 6.158203125 732.708984375 2.8779296875 c 0
 726.0078125 0.841796875 719.209960938 -0.05859375 712.5234375 0.0595703125 c 0
 706.325195312 0.1005859375 700.055664062 1.0185546875 693.884765625 2.900390625 c 0
 683.127929688 6.1806640625 673.7578125 12.060546875 666.264648438 19.654296875 c 0
 658.680664062 27.1552734375 652.8125 36.5322265625 649.544921875 47.291015625 c 2
 510.702148438 504.385742188 l 1
 371.266601562 47.2177734375 l 2
 367.973632812 36.419921875 362.091796875 27.056640625 354.51171875 19.58203125 c 0
 347.032226562 12.0205078125 337.668945312 6.15625 326.875976562 2.8779296875 c 0
 320.174804688 0.841796875 313.376953125 -0.05859375 306.69140625 0.0595703125 c 0
 300.4921875 0.1005859375 294.221679688 1.0185546875 288.05078125 2.900390625 c 0
 277.293945312 6.1806640625 267.923828125 12.060546875 260.430664062 19.6552734375 c 0
 252.846679688 27.15625 246.978515625 36.5322265625 243.7109375 47.291015625 c 2
 41.2109375 713.95703125 l 2
 39.29296875 720.270507812 38.3828125 726.669921875 38.3828125 732.98046875 c 0
 38.3828125 761.645507812 57.1669921875 788.478515625 85.6240234375 797.122070312 c 0xb0
EndSplineSet
Validated: 1
EndChar

StartChar: x
Encoding: 120 120 86
Width: 749
VWidth: 66
Flags: W
HStem: 0.174805 20.9912G<148.381 165.546 584.441 601.626> 0.174805 20.9912G<148.381 165.546 584.441 601.626> 779.825 20G<148.381 165.546 584.441 601.626> 779.825 20G<148.381 165.546 584.441 601.626>
LayerCount: 2
Back
Fore
SplineSet
118.27734375 11.0263671875 m 0xa0
 99.056640625 23.7119140625 88.4990234375 45.2021484375 88.4990234375 67.0146484375 c 0
 88.4990234375 79.572265625 91.9990234375 92.2373046875 99.359375 103.389648438 c 2
 295.122070312 400 l 1
 99.359375 696.610351562 l 2
 91.9990234375 707.762695312 88.4990234375 720.427734375 88.4990234375 732.985351562 c 0
 88.4990234375 754.797851562 99.056640625 776.288085938 118.27734375 788.973632812 c 0
 129.39453125 796.310546875 142.080078125 799.825195312 154.681640625 799.825195312 c 0
 176.411132812 799.825195312 197.889648438 789.375976562 210.640625 770.055664062 c 2
 375 521.026367188 l 1
 539.359375 770.055664062 l 2
 552.044921875 789.276367188 573.53515625 799.833984375 595.34765625 799.833984375 c 0
 607.905273438 799.833984375 620.5703125 796.333984375 631.72265625 788.973632812 c 0
 651.041992188 776.22265625 661.4921875 754.744140625 661.4921875 733.014648438 c 0
 661.4921875 720.413085938 657.977539062 707.727539062 650.640625 696.610351562 c 2
 454.877929688 400 l 1
 650.640625 103.389648438 l 2
 657.977539062 92.2724609375 661.4921875 79.5869140625 661.4921875 66.9853515625 c 0
 661.4921875 45.255859375 651.041992188 23.77734375 631.72265625 11.0263671875 c 0
 620.5703125 3.666015625 607.905273438 0.166015625 595.34765625 0.166015625 c 0
 573.53515625 0.166015625 552.044921875 10.7236328125 539.359375 29.9443359375 c 2
 375 278.973632812 l 1
 210.640625 29.9443359375 l 2
 197.889648438 10.6240234375 176.411132812 0.1748046875 154.681640625 0.1748046875 c 0
 142.080078125 0.1748046875 129.39453125 3.689453125 118.27734375 11.0263671875 c 0xa0
EndSplineSet
Validated: 1
EndChar

StartChar: y
Encoding: 121 121 87
Width: 692
VWidth: 66
Flags: W
HStem: 0 21G<327.689 363.977> 0 21G<327.689 363.977> 779.813 20G<97.9673 115.118 577.396 594.56> 779.813 20G<97.9673 115.118 577.396 594.56>
VStem: 279.167 133.333<18.4985 378.376>
LayerCount: 2
Back
Fore
SplineSet
65.95703125 787.37109375 m 0xa8
 77.57421875 795.764648438 91.193359375 799.813476562 104.741210938 799.813476562 c 0
 125.495117188 799.813476562 146.079101562 790.3125 159.038085938 772.375976562 c 2
 345.926757812 513.70703125 l 1
 533.526367188 772.46484375 l 2
 546.428710938 790.260742188 566.998046875 799.8203125 587.79296875 799.8203125 c 0
 601.327148438 799.8203125 614.95703125 795.770507812 626.630859375 787.307617188 c 0
 644.513671875 774.342773438 653.979492188 753.79296875 653.979492188 733.077148438 c 0
 653.979492188 719.493164062 649.909179688 705.836914062 641.473632812 694.202148438 c 2
 412.5 378.375976562 l 1
 412.5 66.6669921875 l 2
 412.5 30.0947265625 382.12109375 0 345.833007812 0 c 0
 309.545898438 0 279.166992188 30.0947265625 279.166992188 66.6669921875 c 2
 279.166992188 378.435546875 l 1
 50.9619140625 694.291015625 l 2
 42.541015625 705.946289062 38.5126953125 719.540039062 38.5126953125 733.038085938 c 0
 38.5126953125 753.87109375 48.1083984375 774.475585938 65.95703125 787.37109375 c 0xa8
EndSplineSet
Validated: 1
EndChar

StartChar: z
Encoding: 122 122 88
Width: 709
VWidth: 66
Flags: W
HStem: 0 133.333<272.746 604.162> 666.667 133.333<106.831 437.255>
LayerCount: 2
Back
Fore
SplineSet
88.3330078125 733.333007812 m 0
 88.3330078125 769.62109375 118.427734375 800 155 800 c 2
 555 800 l 2
 561.131835938 800 567.095703125 799.140625 572.772460938 797.536132812 c 0
 578.47265625 795.991210938 584.03515625 793.658203125 589.299804688 790.5 c 0
 599.19140625 784.565429688 607.005859375 776.330078125 612.4609375 766.848632812 c 0
 618.296875 756.977539062 621.666992188 745.514648438 621.666992188 733.333007812 c 0
 621.666992188 727.169921875 620.8046875 721.19140625 619.196289062 715.508789062 c 0
 617.651367188 709.836914062 615.322265625 704.29296875 612.166015625 699.033203125 c 2
 272.74609375 133.333007812 l 1
 555 133.333007812 l 2
 591.288085938 133.333007812 621.666992188 103.239257812 621.666992188 66.6669921875 c 0
 621.666992188 30.0947265625 591.288085938 0 555 0 c 2
 155 0 l 2
 94.87890625 0 79.19921875 23.1103515625 79.19921875 47.2177734375 c 0
 79.19921875 73.5 97.833984375 100.966796875 97.833984375 100.966796875 c 1
 437.254882812 666.666992188 l 1
 155 666.666992188 l 2
 118.427734375 666.666992188 88.3330078125 697.045898438 88.3330078125 733.333007812 c 0
EndSplineSet
Validated: 1
EndChar

StartChar: underscore
Encoding: 95 95 89
Width: 689
VWidth: 66
Flags: W
HStem: -166.667 133.334<123.498 566.662>
LayerCount: 2
Back
Fore
SplineSet
105 -100 m 0
 105 -63.7119140625 135.094726562 -33.3330078125 171.666992188 -33.3330078125 c 2
 517.5 -33.3330078125 l 2
 553.788085938 -33.3330078125 584.166992188 -63.427734375 584.166992188 -100 c 0
 584.166992188 -136.572265625 553.788085938 -166.666992188 517.5 -166.666992188 c 2
 171.666992188 -166.666992188 l 2
 135.094726562 -166.666992188 105 -136.288085938 105 -100 c 0
EndSplineSet
Validated: 1
EndChar

StartChar: grave
Encoding: 96 96 90
Width: 470
VWidth: 66
Flags: W
HStem: 720.183 222.226
VStem: 105.183 260.476
LayerCount: 2
Back
Fore
SplineSet
117.05078125 914.147460938 m 0
 129.883789062 932.479492188 150.803710938 942.408203125 171.982421875 942.408203125 c 0
 185.147460938 942.408203125 198.412109375 938.571289062 209.897460938 930.532226562 c 2
 337.397460938 841.282226562 l 2
 355.729492188 828.450195312 365.658203125 807.530273438 365.658203125 786.3515625 c 0
 365.658203125 773.186523438 361.822265625 759.920898438 353.782226562 748.435546875 c 0
 340.885742188 730.01171875 319.983398438 720.182617188 298.885742188 720.182617188 c 0
 285.672851562 720.182617188 272.383789062 724.037109375 260.935546875 732.05078125 c 2
 133.435546875 821.30078125 l 2
 115.01171875 834.197265625 105.182617188 855.099609375 105.182617188 876.197265625 c 0
 105.182617188 889.41015625 109.037109375 902.69921875 117.05078125 914.147460938 c 0
EndSplineSet
Validated: 1
EndChar

StartChar: bar
Encoding: 124 124 91
Width: 343
VWidth: 66
Flags: W
HStem: 780 20G<153.523 189.811> 780 20G<153.523 189.811>
VStem: 105 133.333<-149.162 781.502>
LayerCount: 2
Back
Fore
SplineSet
171.666992188 800 m 0xa0
 207.954101562 800 238.333007812 769.905273438 238.333007812 733.333007812 c 2
 238.333007812 -100 l 2
 238.333007812 -136.288085938 208.239257812 -166.666992188 171.666992188 -166.666992188 c 0
 135.094726562 -166.666992188 105 -136.288085938 105 -100 c 2
 105 733.333007812 l 2
 105 769.905273438 135.37890625 800 171.666992188 800 c 0xa0
EndSplineSet
Validated: 1
EndChar

StartChar: braceleft
Encoding: 123 123 92
Width: 488
VWidth: 66
Flags: W
HStem: 0 133.333<313.238 365.001> 666.667 133.333<313.318 366.078>
VStem: 177.583 133.333<132.08 333.333 465.15 667.921>
LayerCount: 2
Back
Fore
SplineSet
383.499023438 66.6669921875 m 0
 383.499023438 30.37890625 353.405273438 0 316.833007812 0 c 0
 239.897460938 0 177.583007812 62.2939453125 177.583007812 139.25 c 2
 177.583007812 327.416992188 l 2
 177.583007812 330.916015625 175.051757812 333.333007812 171.75 333.333007812 c 2
 171.717773438 333.333007812 l 1
 171.666992188 333.333007812 l 2
 135.094726562 333.333007812 105 363.711914062 105 400 c 0
 105 436.288085938 135.094726562 466.666992188 171.666992188 466.666992188 c 0
 175.130859375 466.666992188 177.583007812 469.139648438 177.583007812 472.583007812 c 2
 177.583007812 660.75 l 2
 177.583007812 737.719726562 239.935546875 800 316.916015625 800 c 0
 353.204101562 800 383.583007812 769.905273438 383.583007812 733.333007812 c 0
 383.583007812 696.760742188 353.204101562 666.666992188 316.916015625 666.666992188 c 0
 313.331054688 666.666992188 310.916015625 664.1796875 310.916015625 660.75 c 2
 310.916015625 472.583007812 l 2
 310.916015625 445.983398438 303.470703125 421.134765625 290.55078125 400.005859375 c 1
 303.471679688 378.868164062 310.916015625 354.012695312 310.916015625 327.416992188 c 2
 310.916015625 139.25 l 2
 310.916015625 135.806640625 313.369140625 133.333007812 316.833007812 133.333007812 c 0
 353.405273438 133.333007812 383.499023438 102.954101562 383.499023438 66.6669921875 c 0
EndSplineSet
Validated: 1
EndChar

StartChar: braceright
Encoding: 125 125 93
Width: 488
VWidth: 66
Flags: W
HStem: 0 133.333<123.498 175.258> 666.667 133.333<122.588 175.34>
VStem: 177.5 133.333<132.006 334.923 465.077 667.989>
LayerCount: 2
Back
Fore
SplineSet
105 66.6669921875 m 0
 105 102.954101562 135.094726562 133.333007812 171.666992188 133.333007812 c 0
 174.831054688 133.333007812 177.5 136.015625 177.5 139.166992188 c 2
 177.5 327.5 l 2
 177.5 354.060546875 184.947265625 378.881835938 197.865234375 399.993164062 c 1
 184.947265625 421.110351562 177.5 445.9375 177.5 472.5 c 2
 177.5 660.833007812 l 2
 177.5 664.032226562 174.759765625 666.666992188 171.75 666.666992188 c 0
 135.461914062 666.666992188 105.083007812 696.760742188 105.083007812 733.333007812 c 0
 105.083007812 769.905273438 135.461914062 800 171.75 800 c 0
 248.573242188 800 310.833007812 737.633789062 310.833007812 660.833007812 c 2
 310.833007812 472.5 l 2
 310.833007812 469.348632812 313.502929688 466.666992188 316.666992188 466.666992188 c 2
 316.69921875 466.666992188 l 1
 316.75 466.666992188 l 2
 353.038085938 466.666992188 383.416992188 436.572265625 383.416992188 400 c 0
 383.416992188 363.427734375 353.038085938 333.333007812 316.75 333.333007812 c 0
 313.45703125 333.333007812 310.833007812 330.62890625 310.833007812 327.5 c 2
 310.833007812 139.166992188 l 2
 310.833007812 62.3173828125 248.502929688 0 171.666992188 0 c 0
 135.094726562 0 105 30.37890625 105 66.6669921875 c 0
EndSplineSet
Validated: 1
EndChar

StartChar: asciitilde
Encoding: 126 126 94
Width: 548
VWidth: 66
Flags: W
HStem: 282.137 133.334<296.134 387.516> 324.563 133.334<160.878 252.262>
VStem: 105.29 337.899<324.719 415.184>
LayerCount: 2
Back
Fore
SplineSet
423.869140625 417.157226562 m 0xa0
 436.723632812 404.302734375 443.189453125 387.15625 443.189453125 369.9921875 c 0
 443.189453125 352.895507812 436.774414062 335.782226562 423.869140625 322.876953125 c 0
 396.782226562 295.790039062 360.8828125 282.13671875 325.462890625 282.13671875 c 0xa0
 290.032226562 282.13671875 254.15625 295.77734375 227.057617188 322.876953125 c 0
 225.859375 324.075195312 224.63671875 324.563476562 222.932617188 324.563476562 c 0
 221.217773438 324.563476562 220.043945312 324.037109375 219.029296875 323.016601562 c 0
 206.162109375 310.073242188 188.950195312 303.556640625 171.71875 303.556640625 c 0
 154.689453125 303.556640625 137.640625 309.920898438 124.749023438 322.737304688 c 0
 111.754882812 335.655273438 105.290039062 352.833984375 105.290039062 369.998046875 c 0
 105.290039062 387.09375 111.704101562 404.17578125 124.470703125 417.017578125 c 0
 151.57421875 444.282226562 187.522460938 457.897460938 222.932617188 457.897460938 c 0x60
 258.3515625 457.897460938 294.251953125 444.244140625 321.337890625 417.157226562 c 0
 322.5234375 415.971679688 323.76953125 415.470703125 325.462890625 415.470703125 c 0
 327.166992188 415.470703125 328.389648438 415.958984375 329.587890625 417.157226562 c 0
 342.493164062 430.0625 359.606445312 436.477539062 376.704101562 436.477539062 c 0
 393.8671875 436.477539062 411.014648438 430.01171875 423.869140625 417.157226562 c 0xa0
EndSplineSet
Validated: 1
EndChar

StartChar: acute
Encoding: 180 180 95
Width: 469
VWidth: 66
Flags: W
HStem: 720.184 222.141
VStem: 105.176 259.641
LayerCount: 2
Back
Fore
SplineSet
352.84765625 914.208007812 m 0
 360.927734375 902.729492188 364.81640625 889.381835938 364.81640625 876.110351562 c 0
 364.81640625 855.073242188 355.045898438 834.227539062 336.708007812 821.319335938 c 2
 210.041992188 732.15234375 l 2
 198.563476562 724.072265625 185.215820312 720.18359375 171.944335938 720.18359375 c 0
 150.907226562 720.18359375 130.060546875 729.954101562 117.15234375 748.291992188 c 0
 109.045898438 759.807617188 105.17578125 773.130859375 105.17578125 786.35546875 c 0
 105.17578125 807.47265625 115.044921875 828.3359375 133.291992188 841.180664062 c 2
 259.958007812 930.34765625 l 2
 271.474609375 938.454101562 284.797851562 942.32421875 298.021484375 942.32421875 c 0
 319.138671875 942.32421875 340.002929688 932.455078125 352.84765625 914.208007812 c 0
EndSplineSet
Validated: 1
EndChar

StartChar: exclamdown
Encoding: 161 161 97
Width: 343
VWidth: 66
Flags: W
HStem: 533.334 133.333<122.325 221.008>
VStem: 105 133.333<-115.828 491.502 550.659 649.342>
LayerCount: 2
Back
Fore
SplineSet
171.666015625 510 m 0
 207.954101562 510 238.333007812 479.90625 238.333007812 443.333984375 c 2
 238.333007812 -66.666015625 l 2
 238.333007812 -102.954101562 208.23828125 -133.333007812 171.666015625 -133.333007812 c 0
 135.09375 -133.333007812 105 -102.954101562 105 -66.666015625 c 2
 105 443.333984375 l 2
 105 479.90625 135.37890625 510 171.666015625 510 c 0
238.333007812 600 m 0
 238.333007812 563.200195312 208.466796875 533.333984375 171.666015625 533.333984375 c 0
 134.866210938 533.333984375 105 563.200195312 105 600 c 0
 105 636.80078125 134.866210938 666.666992188 171.666015625 666.666992188 c 0
 208.466796875 666.666992188 238.333007812 636.80078125 238.333007812 600 c 0
EndSplineSet
Validated: 1
EndChar

StartChar: questiondown
Encoding: 191 191 98
Width: 602
VWidth: 66
Flags: W
HStem: -132.5 133.333<259.019 356.527> 533.333 133.334<282.326 381.008>
VStem: 105 133.334<19.3677 117.963> 265 133.334<351.606 492.146 550.659 649.341>
LayerCount: 2
Back
Fore
SplineSet
456.704101562 77.275390625 m 0
 481.926757812 66.6552734375 497.41015625 41.5634765625 497.41015625 15.41015625 c 0
 497.41015625 6.8857421875 495.764648438 -1.751953125 492.276367188 -10.037109375 c 0
 482.415039062 -33.4580078125 466.42578125 -57.1416015625 448.004882812 -74.60546875 c 0
 411.508789062 -110.662109375 361.151367188 -132.5 306.666992188 -132.5 c 0
 194.647460938 -132.5 105 -41.5810546875 105 69.1669921875 c 0
 105 103.016601562 115.522460938 132.90234375 129.227539062 159.170898438 c 0
 129.797851562 160.262695312 130.650390625 161.76953125 131.119140625 162.552734375 c 2
 235.286132812 336.71875 l 2
 261.985351562 381.361328125 264.91796875 403.857421875 264.91796875 441.794921875 c 0
 264.91796875 479.115234375 294.006835938 509.965820312 331.583007812 510 c 0
 368.509765625 510 398.250976562 479.473632812 398.250976562 442.704101562 c 0
 398.250976562 390.041992188 388.083007812 332.432617188 349.71484375 268.28125 c 2
 246.66015625 95.9736328125 l 2
 240.951171875 84.4677734375 238.333984375 71.8037109375 238.333984375 69.1669921875 c 0
 238.333984375 31.5810546875 268.686523438 0.8330078125 306.666992188 0.8330078125 c 0
 325.4453125 0.8330078125 341.875976562 7.822265625 355.338867188 21.2861328125 c 0
 361.813476562 27.3291015625 365.877929688 33.359375 369.391601562 41.7041015625 c 0
 380.079101562 67.0869140625 405.21875 82.3984375 431.266601562 82.3984375 c 0
 439.807617188 82.3984375 448.4453125 80.7529296875 456.704101562 77.275390625 c 0
398.333984375 600 m 0
 398.333984375 563.200195312 368.466796875 533.333007812 331.666992188 533.333007812 c 0
 294.8671875 533.333007812 265 563.200195312 265 600 c 0
 265 636.799804688 294.8671875 666.666992188 331.666992188 666.666992188 c 0
 368.466796875 666.666992188 398.333984375 636.799804688 398.333984375 600 c 0
EndSplineSet
Validated: 1
EndChar

StartChar: dieresis
Encoding: 168 168 99
Width: 471
VWidth: 66
Flags: W
HStem: 720 134.167<123.416 220.259 250.574 347.335>
VStem: 105 260.833<768.604 805.664>
LayerCount: 2
Back
Fore
SplineSet
299.166992188 854.166992188 m 0
 335.454101562 854.166992188 365.833007812 824.072265625 365.833007812 787.5 c 2
 365.833007812 786.666992188 l 2
 365.833007812 750.37890625 335.739257812 720 299.166992188 720 c 0
 269.377929688 720 243.88671875 740.155273438 235.455078125 767.241210938 c 1
 227.1328125 739.907226562 201.7109375 720 171.666992188 720 c 0
 134.866210938 720 105 749.866210938 105 786.666992188 c 2
 105 787.5 l 2
 105 824.072265625 135.37890625 854.166992188 171.666992188 854.166992188 c 0
 201.296875 854.166992188 226.987304688 834.1015625 235.416992188 806.829101562 c 1
 243.845703125 834.1015625 269.536132812 854.166992188 299.166992188 854.166992188 c 0
EndSplineSet
Validated: 1
EndChar

StartChar: guillemotleft
Encoding: 171 171 100
Width: 639
VWidth: 66
Flags: W
LayerCount: 2
Back
Fore
SplineSet
264.546875 258.598632812 m 1
 255.4609375 246.666992188 l 1
 264.545898438 234.736328125 l 2
 263.14453125 242.618164062 264.546875 250.71875 264.546875 258.598632812 c 1
350.388671875 11.9599609375 m 0
 338.505859375 2.912109375 324.331054688 -1.4736328125 310.21875 -1.4736328125 c 0
 290.043945312 -1.4736328125 269.997070312 7.490234375 256.959960938 24.611328125 c 2
 118.626953125 206.278320312 l 2
 109.647460938 218.071289062 105.161132812 232.369140625 105.161132812 246.6640625 c 0
 105.161132812 260.96875 109.653320312 275.270507812 118.626953125 287.0546875 c 2
 256.959960938 468.721679688 l 2
 269.936523438 485.762695312 290.006835938 494.813476562 310.259765625 494.813476562 c 0
 324.318359375 494.813476562 338.465820312 490.451171875 350.388671875 481.373046875 c 0
 367.509765625 468.3359375 376.473632812 448.2890625 376.473632812 428.114257812 c 0
 376.473632812 424.19921875 376.13671875 420.279296875 375.455078125 416.404296875 c 2
 415.29296875 468.721679688 l 2
 428.26953125 485.762695312 448.33984375 494.813476562 468.592773438 494.813476562 c 0
 482.65234375 494.813476562 496.799804688 490.451171875 508.721679688 481.373046875 c 0
 525.842773438 468.3359375 534.807617188 448.2890625 534.807617188 428.114257812 c 0
 534.807617188 414.001953125 530.420898438 399.828125 521.373046875 387.9453125 c 2
 413.793945312 246.666992188 l 1
 521.373046875 105.388671875 l 2
 530.451171875 93.4658203125 534.813476562 79.318359375 534.813476562 65.259765625 c 0
 534.813476562 45.0068359375 525.762695312 24.9365234375 508.721679688 11.9599609375 c 0
 496.838867188 2.912109375 482.6640625 -1.4736328125 468.551757812 -1.4736328125 c 0
 448.376953125 -1.4736328125 428.330078125 7.490234375 415.29296875 24.611328125 c 2
 375.469726562 76.91015625 l 2
 376.145507812 73.052734375 376.48046875 69.15234375 376.48046875 65.259765625 c 0
 376.48046875 45.0068359375 367.4296875 24.9365234375 350.388671875 11.9599609375 c 0
EndSplineSet
Validated: 1
EndChar

StartChar: guillemotright
Encoding: 187 187 101
Width: 639
VWidth: 66
Flags: W
LayerCount: 2
Back
Fore
SplineSet
375.453125 258.598632812 m 1
 375.453125 250.71875 376.85546875 242.618164062 375.454101562 234.736328125 c 2
 384.5390625 246.666992188 l 1
 375.453125 258.598632812 l 1
289.611328125 11.9599609375 m 0
 272.5703125 24.9365234375 263.51953125 45.0068359375 263.51953125 65.259765625 c 0
 263.51953125 69.15234375 263.854492188 73.052734375 264.530273438 76.91015625 c 2
 224.70703125 24.611328125 l 2
 211.669921875 7.490234375 191.623046875 -1.4736328125 171.448242188 -1.4736328125 c 0
 157.3359375 -1.4736328125 143.161132812 2.912109375 131.278320312 11.9599609375 c 0
 114.237304688 24.9365234375 105.186523438 45.0068359375 105.186523438 65.259765625 c 0
 105.186523438 79.318359375 109.548828125 93.4658203125 118.626953125 105.388671875 c 2
 226.206054688 246.666992188 l 1
 118.626953125 387.9453125 l 2
 109.579101562 399.828125 105.192382812 414.001953125 105.192382812 428.114257812 c 0
 105.192382812 448.2890625 114.157226562 468.3359375 131.278320312 481.373046875 c 0
 143.200195312 490.451171875 157.34765625 494.813476562 171.407226562 494.813476562 c 0
 191.66015625 494.813476562 211.73046875 485.762695312 224.70703125 468.721679688 c 2
 264.544921875 416.404296875 l 2
 263.86328125 420.279296875 263.526367188 424.19921875 263.526367188 428.114257812 c 0
 263.526367188 448.2890625 272.490234375 468.3359375 289.611328125 481.373046875 c 0
 301.534179688 490.451171875 315.681640625 494.813476562 329.740234375 494.813476562 c 0
 349.993164062 494.813476562 370.063476562 485.762695312 383.040039062 468.721679688 c 2
 521.373046875 287.0546875 l 2
 530.346679688 275.270507812 534.838867188 260.96875 534.838867188 246.6640625 c 0
 534.838867188 232.369140625 530.352539062 218.071289062 521.373046875 206.278320312 c 2
 383.040039062 24.611328125 l 2
 370.002929688 7.490234375 349.956054688 -1.4736328125 329.78125 -1.4736328125 c 0
 315.668945312 -1.4736328125 301.494140625 2.912109375 289.611328125 11.9599609375 c 0
EndSplineSet
Validated: 1
EndChar

StartChar: uni00AD
Encoding: 173 173 102
Width: 562
VWidth: 66
Flags: W
HStem: 273.333 133.334<123.498 439.995>
VStem: 105 352.5<291.831 388.169>
LayerCount: 2
Back
Fore
SplineSet
105 340 m 0
 105 376.288085938 135.094726562 406.666992188 171.666992188 406.666992188 c 2
 390.833007812 406.666992188 l 2
 427.12109375 406.666992188 457.5 376.572265625 457.5 340 c 0
 457.5 303.427734375 427.12109375 273.333007812 390.833007812 273.333007812 c 2
 171.666992188 273.333007812 l 2
 135.094726562 273.333007812 105 303.711914062 105 340 c 0
EndSplineSet
Validated: 1
EndChar

StartChar: degree
Encoding: 176 176 103
Width: 559
VWidth: 66
Flags: W
HStem: 450 133.333<244.009 315.991> 666.667 133.333<244.009 315.991>
VStem: 105 133.333<589.009 660.991> 321.667 133.333<589.009 660.991>
LayerCount: 2
Back
Fore
SplineSet
238.333007812 625 m 0
 238.333007812 601.7421875 256.735351562 583.333007812 280 583.333007812 c 0
 303.2578125 583.333007812 321.666992188 601.735351562 321.666992188 625 c 0
 321.666992188 648.2578125 303.264648438 666.666992188 280 666.666992188 c 0
 256.7421875 666.666992188 238.333007812 648.264648438 238.333007812 625 c 0
105 625 m 0
 105 721.735351562 183.2578125 800 280 800 c 0
 376.735351562 800 455 721.7421875 455 625 c 0
 455 528.264648438 376.7421875 450 280 450 c 0
 183.264648438 450 105 528.2578125 105 625 c 0
EndSplineSet
Validated: 1
EndChar

StartChar: periodcentered
Encoding: 183 183 104
Width: 343
VWidth: 66
Flags: W
HStem: 333.333 133.334<122.325 221.008>
VStem: 105 133.333<350.659 449.341>
LayerCount: 2
Back
Fore
SplineSet
105 400 m 0
 105 436.799804688 134.866210938 466.666992188 171.666992188 466.666992188 c 0
 208.466796875 466.666992188 238.333007812 436.799804688 238.333007812 400 c 0
 238.333007812 363.200195312 208.466796875 333.333007812 171.666992188 333.333007812 c 0
 134.866210938 333.333007812 105 363.200195312 105 400 c 0
EndSplineSet
Validated: 1
EndChar

StartChar: cedilla
Encoding: 184 184 105
Width: 343
VWidth: 66
Flags: W
HStem: -125.833 259.166<123.498 219.835>
VStem: 105 133.333<-107.335 115.828>
LayerCount: 2
Back
Fore
SplineSet
171.666992188 -125.833007812 m 0
 135.37890625 -125.833007812 105 -95.7392578125 105 -59.1669921875 c 2
 105 66.6669921875 l 2
 105 102.954101562 135.094726562 133.333007812 171.666992188 133.333007812 c 0
 208.239257812 133.333007812 238.333007812 102.954101562 238.333007812 66.6669921875 c 2
 238.333007812 -59.1669921875 l 2
 238.333007812 -95.7392578125 207.954101562 -125.833007812 171.666992188 -125.833007812 c 0
EndSplineSet
Validated: 1
EndChar

StartChar: Agrave
Encoding: 192 192 106
Width: 674
VWidth: 66
Flags: W
HStem: 0.0644531 21.0098G<101.035 118.46 555.809 573.176> 0.0644531 21.0098G<101.035 118.46 555.809 573.176> 226.667 133.333<277.511 396.004>
VStem: 506.23 129.538<17.9293 98.7526>
LayerCount: 2
Back
Fore
SplineSet
215.383789062 914.147460938 m 0xb0
 228.216796875 932.479492188 249.13671875 942.408203125 270.315429688 942.408203125 c 0
 283.48046875 942.408203125 296.74609375 938.571289062 308.23046875 930.532226562 c 2
 435.73046875 841.282226562 l 2
 454.063476562 828.450195312 463.9921875 807.530273438 463.9921875 786.3515625 c 0
 463.9921875 773.186523438 460.155273438 759.920898438 452.115234375 748.435546875 c 0
 442.12890625 734.168945312 427.341796875 725.055664062 411.380859375 721.669921875 c 1
 447.673828125 617.37109375 557.3828125 302.533203125 632.103515625 88.654296875 c 0
 634.591796875 81.5322265625 635.768554688 74.244140625 635.768554688 67.056640625 c 0
 635.768554688 39.3994140625 618.344726562 13.2294921875 591.154296875 3.73046875 c 0
 584.056640625 1.2509765625 576.7734375 0.07421875 569.578125 0.07421875 c 0
 542.040039062 0.07421875 515.79296875 17.3056640625 506.23046875 44.6796875 c 0
 486.578125 100.931640625 464.77734375 163.280273438 442.615234375 226.666992188 c 1
 231.176757812 226.666992188 l 1
 167.97265625 44.783203125 l 2
 158.505859375 17.541015625 132.30859375 0.064453125 104.611328125 0.064453125 c 0
 97.458984375 0.064453125 90.20703125 1.2294921875 83.1171875 3.693359375 c 0
 55.69140625 13.2236328125 38.4072265625 39.5 38.4072265625 67.078125 c 0
 38.4072265625 74.2373046875 39.572265625 81.4853515625 42.02734375 88.5498046875 c 2
 273.693359375 755.216796875 l 2
 277.137695312 765.126953125 282.768554688 773.713867188 289.857421875 780.638671875 c 1
 231.768554688 821.30078125 l 2
 213.345703125 834.197265625 203.515625 855.099609375 203.515625 876.197265625 c 0
 203.515625 889.41015625 207.37109375 902.69921875 215.383789062 914.147460938 c 0xb0
277.510742188 360 m 1
 396.00390625 360 l 1
 374.81640625 420.623046875 354.473632812 478.868164062 336.615234375 530.0859375 c 1
 277.510742188 360 l 1
EndSplineSet
Validated: 1
EndChar

StartChar: Aacute
Encoding: 193 193 107
Width: 674
VWidth: 66
Flags: W
HStem: 0.0644531 21.0098G<101.035 118.46 555.809 573.176> 0.0644531 21.0098G<101.035 118.46 555.809 573.176> 226.667 133.333<277.511 396.004>
VStem: 506.23 129.538<17.9293 100.662>
LayerCount: 2
Back
Fore
SplineSet
449.514648438 914.208007812 m 0xb0
 457.594726562 902.729492188 461.483398438 889.381835938 461.483398438 876.110351562 c 0
 461.483398438 855.073242188 451.711914062 834.227539062 433.375 821.319335938 c 2
 380.34765625 783.990234375 l 1
 388.8828125 776.693359375 395.5703125 767.189453125 399.422851562 756.080078125 c 0
 405.296875 739.002929688 543.370117188 342.641601562 632.103515625 88.654296875 c 0
 634.591796875 81.5322265625 635.768554688 74.244140625 635.768554688 67.056640625 c 0
 635.768554688 39.3994140625 618.344726562 13.2294921875 591.154296875 3.73046875 c 0
 584.056640625 1.2509765625 576.7734375 0.07421875 569.578125 0.07421875 c 0
 542.040039062 0.07421875 515.79296875 17.3056640625 506.23046875 44.6796875 c 0
 486.578125 100.931640625 464.77734375 163.280273438 442.615234375 226.666992188 c 1
 231.176757812 226.666992188 l 1
 167.97265625 44.783203125 l 2
 158.505859375 17.541015625 132.30859375 0.064453125 104.611328125 0.064453125 c 0
 97.458984375 0.064453125 90.20703125 1.2294921875 83.1171875 3.693359375 c 0
 55.69140625 13.2236328125 38.4072265625 39.5 38.4072265625 67.078125 c 0
 38.4072265625 74.2373046875 39.572265625 81.4853515625 42.02734375 88.5498046875 c 2
 261.643554688 720.541015625 l 1
 243.056640625 722.451171875 225.298828125 731.983398438 213.819335938 748.291992188 c 0
 205.712890625 759.807617188 201.842773438 773.130859375 201.842773438 786.35546875 c 0
 201.842773438 807.47265625 211.711914062 828.3359375 229.958984375 841.180664062 c 2
 356.625 930.34765625 l 2
 368.140625 938.454101562 381.46484375 942.32421875 394.688476562 942.32421875 c 0
 415.805664062 942.32421875 436.668945312 932.455078125 449.514648438 914.208007812 c 0xb0
277.510742188 360 m 1
 396.00390625 360 l 1
 374.81640625 420.623046875 354.473632812 478.868164062 336.615234375 530.0859375 c 1
 277.510742188 360 l 1
EndSplineSet
Validated: 1
EndChar

StartChar: Acircumflex
Encoding: 194 194 108
Width: 674
VWidth: 66
Flags: W
HStem: 0.0644531 21.0098G<101.035 118.46 555.809 573.176> 0.0644531 21.0098G<101.035 118.46 555.809 573.176> 226.667 133.333<277.511 396.004>
VStem: 506.23 129.538<17.9293 99.7827>
LayerCount: 2
Back
Fore
SplineSet
152.05078125 748.435546875 m 0xb0
 144.037109375 759.883789062 140.182617188 773.172851562 140.182617188 786.385742188 c 0
 140.182617188 807.483398438 150.01171875 828.385742188 168.435546875 841.282226562 c 2
 295.935546875 930.532226562 l 2
 307.288085938 938.478515625 320.728515625 942.4453125 334.163085938 942.4453125 c 0
 347.61328125 942.4453125 361.057617188 938.469726562 372.397460938 930.532226562 c 2
 499.897460938 841.282226562 l 2
 518.229492188 828.450195312 528.158203125 807.530273438 528.158203125 786.3515625 c 0
 528.158203125 773.186523438 524.321289062 759.920898438 516.282226562 748.435546875 c 0
 503.385742188 730.01171875 482.483398438 720.182617188 461.384765625 720.182617188 c 0
 448.172851562 720.182617188 434.883789062 724.037109375 423.435546875 732.05078125 c 2
 402.729492188 746.544921875 l 1
 425.107421875 682.135742188 549.819335938 324.180664062 632.103515625 88.654296875 c 0
 634.591796875 81.5322265625 635.768554688 74.244140625 635.768554688 67.056640625 c 0
 635.768554688 39.3994140625 618.344726562 13.2294921875 591.154296875 3.73046875 c 0
 584.056640625 1.2509765625 576.7734375 0.07421875 569.578125 0.07421875 c 0
 542.040039062 0.07421875 515.79296875 17.3056640625 506.23046875 44.6796875 c 0
 486.578125 100.931640625 464.77734375 163.280273438 442.615234375 226.666992188 c 1
 231.176757812 226.666992188 l 1
 167.97265625 44.783203125 l 2
 158.505859375 17.541015625 132.30859375 0.064453125 104.611328125 0.064453125 c 0
 97.458984375 0.064453125 90.20703125 1.2294921875 83.1171875 3.693359375 c 0
 55.69140625 13.2236328125 38.4072265625 39.5 38.4072265625 67.078125 c 0
 38.4072265625 74.2373046875 39.572265625 81.4853515625 42.02734375 88.5498046875 c 2
 272.311523438 751.240234375 l 1
 244.897460938 732.05078125 l 2
 233.412109375 724.01171875 220.147460938 720.174804688 206.982421875 720.174804688 c 0
 185.802734375 720.174804688 164.8828125 730.103515625 152.05078125 748.435546875 c 0xb0
277.510742188 360 m 1
 396.00390625 360 l 1
 374.81640625 420.623046875 354.473632812 478.868164062 336.615234375 530.0859375 c 1
 277.510742188 360 l 1
EndSplineSet
Validated: 1
EndChar

StartChar: Atilde
Encoding: 195 195 109
Width: 674
VWidth: 66
Flags: W
HStem: 0.0644531 21.0098G<101.035 118.46 555.809 573.176> 0.0644531 21.0098G<101.035 118.46 555.809 573.176> 226.667 133.333<277.511 396.004> 720.457 152.688<412.116 467.076> 740.224 154.341<214.229 271.409>
VStem: 170.289 337.899<760.013 851.851> 506.23 129.538<17.9293 98.7135>
LayerCount: 2
Back
Fore
SplineSet
488.869140625 853.82421875 m 0x34
 501.723632812 840.969726562 508.188476562 823.823242188 508.188476562 806.659179688 c 0x34
 508.188476562 789.5625 501.7734375 772.44921875 488.869140625 759.543945312 c 0
 467.2265625 737.901367188 439.958007812 724.834960938 411.802734375 720.45703125 c 1
 448.517578125 614.950195312 557.669921875 301.7109375 632.103515625 88.654296875 c 0
 634.591796875 81.5322265625 635.768554688 74.244140625 635.768554688 67.056640625 c 0
 635.768554688 39.3994140625 618.344726562 13.2294921875 591.154296875 3.73046875 c 0
 584.056640625 1.2509765625 576.7734375 0.07421875 569.578125 0.07421875 c 0
 542.040039062 0.07421875 515.79296875 17.3056640625 506.23046875 44.6796875 c 0x32
 486.578125 100.931640625 464.77734375 163.280273438 442.615234375 226.666992188 c 1
 231.176757812 226.666992188 l 1
 167.97265625 44.783203125 l 2
 158.505859375 17.541015625 132.30859375 0.064453125 104.611328125 0.064453125 c 0
 97.458984375 0.064453125 90.20703125 1.2294921875 83.1171875 3.693359375 c 0
 55.69140625 13.2236328125 38.4072265625 39.5 38.4072265625 67.078125 c 0
 38.4072265625 74.2373046875 39.572265625 81.4853515625 42.02734375 88.5498046875 c 2
 271.911132812 750.087890625 l 1
 261.228515625 743.522460938 248.978515625 740.223632812 236.71875 740.223632812 c 0
 219.689453125 740.223632812 202.640625 746.587890625 189.749023438 759.404296875 c 0
 176.754882812 772.322265625 170.2890625 789.500976562 170.2890625 806.665039062 c 0
 170.2890625 823.760742188 176.704101562 840.842773438 189.470703125 853.684570312 c 0
 216.57421875 880.94921875 252.522460938 894.564453125 287.932617188 894.564453125 c 0xac
 323.3515625 894.564453125 359.251953125 880.911132812 386.337890625 853.82421875 c 0
 387.5234375 852.638671875 388.76953125 852.137695312 390.462890625 852.137695312 c 0
 392.166992188 852.137695312 393.389648438 852.625976562 394.587890625 853.82421875 c 0
 407.4921875 866.729492188 424.606445312 873.14453125 441.703125 873.14453125 c 0
 458.8671875 873.14453125 476.014648438 866.678710938 488.869140625 853.82421875 c 0x34
277.510742188 360 m 1
 396.00390625 360 l 1
 374.81640625 420.623046875 354.473632812 478.868164062 336.615234375 530.0859375 c 1
 277.510742188 360 l 1
EndSplineSet
Validated: 1
EndChar

StartChar: Adieresis
Encoding: 196 196 110
Width: 674
VWidth: 66
Flags: W
HStem: 0.0644531 21.0098G<101.035 118.46 555.809 573.176> 0.0644531 21.0098G<101.035 118.46 555.809 573.176> 226.667 133.333<277.511 396.004>
VStem: 506.23 129.538<17.9293 98.7527>
LayerCount: 2
Back
Fore
SplineSet
396.666992188 854.166992188 m 0xb0
 432.954101562 854.166992188 463.333007812 824.072265625 463.333007812 787.5 c 2
 463.333007812 786.666992188 l 2
 463.333007812 755.387695312 440.973632812 728.5 411.379882812 721.671875 c 1
 447.671875 617.375976562 557.381835938 302.53515625 632.103515625 88.654296875 c 0
 634.591796875 81.5322265625 635.768554688 74.244140625 635.768554688 67.056640625 c 0
 635.768554688 39.3994140625 618.344726562 13.2294921875 591.154296875 3.73046875 c 0
 584.056640625 1.2509765625 576.7734375 0.07421875 569.578125 0.07421875 c 0
 542.040039062 0.07421875 515.79296875 17.3056640625 506.23046875 44.6796875 c 0
 486.578125 100.931640625 464.77734375 163.280273438 442.615234375 226.666992188 c 1
 231.176757812 226.666992188 l 1
 167.97265625 44.783203125 l 2
 158.505859375 17.541015625 132.30859375 0.064453125 104.611328125 0.064453125 c 0
 97.458984375 0.064453125 90.20703125 1.2294921875 83.1171875 3.693359375 c 0
 55.69140625 13.2236328125 38.4072265625 39.5 38.4072265625 67.078125 c 0
 38.4072265625 74.2373046875 39.572265625 81.4853515625 42.02734375 88.5498046875 c 2
 261.603515625 720.424804688 l 1
 228.359375 724.184570312 202.5 752.423828125 202.5 786.666992188 c 2
 202.5 787.5 l 2
 202.5 824.072265625 232.87890625 854.166992188 269.166992188 854.166992188 c 0
 298.796875 854.166992188 324.487304688 834.1015625 332.916992188 806.829101562 c 1
 341.345703125 834.1015625 367.036132812 854.166992188 396.666992188 854.166992188 c 0xb0
277.510742188 360 m 1
 396.00390625 360 l 1
 374.81640625 420.623046875 354.473632812 478.868164062 336.615234375 530.0859375 c 1
 277.510742188 360 l 1
EndSplineSet
Validated: 1
EndChar

StartChar: Aring
Encoding: 197 197 111
Width: 674
VWidth: 66
Flags: W
HStem: 0.0644531 21.0098G<101.035 118.46 555.809 573.176> 0.0644531 21.0098G<101.035 118.46 555.809 573.176> 226.667 133.333<277.511 396.004> 780 20G<336.743 338.489> 780 20G<336.743 338.489> 881.667 133.333<302.342 374.324>
VStem: 163.333 133.334<804.003 875.991> 380 133.333<803.756 875.991> 506.23 129.538<17.9293 107.06>
LayerCount: 2
Back
Fore
SplineSet
163.333007812 840 m 0xa680
 163.333007812 936.735351562 241.590820312 1015 338.333007812 1015 c 0
 435.068359375 1015 513.333007812 936.7421875 513.333007812 840 c 0xa7
 513.333007812 774.168945312 477.090820312 716.892578125 423.444335938 687.013671875 c 1
 467.950195312 559.1875 564.392578125 282.46875 632.103515625 88.654296875 c 0
 634.591796875 81.5322265625 635.768554688 74.244140625 635.768554688 67.056640625 c 0
 635.768554688 39.3994140625 618.344726562 13.2294921875 591.154296875 3.73046875 c 0
 584.056640625 1.2509765625 576.7734375 0.07421875 569.578125 0.07421875 c 0
 542.040039062 0.07421875 515.79296875 17.3056640625 506.23046875 44.6796875 c 0
 486.578125 100.931640625 464.77734375 163.280273438 442.615234375 226.666992188 c 1
 231.176757812 226.666992188 l 1
 167.97265625 44.783203125 l 2
 158.505859375 17.541015625 132.30859375 0.064453125 104.611328125 0.064453125 c 0
 97.458984375 0.064453125 90.20703125 1.2294921875 83.1171875 3.693359375 c 0
 55.69140625 13.2236328125 38.4072265625 39.5 38.4072265625 67.078125 c 0
 38.4072265625 74.2373046875 39.572265625 81.4853515625 42.02734375 88.5498046875 c 2
 250.526367188 688.547851562 l 1
 198.366210938 718.823242188 163.333007812 775.274414062 163.333007812 840 c 0xa680
277.510742188 360 m 1
 396.00390625 360 l 1
 374.81640625 420.623046875 354.473632812 478.868164062 336.615234375 530.0859375 c 1
 277.510742188 360 l 1
347.032226562 799.215820312 m 0
 366.018554688 803.143554688 380 819.725585938 380 840 c 0
 380 863.2578125 361.59765625 881.666992188 338.333007812 881.666992188 c 0
 315.075195312 881.666992188 296.666992188 863.264648438 296.666992188 840 c 0
 296.666992188 820.0390625 310.221679688 803.649414062 328.772460938 799.404296875 c 0
 331.375976562 799.732421875 334.006835938 799.907226562 336.649414062 799.924804688 c 0
 336.701171875 799.974609375 336.735351562 800 336.75 800 c 0x37
 340.227539062 800 343.663085938 799.733398438 347.032226562 799.215820312 c 0
EndSplineSet
Validated: 1
EndChar

StartChar: Ccedilla
Encoding: 199 199 112
Width: 749
VWidth: 66
Flags: W
HStem: -125.833 259.166<375.239 470.926> 666.667 133.333<331.127 511.708>
VStem: 88.333 133.334<245.788 550.124> 355.833 133.333<-107.335 11.6479>
LayerCount: 2
Back
Fore
SplineSet
422.5 -125.833007812 m 0
 386.211914062 -125.833007812 355.833007812 -95.7392578125 355.833007812 -59.1669921875 c 2
 355.833007812 6.6435546875 l 1
 203.522460938 37.4375 88.3330078125 171.661132812 88.3330078125 333.333007812 c 2
 88.3330078125 466.666992188 l 2
 88.3330078125 651.215820312 238.428710938 800 422.5 800 c 0
 515.045898438 800 597.97265625 762.122070312 658.016601562 702.180664062 c 0
 670.897460938 689.322265625 677.376953125 672.157226562 677.376953125 654.973632812 c 0
 677.376953125 637.896484375 670.9765625 620.801757812 658.09765625 607.900390625 c 0
 645.189453125 594.969726562 628.056640625 588.540039062 610.939453125 588.540039062 c 0
 593.795898438 588.540039062 576.66796875 594.990234375 563.81640625 607.819335938 c 0
 527.02734375 644.544921875 478.288085938 666.666992188 422.5 666.666992188 c 0
 311.571289062 666.666992188 221.666992188 577.1171875 221.666992188 466.666992188 c 2
 221.666992188 333.333007812 l 2
 221.666992188 222.8828125 311.571289062 133.333007812 422.5 133.333007812 c 0
 478.29296875 133.333007812 527.014648438 155.461914062 563.693359375 192.140625 c 0
 576.598632812 205.045898438 593.711914062 211.4609375 610.80859375 211.4609375 c 0
 627.97265625 211.4609375 645.119140625 204.995117188 657.973632812 192.140625 c 0
 670.828125 179.286132812 677.293945312 162.138671875 677.293945312 144.975585938 c 0
 677.293945312 127.877929688 670.87890625 110.764648438 657.973632812 97.859375 c 0
 612.814453125 52.7001953125 554.64453125 20.07421875 489.166015625 6.7041015625 c 1
 489.166015625 -59.1669921875 l 2
 489.166015625 -95.7392578125 458.787109375 -125.833007812 422.5 -125.833007812 c 0
EndSplineSet
Validated: 1
EndChar

StartChar: Egrave
Encoding: 200 200 113
Width: 668
VWidth: 66
Flags: W
HStem: 0 133.333<238.333 587.495> 333.333 133.334<238.333 520.828> 666.667 133.333<238.333 281.99 473.933 586.502>
VStem: 105 133.333<133.333 333.333 466.667 666.667>
CounterMasks: 1 e0
LayerCount: 2
Back
Fore
SplineSet
235.17578125 914.147460938 m 0
 248.008789062 932.479492188 268.928710938 942.408203125 290.107421875 942.408203125 c 0
 303.272460938 942.408203125 316.537109375 938.571289062 328.022460938 930.532226562 c 2
 455.522460938 841.282226562 l 2
 469.8828125 831.23046875 479.086914062 816.21484375 482.400390625 800 c 1
 538.333007812 800 l 2
 574.905273438 800 605 769.62109375 605 733.333007812 c 0
 605 697.045898438 574.905273438 666.666992188 538.333007812 666.666992188 c 2
 238.333007812 666.666992188 l 1
 238.333007812 466.666992188 l 1
 471.666992188 466.666992188 l 2
 507.954101562 466.666992188 538.333007812 436.572265625 538.333007812 400 c 0
 538.333007812 363.427734375 507.954101562 333.333007812 471.666992188 333.333007812 c 2
 238.333007812 333.333007812 l 1
 238.333007812 133.333007812 l 1
 538.333007812 133.333007812 l 2
 574.62109375 133.333007812 605 103.239257812 605 66.6669921875 c 0
 605 30.0947265625 574.62109375 0 538.333007812 0 c 2
 171.666992188 0 l 2
 143.053710938 0 105 26.3134765625 105 66.6669921875 c 2
 105 400 l 1
 105 733.333007812 l 2
 105 761.946289062 131.313476562 800 171.666992188 800 c 2
 281.990234375 800 l 1
 251.560546875 821.30078125 l 2
 233.13671875 834.197265625 223.307617188 855.099609375 223.307617188 876.197265625 c 0
 223.307617188 889.41015625 227.162109375 902.69921875 235.17578125 914.147460938 c 0
EndSplineSet
Validated: 1
EndChar

StartChar: Eacute
Encoding: 201 201 114
Width: 668
VWidth: 66
Flags: W
HStem: 0 133.333<238.333 587.495> 333.333 133.334<238.333 520.828> 666.667 133.333<433.715 586.502>
VStem: 105 133.333<133.333 333.333 466.667 666.667>
CounterMasks: 1 e0
LayerCount: 2
Back
Fore
SplineSet
480.139648438 914.208007812 m 0
 488.219726562 902.729492188 492.108398438 889.381835938 492.108398438 876.110351562 c 0
 492.108398438 855.073242188 482.337890625 834.227539062 464 821.319335938 c 2
 433.71484375 800 l 1
 538.333007812 800 l 2
 574.905273438 800 605 769.62109375 605 733.333007812 c 0
 605 697.045898438 574.905273438 666.666992188 538.333007812 666.666992188 c 2
 238.333007812 666.666992188 l 1
 238.333007812 466.666992188 l 1
 471.666992188 466.666992188 l 2
 507.954101562 466.666992188 538.333007812 436.572265625 538.333007812 400 c 0
 538.333007812 363.427734375 507.954101562 333.333007812 471.666992188 333.333007812 c 2
 238.333007812 333.333007812 l 1
 238.333007812 133.333007812 l 1
 538.333007812 133.333007812 l 2
 574.62109375 133.333007812 605 103.239257812 605 66.6669921875 c 0
 605 30.0947265625 574.62109375 0 538.333007812 0 c 2
 171.666992188 0 l 2
 143.053710938 0 105 26.3134765625 105 66.6669921875 c 2
 105 400 l 1
 105 733.333007812 l 2
 105 761.946289062 131.313476562 800 171.666992188 800 c 2
 233.849609375 800 l 1
 237.150390625 816.157226562 246.299804688 831.125976562 260.583984375 841.180664062 c 2
 387.25 930.34765625 l 2
 398.766601562 938.454101562 412.08984375 942.32421875 425.313476562 942.32421875 c 0
 446.430664062 942.32421875 467.294921875 932.455078125 480.139648438 914.208007812 c 0
EndSplineSet
Validated: 1
EndChar

StartChar: Ecircumflex
Encoding: 202 202 115
Width: 668
VWidth: 66
Flags: W
HStem: 0 133.333<238.333 587.495> 333.333 133.334<238.333 520.828> 666.667 275.778<307.615 411.968>
VStem: 105 133.333<133.333 333.333 466.667 666.667>
LayerCount: 2
Back
Fore
SplineSet
605 733.333007812 m 0
 605 697.045898438 574.905273438 666.666992188 538.333007812 666.666992188 c 2
 238.333007812 666.666992188 l 1
 238.333007812 466.666992188 l 1
 471.666992188 466.666992188 l 2
 507.954101562 466.666992188 538.333007812 436.572265625 538.333007812 400 c 0
 538.333007812 363.427734375 507.954101562 333.333007812 471.666992188 333.333007812 c 2
 238.333007812 333.333007812 l 1
 238.333007812 133.333007812 l 1
 538.333007812 133.333007812 l 2
 574.62109375 133.333007812 605 103.239257812 605 66.6669921875 c 0
 605 30.0947265625 574.62109375 0 538.333007812 0 c 2
 171.666992188 0 l 2
 143.053710938 0 105 26.3134765625 105 66.6669921875 c 2
 105 400 l 1
 105 733.333007812 l 2
 105 760.864257812 129.360351562 797.134765625 167.1484375 799.838867188 c 1
 170.413085938 816.0703125 179.583984375 831.1484375 194.060546875 841.282226562 c 2
 321.560546875 930.532226562 l 2
 332.9140625 938.478515625 346.353515625 942.4453125 359.7890625 942.4453125 c 0
 373.23828125 942.4453125 386.68359375 938.469726562 398.022460938 930.532226562 c 2
 525.522460938 841.282226562 l 2
 540.353515625 830.901367188 549.684570312 815.2265625 552.708007812 798.404296875 c 1
 582.469726562 791.705078125 605 764.73046875 605 733.333007812 c 0
EndSplineSet
Validated: 1
EndChar

StartChar: Edieresis
Encoding: 203 203 116
Width: 668
VWidth: 66
Flags: W
HStem: 0 133.333<238.333 587.495> 333.333 133.334<238.333 520.828> 666.667 185.833<241.655 339.217 369.532 467.094> 666.667 133.333<473.946 586.502>
VStem: 105 133.333<133.333 333.333 466.667 666.667>
LayerCount: 2
Back
Fore
SplineSet
605 733.333007812 m 0xd8
 605 697.045898438 574.905273438 666.666992188 538.333007812 666.666992188 c 2
 238.333007812 666.666992188 l 1
 238.333007812 466.666992188 l 1
 471.666992188 466.666992188 l 2
 507.954101562 466.666992188 538.333007812 436.572265625 538.333007812 400 c 0
 538.333007812 363.427734375 507.954101562 333.333007812 471.666992188 333.333007812 c 2
 238.333007812 333.333007812 l 1
 238.333007812 133.333007812 l 1
 538.333007812 133.333007812 l 2
 574.62109375 133.333007812 605 103.239257812 605 66.6669921875 c 0
 605 30.0947265625 574.62109375 0 538.333007812 0 c 2
 171.666992188 0 l 2
 143.053710938 0 105 26.3134765625 105 66.6669921875 c 2
 105 400 l 1
 105 733.333007812 l 2
 105 761.946289062 131.313476562 800 171.666992188 800 c 2
 225.506835938 800 l 1xd8
 232.127929688 829.865234375 259.154296875 852.5 290.625 852.5 c 0
 320.254882812 852.5 345.9453125 832.435546875 354.374023438 805.162109375 c 1
 362.803710938 832.435546875 388.494140625 852.5 418.125 852.5 c 0xe8
 449.594726562 852.5 476.62109375 829.865234375 483.2421875 800 c 1
 538.333007812 800 l 2
 574.905273438 800 605 769.62109375 605 733.333007812 c 0xd8
EndSplineSet
Validated: 1
EndChar

StartChar: Igrave
Encoding: 204 204 117
Width: 363
VWidth: 66
Flags: W
HStem: 0 21G<164.631 201.203> 0 21G<164.631 201.203>
VStem: 116.25 133.333<17.5049 725.268>
LayerCount: 2
Back
Fore
SplineSet
63.30078125 914.147460938 m 0xa0
 76.1328125 932.479492188 97.052734375 942.408203125 118.232421875 942.408203125 c 0
 131.397460938 942.408203125 144.662109375 938.571289062 156.147460938 930.532226562 c 2
 283.647460938 841.282226562 l 2
 301.979492188 828.450195312 311.908203125 807.530273438 311.908203125 786.3515625 c 0
 311.908203125 773.186523438 308.071289062 759.920898438 300.032226562 748.435546875 c 0
 288.04296875 731.30859375 269.135742188 721.608398438 249.583007812 720.328125 c 1
 249.583007812 66.6669921875 l 2
 249.583007812 30.37890625 219.489257812 0 182.916992188 0 c 0
 146.344726562 0 116.25 30.37890625 116.25 66.6669921875 c 2
 116.25 733.333007812 l 2
 116.25 752.069335938 124.22265625 769.104492188 136.87890625 781.265625 c 1
 79.685546875 821.30078125 l 2
 61.26171875 834.197265625 51.4326171875 855.099609375 51.4326171875 876.197265625 c 0
 51.4326171875 889.41015625 55.287109375 902.69921875 63.30078125 914.147460938 c 0xa0
EndSplineSet
Validated: 1
EndChar

StartChar: Iacute
Encoding: 205 205 118
Width: 363
VWidth: 66
Flags: W
HStem: 0 21G<166.715 203.287> 0 21G<166.715 203.287>
VStem: 118.334 133.333<17.5049 720.185>
LayerCount: 2
Back
Fore
SplineSet
299.514648438 914.208007812 m 0xa0
 307.594726562 902.729492188 311.483398438 889.381835938 311.483398438 876.110351562 c 0
 311.483398438 855.073242188 301.712890625 834.227539062 283.375 821.319335938 c 2
 229.065429688 783.087890625 l 1
 242.859375 770.838867188 251.666992188 753.024414062 251.666992188 733.333007812 c 2
 251.666992188 66.6669921875 l 2
 251.666992188 30.37890625 221.573242188 0 185.000976562 0 c 0
 148.428710938 0 118.333984375 30.37890625 118.333984375 66.6669921875 c 2
 118.333984375 720.184570312 l 1
 97.3916015625 720.26953125 76.6708984375 730.03515625 63.8193359375 748.291992188 c 0
 55.712890625 759.807617188 51.8427734375 773.130859375 51.8427734375 786.35546875 c 0
 51.8427734375 807.47265625 61.7119140625 828.3359375 79.958984375 841.180664062 c 2
 206.625 930.34765625 l 2
 218.141601562 938.454101562 231.46484375 942.32421875 244.688476562 942.32421875 c 0
 265.805664062 942.32421875 286.669921875 932.455078125 299.514648438 914.208007812 c 0xa0
EndSplineSet
Validated: 1
EndChar

StartChar: Icircumflex
Encoding: 206 206 119
Width: 363
VWidth: 66
Flags: W
HStem: 0 21G<160.881 197.453> 0 21G<160.881 197.453>
VStem: 112.5 133.333<17.5049 746.944>
LayerCount: 2
Back
Fore
SplineSet
-0.44921875 748.435546875 m 0xa0
 -8.462890625 759.883789062 -12.3173828125 773.172851562 -12.3173828125 786.385742188 c 0
 -12.3173828125 807.483398438 -2.48828125 828.385742188 15.935546875 841.282226562 c 2
 143.435546875 930.532226562 l 2
 154.788085938 938.478515625 168.228515625 942.4453125 181.663085938 942.4453125 c 0
 195.11328125 942.4453125 208.557617188 938.469726562 219.897460938 930.532226562 c 2
 347.397460938 841.282226562 l 2
 365.729492188 828.450195312 375.658203125 807.530273438 375.658203125 786.3515625 c 0
 375.658203125 773.186523438 371.822265625 759.920898438 363.782226562 748.435546875 c 0
 350.885742188 730.01171875 329.983398438 720.182617188 308.885742188 720.182617188 c 0
 295.672851562 720.182617188 282.383789062 724.037109375 270.935546875 732.05078125 c 2
 243.29296875 751.401367188 l 2
 244.9453125 745.646484375 245.833007812 739.583984375 245.833007812 733.333007812 c 2
 245.833007812 66.6669921875 l 2
 245.833007812 30.37890625 215.739257812 0 179.166992188 0 c 0
 142.594726562 0 112.5 30.37890625 112.5 66.6669921875 c 2
 112.5 733.333007812 l 2
 112.5 738.065429688 113.008789062 742.689453125 113.97265625 747.153320312 c 2
 92.3974609375 732.05078125 l 2
 80.912109375 724.01171875 67.6474609375 720.174804688 54.482421875 720.174804688 c 0
 33.3037109375 720.174804688 12.3837890625 730.103515625 -0.44921875 748.435546875 c 0xa0
EndSplineSet
Validated: 1
EndChar

StartChar: Idieresis
Encoding: 207 207 120
Width: 363
VWidth: 66
Flags: W
HStem: 0 21G<172.548 209.12> 0 21G<172.548 209.12>
VStem: 124.167 133.333<17.5049 721.997>
LayerCount: 2
Back
Fore
SplineSet
245.000976562 855.833984375 m 0xa0
 281.288085938 855.833984375 311.666992188 825.739257812 311.666992188 789.166992188 c 2
 311.666992188 788.333984375 l 2
 311.666992188 756.279296875 288.185546875 728.8359375 257.5 722.869140625 c 1
 257.5 66.6669921875 l 2
 257.5 30.37890625 227.40625 0 190.833984375 0 c 0
 154.26171875 0 124.166992188 30.37890625 124.166992188 66.6669921875 c 2
 124.166992188 721.997070312 l 2
 121.974609375 721.778320312 119.750976562 721.666992188 117.500976562 721.666992188 c 0
 80.7001953125 721.666992188 50.833984375 751.533203125 50.833984375 788.333984375 c 2
 50.833984375 789.166992188 l 2
 50.833984375 825.739257812 81.212890625 855.833984375 117.500976562 855.833984375 c 0
 147.129882812 855.833984375 172.8203125 835.768554688 181.25 808.49609375 c 1
 189.6796875 835.768554688 215.370117188 855.833984375 245.000976562 855.833984375 c 0xa0
EndSplineSet
Validated: 1
EndChar

StartChar: Ntilde
Encoding: 209 209 121
Width: 809
VWidth: 66
Flags: W
HStem: 0 21G<153.523 189.811 632.659 641.808> 0 21G<153.523 189.811 632.659 641.808> 718.804 133.334<426.759 518.141> 761.23 133.334<291.503 382.887> 780 20G<168.06 177.19 620.189 656.477> 780 20G<168.06 177.19 620.189 656.477>
VStem: 105 133.333<18.4985 521.842> 571.667 133.333<278.158 781.502>
LayerCount: 2
Back
Fore
SplineSet
554.494140625 853.82421875 m 0x23
 567.348632812 840.969726562 573.814453125 823.823242188 573.814453125 806.659179688 c 0
 573.814453125 789.5625 567.399414062 772.44921875 554.494140625 759.543945312 c 0
 527.407226562 732.45703125 491.5078125 718.803710938 456.087890625 718.803710938 c 0x23
 420.657226562 718.803710938 384.78125 732.444335938 357.682617188 759.543945312 c 0
 356.484375 760.7421875 355.26171875 761.23046875 353.557617188 761.23046875 c 0
 351.842773438 761.23046875 350.668945312 760.704101562 349.654296875 759.68359375 c 0
 336.787109375 746.740234375 319.575195312 740.223632812 302.34375 740.223632812 c 0
 285.314453125 740.223632812 268.265625 746.587890625 255.374023438 759.404296875 c 0
 242.379882812 772.322265625 235.915039062 789.500976562 235.915039062 806.665039062 c 0
 235.915039062 823.760742188 242.329101562 840.842773438 255.095703125 853.684570312 c 0
 282.19921875 880.94921875 318.147460938 894.564453125 353.557617188 894.564453125 c 0x13
 388.9765625 894.564453125 424.876953125 880.911132812 451.962890625 853.82421875 c 0
 453.1484375 852.638671875 454.39453125 852.137695312 456.087890625 852.137695312 c 0
 457.791992188 852.137695312 459.014648438 852.625976562 460.212890625 853.82421875 c 0
 473.118164062 866.729492188 490.231445312 873.14453125 507.329101562 873.14453125 c 0
 524.4921875 873.14453125 541.639648438 866.678710938 554.494140625 853.82421875 c 0x23
638.333007812 800 m 0x8b
 674.62109375 800 705 769.905273438 705 733.333007812 c 2
 705 66.6669921875 l 2
 705 55.9560546875 702.377929688 45.759765625 697.7421875 36.70703125 c 0
 692.98046875 27.1171875 685.868164062 18.5634765625 676.564453125 12.05078125 c 0
 670.846679688 8.0478515625 664.6875 5.0869140625 658.318359375 3.123046875 c 0
 651.999023438 1.0966796875 645.283203125 0 638.333007812 0 c 0
 626.985351562 0 616.260742188 2.9248046875 606.866210938 8.0439453125 c 0
 597.868164062 12.80078125 589.865234375 19.654296875 583.717773438 28.435546875 c 2
 238.333007812 521.841796875 l 1
 238.333007812 66.6669921875 l 2
 238.333007812 30.0947265625 207.954101562 0 171.666992188 0 c 0
 135.37890625 0 105 30.0947265625 105 66.6669921875 c 2
 105 733.333007812 l 2
 105 744.34375 107.770507812 754.810546875 112.65234375 764.048828125 c 0
 117.421875 773.353515625 124.41015625 781.630859375 133.435546875 787.94921875 c 0
 138.924804688 791.791015625 144.8359375 794.676757812 150.959960938 796.640625 c 0
 157.489257812 798.817382812 164.452148438 800 171.666992188 800 c 0
 182.713867188 800 193.169921875 797.228515625 202.383789062 792.359375 c 0
 211.666015625 787.602539062 219.942382812 780.622070312 226.282226562 771.564453125 c 2
 571.666992188 278.158203125 l 1
 571.666992188 733.333007812 l 2
 571.666992188 769.905273438 602.045898438 800 638.333007812 800 c 0x8b
EndSplineSet
Validated: 1
EndChar

StartChar: Ograve
Encoding: 210 210 122
Width: 943
VWidth: 66
Flags: W
HStem: 0 133.333<369.756 573.577> 666.667 275.741<396.393 545.351>
VStem: 71.667 133.333<298.09 501.402> 738.333 133.334<298.09 503.602>
LayerCount: 2
Back
Fore
SplineSet
352.05078125 914.147460938 m 0
 364.883789062 932.479492188 385.803710938 942.408203125 406.982421875 942.408203125 c 0
 420.147460938 942.408203125 433.412109375 938.571289062 444.897460938 930.532226562 c 2
 572.397460938 841.282226562 l 2
 590.729492188 828.450195312 600.658203125 807.530273438 600.658203125 786.3515625 c 0
 600.658203125 783.866210938 600.521484375 781.377929688 600.24609375 778.897460938 c 0
 758.106445312 725.369140625 871.666992188 575.983398438 871.666992188 400 c 0
 871.666992188 179.034179688 692.6328125 0 471.666992188 0 c 0
 250.701171875 0 71.6669921875 179.034179688 71.6669921875 400 c 0
 71.6669921875 598.748046875 216.5078125 763.572265625 406.423828125 794.708984375 c 1
 368.435546875 821.30078125 l 2
 350.01171875 834.197265625 340.182617188 855.099609375 340.182617188 876.197265625 c 0
 340.182617188 889.41015625 344.037109375 902.69921875 352.05078125 914.147460938 c 0
471.666992188 133.333007812 m 0
 619.034179688 133.333007812 738.333007812 252.6328125 738.333007812 400 c 0
 738.333007812 547.3671875 619.034179688 666.666992188 471.666992188 666.666992188 c 0
 324.298828125 666.666992188 205 547.3671875 205 400 c 0
 205 252.6328125 324.298828125 133.333007812 471.666992188 133.333007812 c 0
EndSplineSet
Validated: 1
EndChar

StartChar: Oacute
Encoding: 211 211 123
Width: 943
VWidth: 66
Flags: W
HStem: 0 133.333<369.756 573.577> 666.667 275.657<397.983 532.131>
VStem: 71.667 133.333<298.09 503.183> 738.333 133.334<298.09 501.719>
LayerCount: 2
Back
Fore
SplineSet
586.180664062 914.208007812 m 0
 594.260742188 902.729492188 598.149414062 889.381835938 598.149414062 876.110351562 c 0
 598.149414062 855.073242188 588.37890625 834.227539062 570.041015625 821.319335938 c 2
 533.100585938 795.314453125 l 1
 724.885742188 765.771484375 871.666992188 600.07421875 871.666992188 400 c 0
 871.666992188 179.034179688 692.6328125 0 471.666992188 0 c 0
 250.701171875 0 71.6669921875 179.034179688 71.6669921875 400 c 0
 71.6669921875 574.493164062 183.313476562 722.837890625 339.08984375 777.518554688 c 0
 338.701171875 780.455078125 338.508789062 783.407226562 338.508789062 786.35546875 c 0
 338.508789062 807.47265625 348.377929688 828.3359375 366.625 841.180664062 c 2
 493.291015625 930.34765625 l 2
 504.807617188 938.454101562 518.130859375 942.32421875 531.354492188 942.32421875 c 0
 552.471679688 942.32421875 573.3359375 932.455078125 586.180664062 914.208007812 c 0
471.666992188 133.333007812 m 0
 619.034179688 133.333007812 738.333007812 252.6328125 738.333007812 400 c 0
 738.333007812 547.3671875 619.034179688 666.666992188 471.666992188 666.666992188 c 0
 324.298828125 666.666992188 205 547.3671875 205 400 c 0
 205 252.6328125 324.298828125 133.333007812 471.666992188 133.333007812 c 0
EndSplineSet
Validated: 1
EndChar

StartChar: Ocircumflex
Encoding: 212 212 124
Width: 943
VWidth: 66
Flags: W
HStem: 0 133.333<369.756 573.577> 666.667 275.778<422.381 521.785>
VStem: 71.667 133.333<298.09 504.131> 738.333 133.334<298.09 503.963>
LayerCount: 2
Back
Fore
SplineSet
471.666992188 133.333007812 m 0
 619.034179688 133.333007812 738.333007812 252.6328125 738.333007812 400 c 0
 738.333007812 547.3671875 619.034179688 666.666992188 471.666992188 666.666992188 c 0
 324.298828125 666.666992188 205 547.3671875 205 400 c 0
 205 252.6328125 324.298828125 133.333007812 471.666992188 133.333007812 c 0
471.666992188 0 m 0
 250.701171875 0 71.6669921875 179.034179688 71.6669921875 400 c 0
 71.6669921875 554.151367188 158.798828125 687.89453125 286.514648438 754.682617188 c 1
 281.125 764.58984375 278.515625 775.513671875 278.515625 786.385742188 c 0
 278.515625 807.483398438 288.344726562 828.385742188 306.768554688 841.282226562 c 2
 434.268554688 930.532226562 l 2
 445.62109375 938.478515625 459.061523438 942.4453125 472.49609375 942.4453125 c 0
 485.946289062 942.4453125 499.390625 938.469726562 510.73046875 930.532226562 c 2
 638.23046875 841.282226562 l 2
 656.5625 828.450195312 666.491210938 807.530273438 666.491210938 786.3515625 c 0
 666.491210938 775.265625 663.771484375 764.109375 658.111328125 754.00390625 c 1
 785.122070312 686.991210938 871.666992188 553.630859375 871.666992188 400 c 0
 871.666992188 179.034179688 692.6328125 0 471.666992188 0 c 0
EndSplineSet
Validated: 1
EndChar

StartChar: Otilde
Encoding: 213 213 125
Width: 943
VWidth: 66
Flags: W
HStem: 0 133.333<369.756 573.577> 666.667 227.897<366.859 536.052> 666.667 206.478<419.748 577.106>
VStem: 71.667 133.333<298.09 504.403> 738.333 133.334<298.09 503.942>
LayerCount: 2
Back
Fore
SplineSet
623.869140625 853.82421875 m 0xb8
 636.723632812 840.969726562 643.189453125 823.823242188 643.189453125 806.659179688 c 0
 643.189453125 792.782226562 638.962890625 778.89453125 630.469726562 767.25390625 c 1
 772.399414062 705.821289062 871.666992188 564.53515625 871.666992188 400 c 0
 871.666992188 179.034179688 692.6328125 0 471.666992188 0 c 0
 250.701171875 0 71.6669921875 179.034179688 71.6669921875 400 c 0
 71.6669921875 566.059570312 172.78125 708.4375 316.819335938 768.940429688 c 1
 309.123046875 780.22265625 305.290039062 793.448242188 305.290039062 806.665039062 c 0
 305.290039062 823.760742188 311.704101562 840.842773438 324.470703125 853.684570312 c 0
 351.57421875 880.94921875 387.522460938 894.564453125 422.932617188 894.564453125 c 0xd8
 458.3515625 894.564453125 494.251953125 880.911132812 521.337890625 853.82421875 c 0
 522.5234375 852.638671875 523.76953125 852.137695312 525.462890625 852.137695312 c 0
 527.166992188 852.137695312 528.389648438 852.625976562 529.587890625 853.82421875 c 0
 542.493164062 866.729492188 559.606445312 873.14453125 576.704101562 873.14453125 c 0
 593.8671875 873.14453125 611.014648438 866.678710938 623.869140625 853.82421875 c 0xb8
471.666992188 133.333007812 m 0
 619.034179688 133.333007812 738.333007812 252.6328125 738.333007812 400 c 0
 738.333007812 547.3671875 619.034179688 666.666992188 471.666992188 666.666992188 c 0
 324.298828125 666.666992188 205 547.3671875 205 400 c 0
 205 252.6328125 324.298828125 133.333007812 471.666992188 133.333007812 c 0
EndSplineSet
Validated: 1
EndChar

StartChar: Odieresis
Encoding: 214 214 126
Width: 943
VWidth: 66
Flags: W
HStem: 0 133.333<369.756 573.577> 666.667 187.5<367.234 576.309>
VStem: 71.667 133.333<298.09 503.17> 738.333 133.334<298.09 503.757>
LayerCount: 2
Back
Fore
SplineSet
532.5 854.166992188 m 0
 568.787109375 854.166992188 599.166015625 824.072265625 599.166015625 787.5 c 2
 599.166015625 786.666992188 l 2
 599.166015625 784.21484375 599.028320312 781.7890625 598.760742188 779.3984375 c 0
 757.393554688 726.3046875 871.666992188 576.534179688 871.666992188 400 c 0
 871.666992188 179.034179688 692.6328125 0 471.666992188 0 c 0
 250.701171875 0 71.6669921875 179.034179688 71.6669921875 400 c 0
 71.6669921875 574.446289062 183.252929688 722.7578125 338.962890625 777.473632812 c 0
 338.547851562 780.478515625 338.333007812 783.547851562 338.333007812 786.666992188 c 2
 338.333007812 787.5 l 2
 338.333007812 824.072265625 368.711914062 854.166992188 405 854.166992188 c 0
 434.629882812 854.166992188 460.3203125 834.1015625 468.749023438 806.829101562 c 1
 477.178710938 834.1015625 502.869140625 854.166992188 532.5 854.166992188 c 0
471.666992188 133.333007812 m 0
 619.034179688 133.333007812 738.333007812 252.6328125 738.333007812 400 c 0
 738.333007812 547.3671875 619.034179688 666.666992188 471.666992188 666.666992188 c 0
 324.298828125 666.666992188 205 547.3671875 205 400 c 0
 205 252.6328125 324.298828125 133.333007812 471.666992188 133.333007812 c 0
EndSplineSet
Validated: 1
EndChar

StartChar: multiply
Encoding: 215 215 127
Width: 497
VWidth: 66
Flags: W
HStem: 156.664 287.895<202.097 268.319 324.27 390.492>
VStem: 152.347 287.895<206.41 272.635 328.586 394.809>
LayerCount: 2
Back
Fore
SplineSet
171.666992188 175.983398438 m 0
 158.812354337 188.838036288 152.347094326 205.985020377 152.347094326 223.148918309 c 0
 152.347094326 240.245926542 158.762060793 257.359717043 171.666992188 270.264648438 c 2
 202.013671875 300.611328125 l 1
 171.666992188 330.95703125 l 2
 158.812354337 343.812158335 152.347094326 360.959141469 152.347094326 378.122916616 c 0
 152.347094326 395.219802542 158.762060793 412.333349856 171.666992188 425.23828125 c 0
 184.571924539 438.143700929 201.685716621 444.558911531 218.782726119 444.558911531 c 0
 235.946622781 444.558911531 253.093605287 438.093407385 265.948242188 425.23828125 c 2
 296.294921875 394.892578125 l 1
 326.640625 425.23828125 l 2
 339.495751135 438.093407385 356.642732686 444.558911531 373.806506563 444.558911531 c 0
 390.903393754 444.558911531 408.016942649 438.143700929 420.921875 425.23828125 c 0
 433.827294679 412.333348899 440.242505281 395.219800004 440.242505281 378.122912813 c 0
 440.242505281 360.959138936 433.777001135 343.812157385 420.921875 330.95703125 c 2
 390.576171875 300.611328125 l 1
 420.921875 270.264648438 l 2
 433.827294679 257.359716086 440.242505281 240.245924004 440.242505281 223.148914506 c 0
 440.242505281 205.985017844 433.777001135 188.838035338 420.921875 175.983398438 c 0
 408.06723715 163.128760587 390.92025306 156.663500576 373.756355128 156.663500576 c 0
 356.659346896 156.663500576 339.545556394 163.078467043 326.640625 175.983398438 c 2
 296.294921875 206.330078125 l 1
 265.948242188 175.983398438 l 2
 253.043310793 163.078467043 235.929520292 156.663500576 218.832512059 156.663500576 c 0
 201.668614127 156.663500576 184.521630038 163.128760587 171.666992188 175.983398438 c 0
EndSplineSet
Validated: 1
EndChar

StartChar: Ugrave
Encoding: 217 217 128
Width: 844
VWidth: 66
Flags: W
HStem: 0 133.333<330.424 512.91> 780 20G<136.714 173.286 670.189 706.477> 780 20G<136.714 173.286 670.189 706.477>
VStem: 88.333 133.334<242.198 782.495> 621.667 133.333<242.162 781.502>
LayerCount: 2
Back
Fore
SplineSet
305.17578125 914.147460938 m 0x98
 318.008789062 932.479492188 338.928710938 942.408203125 360.107421875 942.408203125 c 0
 373.272460938 942.408203125 386.537109375 938.571289062 398.022460938 930.532226562 c 2
 525.522460938 841.282226562 l 2
 543.854492188 828.450195312 553.783203125 807.530273438 553.783203125 786.3515625 c 0
 553.783203125 773.186523438 549.947265625 759.920898438 541.907226562 748.435546875 c 0
 529.010742188 730.01171875 508.108398438 720.182617188 487.010742188 720.182617188 c 0
 473.797851562 720.182617188 460.508789062 724.037109375 449.060546875 732.05078125 c 2
 321.560546875 821.30078125 l 2
 303.13671875 834.197265625 293.307617188 855.099609375 293.307617188 876.197265625 c 0
 293.307617188 889.41015625 297.162109375 902.69921875 305.17578125 914.147460938 c 0x98
688.333007812 800 m 0xd8
 724.62109375 800 755 769.905273438 755 733.333007812 c 2
 755 333.333007812 l 2
 755 149.063476562 605.936523438 0 421.666992188 0 c 0
 237.377929688 0 88.3330078125 149.153320312 88.3330078125 333.333007812 c 2
 88.3330078125 733.333007812 l 2
 88.3330078125 769.62109375 118.427734375 800 155 800 c 0
 191.572265625 800 221.666992188 769.62109375 221.666992188 733.333007812 c 2
 221.666992188 333.333007812 l 2
 221.666992188 222.684570312 310.955078125 133.333007812 421.666992188 133.333007812 c 0
 532.397460938 133.333007812 621.666992188 222.602539062 621.666992188 333.333007812 c 2
 621.666992188 733.333007812 l 2
 621.666992188 769.905273438 652.045898438 800 688.333007812 800 c 0xd8
EndSplineSet
Validated: 1
EndChar

StartChar: Uacute
Encoding: 218 218 129
Width: 844
VWidth: 66
Flags: W
HStem: 0 133.333<330.424 512.91> 780 20G<136.714 173.286 670.189 706.477> 780 20G<136.714 173.286 670.189 706.477>
VStem: 88.333 133.334<242.198 782.495> 621.667 133.333<242.162 781.502>
LayerCount: 2
Back
Fore
SplineSet
539.305664062 914.208007812 m 0x98
 547.385742188 902.729492188 551.274414062 889.381835938 551.274414062 876.110351562 c 0
 551.274414062 855.073242188 541.50390625 834.227539062 523.166015625 821.319335938 c 2
 396.5 732.15234375 l 2
 385.021484375 724.072265625 371.673828125 720.18359375 358.40234375 720.18359375 c 0
 337.365234375 720.18359375 316.518554688 729.954101562 303.610351562 748.291992188 c 0
 295.50390625 759.807617188 291.633789062 773.130859375 291.633789062 786.35546875 c 0
 291.633789062 807.47265625 301.502929688 828.3359375 319.75 841.180664062 c 2
 446.416015625 930.34765625 l 2
 457.932617188 938.454101562 471.255859375 942.32421875 484.479492188 942.32421875 c 0
 505.596679688 942.32421875 526.4609375 932.455078125 539.305664062 914.208007812 c 0x98
688.333007812 800 m 0xd8
 724.62109375 800 755 769.905273438 755 733.333007812 c 2
 755 333.333007812 l 2
 755 149.063476562 605.936523438 0 421.666992188 0 c 0
 237.377929688 0 88.3330078125 149.153320312 88.3330078125 333.333007812 c 2
 88.3330078125 733.333007812 l 2
 88.3330078125 769.62109375 118.427734375 800 155 800 c 0
 191.572265625 800 221.666992188 769.62109375 221.666992188 733.333007812 c 2
 221.666992188 333.333007812 l 2
 221.666992188 222.684570312 310.955078125 133.333007812 421.666992188 133.333007812 c 0
 532.397460938 133.333007812 621.666992188 222.602539062 621.666992188 333.333007812 c 2
 621.666992188 733.333007812 l 2
 621.666992188 769.905273438 652.045898438 800 688.333007812 800 c 0xd8
EndSplineSet
Validated: 1
EndChar

StartChar: Ucircumflex
Encoding: 219 219 130
Width: 844
VWidth: 66
Flags: W
HStem: 0 133.333<330.424 512.91> 780 20G<136.714 173.286 670.189 706.477> 780 20G<136.714 173.286 670.189 706.477>
VStem: 88.333 133.334<242.198 782.495> 621.667 133.333<242.162 781.502>
LayerCount: 2
Back
Fore
SplineSet
240.17578125 748.435546875 m 0x98
 232.162109375 759.883789062 228.307617188 773.172851562 228.307617188 786.385742188 c 0
 228.307617188 807.483398438 238.13671875 828.385742188 256.560546875 841.282226562 c 2
 384.060546875 930.532226562 l 2
 395.413085938 938.478515625 408.853515625 942.4453125 422.288085938 942.4453125 c 0
 435.73828125 942.4453125 449.182617188 938.469726562 460.522460938 930.532226562 c 2
 588.022460938 841.282226562 l 2
 606.354492188 828.450195312 616.283203125 807.530273438 616.283203125 786.3515625 c 0
 616.283203125 773.186523438 612.447265625 759.920898438 604.407226562 748.435546875 c 0
 591.510742188 730.01171875 570.608398438 720.182617188 549.510742188 720.182617188 c 0
 536.297851562 720.182617188 523.008789062 724.037109375 511.560546875 732.05078125 c 2
 422.291992188 794.5390625 l 1
 333.022460938 732.05078125 l 2
 321.537109375 724.01171875 308.272460938 720.174804688 295.107421875 720.174804688 c 0
 273.928710938 720.174804688 253.008789062 730.103515625 240.17578125 748.435546875 c 0x98
688.333007812 800 m 0xd8
 724.62109375 800 755 769.905273438 755 733.333007812 c 2
 755 333.333007812 l 2
 755 149.063476562 605.936523438 0 421.666992188 0 c 0
 237.377929688 0 88.3330078125 149.153320312 88.3330078125 333.333007812 c 2
 88.3330078125 733.333007812 l 2
 88.3330078125 769.62109375 118.427734375 800 155 800 c 0
 191.572265625 800 221.666992188 769.62109375 221.666992188 733.333007812 c 2
 221.666992188 333.333007812 l 2
 221.666992188 222.684570312 310.955078125 133.333007812 421.666992188 133.333007812 c 0
 532.397460938 133.333007812 621.666992188 222.602539062 621.666992188 333.333007812 c 2
 621.666992188 733.333007812 l 2
 621.666992188 769.905273438 652.045898438 800 688.333007812 800 c 0xd8
EndSplineSet
Validated: 1
EndChar

StartChar: Udieresis
Encoding: 220 220 131
Width: 843
VWidth: 66
Flags: W
HStem: 0 133.333<330.424 512.91> 720 134.167<309.249 406.092 436.407 533.168> 780 20G<136.714 173.286 670.189 706.477> 780 20G<136.714 173.286 670.189 706.477>
VStem: 88.333 133.334<242.198 782.495> 621.667 133.333<242.162 781.502>
LayerCount: 2
Back
Fore
SplineSet
485 854.166992188 m 0xcc
 521.287109375 854.166992188 551.666015625 824.072265625 551.666015625 787.5 c 2
 551.666015625 786.666992188 l 2
 551.666015625 750.37890625 521.572265625 720 485 720 c 0
 455.2109375 720 429.719726562 740.155273438 421.288085938 767.241210938 c 1
 412.965820312 739.907226562 387.543945312 720 357.5 720 c 0
 320.69921875 720 290.833007812 749.866210938 290.833007812 786.666992188 c 2
 290.833007812 787.5 l 2
 290.833007812 824.072265625 321.211914062 854.166992188 357.5 854.166992188 c 0
 387.129882812 854.166992188 412.8203125 834.1015625 421.249023438 806.829101562 c 1
 429.678710938 834.1015625 455.369140625 854.166992188 485 854.166992188 c 0xcc
688.333007812 800 m 0xac
 724.62109375 800 755 769.905273438 755 733.333007812 c 2
 755 333.333007812 l 2
 755 149.063476562 605.936523438 0 421.666992188 0 c 0
 237.377929688 0 88.3330078125 149.153320312 88.3330078125 333.333007812 c 2
 88.3330078125 733.333007812 l 2
 88.3330078125 769.62109375 118.427734375 800 155 800 c 0
 191.572265625 800 221.666992188 769.62109375 221.666992188 733.333007812 c 2
 221.666992188 333.333007812 l 2
 221.666992188 222.684570312 310.955078125 133.333007812 421.666992188 133.333007812 c 0
 532.397460938 133.333007812 621.666992188 222.602539062 621.666992188 333.333007812 c 2
 621.666992188 733.333007812 l 2
 621.666992188 769.905273438 652.045898438 800 688.333007812 800 c 0xac
EndSplineSet
Validated: 1
EndChar

